if (_typeface_js && _typeface_js.loadFace) _typeface_js.loadFace({"glyphs":{"0":{"ha":1078,"x_min":0,"x_max":0,"o":"m 544 26 b 349 303 415 26 349 121 b 736 1010 349 668 520 1010 b 932 736 865 1010 932 916 b 544 26 932 367 755 26 z m 742 1044 b 142 386 402 1044 142 802 b 536 -14 142 142 289 -14 b 1142 679 866 -14 1142 271 b 742 1044 1142 918 1005 1044 z "},"1":{"ha":496,"x_min":0,"x_max":0,"o":"m 351 7 l 503 672 b 585 1031 517 730 578 957 l 382 1031 b 198 896 382 1031 347 1020 l 217 871 b 315 941 259 906 296 941 b 329 914 323 941 329 933 b 325 878 329 905 328 892 l 181 30 b 180 20 181 29 180 21 b 272 0 180 7 227 0 l 337 0 b 351 7 342 0 349 3 z "},"2":{"ha":909,"x_min":0,"x_max":0,"o":"m 918 132 l 906 138 l 874 74 b 709 13 851 26 793 13 b 271 36 600 13 446 36 l 248 36 l 250 40 b 353 126 273 54 307 83 l 657 406 b 925 831 811 547 925 690 b 597 1045 925 970 810 1045 b 187 719 397 1045 187 909 b 384 493 187 612 265 526 l 403 525 b 222 725 294 553 222 630 b 591 1011 222 887 405 1011 b 736 895 685 1011 736 970 b 473 487 736 777 652 673 l 120 119 b 31 -1 31 26 35 18 l 257 -1 b 718 -92 496 -1 622 -92 b 887 66 780 -92 829 -56 z "},"3":{"ha":929,"x_min":0,"x_max":0,"o":"m 438 20 b 229 254 343 20 229 89 b 238 336 229 279 233 306 b 83 200 145 336 83 281 b 431 -14 83 84 229 -14 b 937 345 694 -14 937 117 b 706 579 937 464 852 549 b 947 842 844 619 947 711 b 583 1046 947 966 807 1046 b 228 840 401 1046 228 966 b 336 737 228 778 271 737 b 576 1012 381 962 481 1012 b 735 858 676 1012 735 952 b 549 591 735 708 637 591 l 507 591 b 490 572 499 591 490 583 b 511 557 490 563 498 557 l 576 557 b 726 373 671 557 726 486 b 438 20 726 169 582 20 z "},"4":{"ha":897,"x_min":0,"x_max":0,"o":"m 74 190 l 600 190 l 576 0 l 767 0 l 778 47 l 812 190 l 910 190 l 917 224 l 820 224 b 869 448 841 313 863 408 l 708 419 b 606 239 647 408 628 421 l 604 224 l 127 224 b 937 1140 388 538 808 670 b 659 1030 854 1086 701 1030 b 652 1031 656 1030 653 1031 b 93 243 593 794 347 574 z "},"5":{"ha":926,"x_min":0,"x_max":0,"o":"m 290 1032 l 199 538 l 199 538 l 231 530 b 604 720 282 641 411 720 b 741 486 693 720 741 637 b 455 20 741 225 602 20 b 246 254 330 20 246 114 b 255 336 246 279 249 307 b 100 200 162 336 100 281 b 448 -14 100 72 239 -14 b 950 444 704 -14 950 180 b 611 753 950 646 831 753 b 269 637 458 753 344 710 l 399 996 b 484 996 429 996 459 996 l 505 996 b 844 954 585 996 722 954 b 1060 1085 929 954 1060 989 b 925 1200 1060 1154 1006 1200 b 507 1030 886 1036 773 1030 b 290 1032 476 1030 321 1031 z "},"6":{"ha":1014,"x_min":0,"x_max":0,"o":"m 770 1010 b 907 860 859 1010 907 958 b 899 777 907 836 905 808 b 1053 912 999 777 1053 824 b 776 1044 1053 998 956 1044 b 142 386 429 1044 142 809 b 536 -14 142 142 289 -14 b 1027 385 791 -14 1027 121 b 681 659 1027 557 900 659 b 389 600 567 659 467 637 b 770 1010 456 840 602 1010 z m 674 625 b 817 418 762 625 817 549 b 543 20 817 161 688 20 b 349 300 414 20 349 119 b 378 560 349 392 359 479 b 674 625 452 601 555 625 z "},"7":{"ha":909,"x_min":0,"x_max":0,"o":"m 555 11 b 972 911 586 421 742 697 b 1099 1043 1043 977 1094 990 l 869 1019 b 777 1014 836 1015 806 1014 b 373 1096 565 1014 455 1096 b 202 871 310 1096 264 1046 l 159 749 l 172 744 l 214 811 b 959 991 319 983 645 955 l 982 994 l 981 989 b 877 910 959 977 916 943 b 378 22 517 615 378 444 b 433 0 378 7 387 0 l 541 0 b 555 11 549 0 554 5 z "},"8":{"ha":1017,"x_min":0,"x_max":0,"o":"m 484 524 b 806 307 629 460 806 431 b 513 20 806 122 661 20 b 228 219 336 20 228 83 b 484 524 228 388 342 468 z m 699 1046 b 294 750 468 1046 294 941 b 444 542 294 644 359 585 b 104 230 265 482 104 407 b 506 -14 104 76 258 -14 b 1025 349 791 -14 1025 117 b 745 608 1025 503 884 561 b 1011 859 891 656 1011 718 b 699 1046 1011 979 890 1046 z m 692 1012 b 913 863 827 1012 913 966 b 691 625 913 742 817 675 b 484 784 580 663 484 700 b 692 1012 484 919 597 1012 z "},"9":{"ha":1014,"x_min":0,"x_max":0,"o":"m 677 1044 b 187 646 422 1044 187 909 b 534 372 187 473 314 372 b 825 431 647 372 747 393 b 445 20 758 191 612 20 b 307 171 355 20 307 73 b 315 254 307 195 309 222 b 161 119 215 254 161 207 b 438 -14 161 33 258 -14 b 1072 645 785 -14 1072 222 b 677 1044 1072 889 925 1044 z m 540 406 b 397 612 453 406 397 482 b 671 1010 397 870 526 1010 b 866 730 800 1010 866 912 b 836 471 866 639 855 551 b 540 406 762 430 659 406 z "},"\u0000":{"ha":0,"x_min":0,"x_max":0,"o":""},"\r":{"ha":200,"x_min":0,"x_max":0,"o":""}," ":{"ha":543,"x_min":0,"x_max":0,"o":""},"!":{"ha":481,"x_min":0,"x_max":0,"o":"m 136 71 b 241 -35 136 14 181 -35 b 346 71 298 -35 346 11 b 241 176 346 127 300 176 b 136 71 184 176 136 130 z m 374 360 l 492 807 b 572 1166 507 865 566 1093 l 404 1166 b 307 1019 333 1166 326 1149 l 221 388 b 219 372 220 380 219 373 b 302 353 219 359 257 353 l 361 353 b 374 360 364 353 373 355 z "},"\"":{"ha":342,"x_min":0,"x_max":0,"o":"m 345 1094 l 294 1094 l 252 879 l 302 879 z m 473 1094 l 423 1094 l 381 879 l 431 879 z "},"#":{"ha":800,"x_min":0,"x_max":0,"o":"m 317 366 l 264 90 l 296 83 l 351 366 l 589 366 l 535 92 l 568 85 l 623 366 l 804 366 l 817 400 l 629 400 l 675 637 l 857 637 l 869 671 l 682 671 l 734 941 l 702 947 l 648 671 l 410 671 l 463 940 l 430 946 l 376 671 l 203 671 l 191 637 l 370 637 l 324 400 l 151 400 l 138 366 z m 358 400 l 404 637 l 642 637 l 595 400 z "},"$":{"ha":877,"x_min":0,"x_max":0,"o":"m 420 -80 l 452 88 b 876 342 694 89 876 191 b 559 641 876 490 694 562 l 614 924 b 777 757 711 919 766 873 b 873 835 840 757 873 784 b 621 956 873 899 755 952 l 645 1080 l 612 1086 l 587 957 b 225 733 359 953 225 875 b 493 475 225 597 365 534 l 425 123 b 223 296 315 132 233 185 l 222 307 b 120 267 156 307 120 294 b 418 89 120 174 254 98 l 386 -74 z m 524 460 b 704 288 621 414 704 368 b 459 122 704 181 605 123 z m 529 660 b 420 803 467 701 420 745 b 581 924 420 878 484 920 z "},"%":{"ha":1160,"x_min":0,"x_max":0,"o":"m 741 540 b 1223 1010 921 718 1196 985 l 1184 1061 b 715 580 1145 1015 755 620 b 145 26 536 402 172 51 l 184 -24 b 741 540 224 22 701 500 z m 845 20 b 766 98 791 20 766 33 b 916 360 766 235 831 360 b 992 268 966 360 992 337 b 845 20 992 119 930 20 z m 920 394 b 644 148 763 394 644 309 b 841 -14 644 50 718 -14 b 1118 242 994 -14 1118 84 b 920 394 1118 341 1050 394 z m 417 671 b 338 749 363 671 338 684 b 488 1011 338 886 403 1011 b 564 919 538 1011 564 988 b 417 671 564 770 502 671 z m 492 1045 b 216 799 335 1045 216 960 b 413 637 216 701 290 637 b 690 893 566 637 690 735 b 492 1045 690 992 622 1045 z "},"&":{"ha":1296,"x_min":0,"x_max":0,"o":"m 838 85 b 559 44 756 56 665 44 b 342 258 429 44 342 130 b 521 512 342 406 418 471 b 838 85 576 344 696 183 z m 695 566 b 1031 869 865 614 1031 682 b 840 1032 1031 967 955 1032 b 488 705 629 1032 488 901 b 507 561 488 658 494 609 b 125 240 308 518 125 450 b 553 10 125 102 296 10 b 873 62 669 10 778 26 b 1116 -13 950 15 1034 -13 b 1294 104 1171 -13 1250 18 l 1308 132 l 1295 138 b 1128 50 1246 56 1194 50 b 955 101 1064 50 1006 68 b 1235 505 1089 178 1235 336 b 1142 569 1235 544 1200 569 b 1074 557 1115 569 1088 564 l 1075 486 b 923 123 1075 369 1063 211 b 695 566 799 220 718 396 z m 691 598 b 688 665 689 621 688 644 b 874 983 688 856 762 983 b 997 865 947 983 997 936 b 691 598 997 703 858 638 z "},"'":{"ha":213,"x_min":0,"x_max":0,"o":"m 345 1094 l 294 1094 l 252 879 l 302 879 z "},"(":{"ha":484,"x_min":0,"x_max":0,"o":"m 436 -132 b 309 176 360 -104 309 11 b 682 1160 309 574 484 1107 l 680 1195 b 117 329 385 1116 117 840 b 419 -162 117 58 235 -95 z "},")":{"ha":484,"x_min":0,"x_max":0,"o":"m -2 -130 l 0 -165 b 572 726 300 -84 572 233 b 269 1192 572 988 460 1122 l 252 1162 b 375 845 326 1136 375 1008 b -2 -130 375 444 196 -77 z "},"*":{"ha":538,"x_min":0,"x_max":0,"o":"m 422 850 b 425 845 422 848 423 846 l 386 808 b 298 739 334 760 324 775 b 378 680 313 688 328 682 b 418 785 405 716 387 720 l 441 832 l 445 832 l 447 832 l 470 785 b 511 680 502 720 484 716 b 591 739 561 682 576 688 b 503 808 564 775 555 760 l 465 845 b 467 850 466 846 467 848 l 515 857 b 551 859 530 859 542 859 b 598 857 572 859 585 857 b 631 861 607 857 618 857 b 639 903 635 878 639 892 b 600 958 639 924 629 937 b 506 896 557 943 568 930 l 459 871 b 455 873 458 871 456 873 l 465 926 b 494 1034 478 996 494 989 b 446 1057 474 1049 459 1057 b 395 1034 430 1057 416 1048 b 425 926 395 989 411 996 l 434 873 b 430 870 432 872 431 871 l 382 896 b 289 958 320 930 332 943 b 250 903 260 937 250 924 b 258 862 250 892 254 879 b 290 857 272 858 281 857 b 337 859 304 857 316 859 b 374 857 347 859 359 859 z "},"+":{"ha":705,"x_min":0,"x_max":0,"o":"m 473 538 b 479 810 475 707 478 781 l 480 817 l 422 816 l 423 808 b 431 539 428 755 431 604 b 174 545 264 541 203 543 l 168 545 l 161 488 l 169 488 b 430 496 221 492 366 496 b 425 244 429 332 427 273 l 425 238 l 481 238 l 481 246 b 473 496 477 298 473 431 b 732 490 639 494 703 491 l 739 489 l 745 547 l 737 546 b 473 538 686 541 540 539 z "},",":{"ha":468,"x_min":0,"x_max":0,"o":"m 122 71 b 227 -35 122 7 169 -35 b 136 -166 191 -69 152 -109 l 169 -176 b 317 16 191 -95 273 -58 b 332 71 327 32 332 51 b 227 176 332 139 296 176 b 122 71 159 176 122 139 z "},"-":{"ha":597,"x_min":0,"x_max":0,"o":"m 365 415 b 606 408 541 415 583 410 l 612 408 l 618 465 l 610 465 b 399 457 559 460 456 457 b 161 463 233 457 177 462 l 155 463 l 148 406 l 156 407 b 365 415 210 411 311 415 z "},".":{"ha":468,"x_min":0,"x_max":0,"o":"m 122 71 b 227 -35 122 14 168 -35 b 332 71 284 -35 332 11 b 227 176 332 134 290 176 b 122 71 164 176 122 134 z "},"/":{"ha":1166,"x_min":0,"x_max":0,"o":"m 743 540 b 1309 1094 919 713 1286 1074 l 1314 1098 l 1274 1149 l 1269 1143 b 717 580 1232 1099 754 616 b 57 -71 542 406 80 -51 l 52 -75 l 92 -126 l 97 -120 b 743 540 134 -76 707 503 z "},":":{"ha":468,"x_min":0,"x_max":0,"o":"m 122 71 b 227 -35 122 14 168 -35 b 332 71 284 -35 332 11 b 227 176 332 134 290 176 b 122 71 164 176 122 134 z m 220 572 b 325 467 220 515 265 467 b 430 572 382 467 430 513 b 325 677 430 635 388 677 b 220 572 262 677 220 635 z "},";":{"ha":468,"x_min":0,"x_max":0,"o":"m 220 572 b 325 467 220 515 265 467 b 430 572 382 467 430 513 b 325 677 430 635 388 677 b 220 572 262 677 220 635 z m 122 71 b 227 -35 122 14 168 -35 b 136 -166 191 -69 152 -109 l 169 -176 b 315 14 191 -96 271 -60 b 332 71 326 30 332 50 b 227 176 332 134 290 176 b 122 71 164 176 122 134 z "},"<":{"ha":619,"x_min":0,"x_max":0,"o":"m 157 532 l 151 494 l 513 96 b 569 158 546 122 569 140 b 531 211 569 172 555 186 b 195 510 496 249 214 506 l 196 515 b 648 809 218 519 598 771 b 707 871 684 836 707 851 b 673 924 707 884 694 901 z "},"=":{"ha":705,"x_min":0,"x_max":0,"o":"m 463 674 b 758 667 641 674 732 669 l 764 667 l 770 724 l 762 724 b 498 716 711 719 564 716 b 204 722 328 716 224 721 l 198 722 l 191 665 l 199 666 b 463 674 254 670 403 674 z m 431 442 b 726 435 610 442 701 437 l 733 435 l 739 492 l 731 492 b 467 484 680 487 532 484 b 173 490 296 484 193 489 l 167 490 l 160 433 l 168 434 b 431 442 222 438 371 442 z "},">":{"ha":620,"x_min":0,"x_max":0,"o":"m 669 532 l 306 924 b 250 863 272 898 250 882 b 287 809 250 848 263 833 b 623 514 321 771 604 518 l 623 511 b 170 211 602 507 220 249 b 111 150 134 183 111 170 b 145 96 111 136 124 119 l 662 494 z "},"?":{"ha":926,"x_min":0,"x_max":0,"o":"m 404 71 b 509 -35 404 14 449 -35 b 614 71 566 -35 614 11 b 509 176 614 127 568 176 b 404 71 452 176 404 130 z m 603 1141 b 802 987 722 1141 802 1079 b 254 528 802 786 254 869 b 557 338 254 414 376 338 b 892 517 758 338 892 410 b 784 619 892 581 817 619 l 783 619 b 564 372 739 394 659 372 b 426 512 489 372 426 428 b 967 970 426 744 967 632 b 610 1175 967 1093 824 1175 b 254 1029 397 1175 254 1116 b 359 927 254 966 326 927 l 363 927 b 603 1141 405 1139 507 1141 z "},"@":{"ha":1352,"x_min":0,"x_max":0,"o":"m 925 577 b 930 535 932 566 931 552 l 918 375 b 910 328 918 359 916 341 b 694 111 874 235 809 111 b 557 250 600 111 557 150 b 809 646 557 465 661 646 b 925 577 861 646 897 625 z m 949 598 b 760 680 919 650 879 680 b 370 307 551 680 370 534 b 640 68 370 161 471 68 b 912 254 796 68 868 161 b 1006 75 912 165 928 75 b 1376 511 1226 75 1376 296 b 798 1025 1376 818 1118 1025 b 148 375 440 1025 148 735 b 798 -275 148 18 437 -275 b 1244 -96 970 -275 1127 -208 l 1236 -86 b 798 -261 1120 -195 966 -261 b 168 375 445 -261 168 25 b 798 1011 168 728 448 1011 b 1356 511 1110 1011 1356 811 b 1113 144 1356 392 1251 144 b 1057 208 1082 144 1057 163 b 1088 345 1057 245 1076 302 b 1157 667 1103 397 1152 600 l 1036 667 b 949 598 1023 667 977 659 z "},"A":{"ha":1349,"x_min":0,"x_max":0,"o":"m 654 331 b 954 261 749 309 854 279 b 1501 -336 1002 -103 1209 -336 b 1771 -194 1693 -336 1771 -254 b 1648 -118 1771 -149 1722 -118 b 1474 -259 1629 -217 1570 -259 b 1097 245 1192 -259 1111 -174 b 1352 425 1226 245 1325 284 l 1332 441 b 1096 343 1308 370 1215 346 b 1095 393 1095 359 1095 376 b 1116 837 1095 535 1116 694 b 908 1244 1116 1025 1080 1187 b 910 1214 909 1235 910 1225 b 841 932 910 1114 861 951 b 871 901 852 925 863 914 b 634 381 806 799 728 576 b 484 391 580 387 529 391 b 109 116 256 391 109 304 b 296 -45 109 20 184 -45 b 654 331 433 -45 557 133 z m 614 339 b 308 16 536 191 425 16 b 159 136 218 16 159 64 b 477 357 159 287 290 357 b 614 339 517 357 564 350 z m 676 377 b 889 868 765 568 836 773 b 943 429 930 772 943 598 b 945 349 943 401 943 375 b 676 377 857 355 764 368 z "},"B":{"ha":1378,"x_min":0,"x_max":0,"o":"m 486 237 b 316 269 435 256 378 269 b 102 92 199 269 102 203 b 256 -31 102 17 161 -31 b 600 135 395 -31 517 31 b 901 -14 656 96 760 -14 b 1388 359 1120 -14 1388 109 b 1095 621 1388 502 1279 600 l 1095 622 b 1369 894 1255 663 1369 756 b 997 1111 1369 1025 1226 1111 b 418 1122 966 1111 449 1120 l 422 1080 b 526 1082 436 1081 475 1082 b 617 1027 595 1082 617 1069 b 607 947 617 1008 613 982 z m 624 168 b 701 359 661 223 687 288 l 785 739 b 864 1079 798 793 850 990 b 991 1077 927 1078 976 1077 b 1166 903 1092 1076 1166 1009 b 905 636 1166 743 1031 637 l 864 637 b 846 614 856 637 846 626 b 866 596 846 603 854 597 b 1012 591 923 594 971 591 b 1181 387 1119 591 1181 512 b 911 34 1181 168 1063 34 b 624 168 771 34 719 113 z m 477 201 b 263 3 444 81 361 3 b 137 100 185 3 137 41 b 309 235 137 185 214 235 b 477 201 378 235 431 222 z "},"C":{"ha":1199,"x_min":0,"x_max":0,"o":"m 1201 290 l 1178 311 b 639 46 1046 134 876 46 b 391 345 478 46 391 151 b 846 1090 391 792 573 1090 b 1170 777 1107 1090 1152 972 b 1309 889 1253 777 1309 821 b 852 1124 1309 1065 1013 1124 b 177 423 447 1124 177 844 b 631 -14 177 161 359 -14 b 1201 290 877 -14 1059 101 z "},"D":{"ha":1319,"x_min":0,"x_max":0,"o":"m 884 1111 b 286 1122 854 1111 317 1120 l 282 1080 b 379 1082 296 1081 331 1082 b 456 1026 437 1082 456 1068 b 447 949 456 1007 452 982 l 291 37 l 124 39 l 113 -1 b 682 -14 302 -5 606 -14 b 1371 704 1059 -14 1371 271 b 884 1111 1371 970 1204 1111 z m 465 33 l 625 739 b 704 1079 637 793 691 991 b 878 1077 790 1078 860 1077 b 1153 750 1059 1076 1153 964 b 690 26 1153 313 964 26 b 465 33 615 26 540 30 z "},"E":{"ha":1139,"x_min":0,"x_max":0,"o":"m 113 -1 l 352 -1 b 893 -79 619 -1 777 -79 b 1107 100 977 -79 1040 -39 l 1166 224 l 1154 231 l 1097 115 b 718 32 1063 45 907 32 b 479 35 642 32 560 34 l 598 562 l 931 562 l 933 610 l 606 597 l 637 732 b 709 1069 649 785 696 980 b 910 1061 774 1065 844 1061 b 1244 1212 1050 1061 1244 1088 b 1131 1309 1244 1270 1198 1309 b 523 1112 1074 1114 897 1112 b 317 1114 492 1112 349 1113 l 321 1073 b 367 1076 334 1074 351 1076 b 469 1020 445 1076 469 1067 b 459 944 469 1001 465 977 l 304 37 l 116 39 z "},"F":{"ha":890,"x_min":0,"x_max":0,"o":"m 142 127 l 126 123 b 288 -14 138 26 197 -14 b 530 320 460 -14 504 201 l 597 616 l 961 616 l 964 665 l 606 651 l 629 753 b 687 1100 642 811 681 1025 b 1248 1114 903 1104 1093 1114 b 1672 983 1487 1114 1641 1090 b 1801 1101 1750 983 1801 1030 b 1531 1236 1801 1189 1706 1236 b 506 1132 1266 1236 846 1132 b 280 1137 454 1132 339 1133 l 283 1095 b 402 1097 300 1096 352 1097 b 456 1043 442 1094 456 1080 b 446 965 456 1023 452 998 l 315 167 b 214 64 303 96 256 64 b 142 127 179 64 146 86 z "},"G":{"ha":1268,"x_min":0,"x_max":0,"o":"m 1016 348 l 1010 311 b 639 26 977 140 829 26 b 391 345 478 26 391 138 b 846 1090 391 792 573 1090 b 1170 777 1107 1090 1152 972 b 1309 889 1208 777 1309 821 b 852 1124 1309 1065 1013 1124 b 177 423 447 1124 177 844 b 631 -14 177 161 359 -14 b 993 177 789 -14 920 59 l 989 0 l 1158 0 l 1196 156 b 1279 536 1211 214 1272 462 l 1117 528 b 675 530 1117 528 753 529 l 665 485 l 912 496 b 1026 440 1001 496 1026 489 b 1016 348 1026 421 1021 382 z "},"H":{"ha":1503,"x_min":0,"x_max":0,"o":"m 958 1112 l 796 1111 l 596 1113 l 594 1099 b 709 1044 683 1099 709 1093 b 699 965 709 1025 705 1000 l 630 566 b 572 568 610 566 590 568 b 113 121 297 568 113 389 b 292 -92 113 -7 185 -92 b 822 507 625 -92 733 108 b 1231 468 945 490 1108 471 l 1165 86 b 1161 41 1162 72 1161 57 b 1549 -336 1161 -185 1316 -336 b 1818 -194 1711 -336 1818 -279 b 1695 -118 1818 -136 1731 -118 b 1510 -286 1695 -218 1607 -286 b 1305 -117 1367 -286 1305 -245 b 1320 -13 1305 -85 1312 -46 l 1433 486 b 1590 601 1508 505 1564 540 l 1550 624 b 1447 545 1536 585 1499 560 l 1493 753 b 1575 1112 1507 811 1568 1038 l 1413 1111 l 1335 1113 l 1333 1099 b 1316 965 1328 1043 1324 1015 l 1240 523 b 831 549 1122 523 958 536 l 876 753 b 958 1112 890 811 951 1038 z m 624 531 b 304 -31 581 281 564 -31 b 163 139 219 -31 163 37 b 566 534 163 376 324 534 b 624 531 583 534 603 532 z "},"I":{"ha":475,"x_min":0,"x_max":0,"o":"m 244 1113 l 242 1099 b 357 1044 331 1099 357 1093 b 347 965 357 1025 353 1000 l 185 22 b 184 14 185 20 184 15 b 277 0 184 3 232 0 l 342 0 b 356 7 347 0 355 3 l 524 753 b 606 1112 538 811 599 1038 l 444 1111 z "},"J":{"ha":572,"x_min":0,"x_max":0,"o":"m 690 1112 l 524 1111 l 323 1113 l 321 1099 b 436 1044 410 1099 436 1093 b 426 965 436 1025 432 1000 l 245 -91 b 144 -194 233 -162 186 -194 b 71 -131 109 -194 76 -172 l 60 -40 l 45 -47 l 56 -134 b 231 -271 68 -237 135 -271 b 459 62 389 -271 435 -52 l 608 753 b 690 1112 621 811 683 1038 z "},"K":{"ha":1252,"x_min":0,"x_max":0,"o":"m 281 174 b 180 71 269 102 222 71 b 108 134 144 71 113 93 l 93 128 b 254 -7 104 32 163 -7 b 496 327 425 -7 472 207 l 534 516 l 582 551 b 659 586 623 582 641 586 b 825 426 715 586 774 524 b 1474 -336 1116 -137 1299 -336 b 1744 -194 1666 -336 1744 -254 b 1621 -118 1744 -136 1656 -118 b 1447 -259 1595 -218 1543 -259 b 1143 232 1305 -259 1236 -8 b 762 661 1059 451 955 661 b 677 647 734 661 707 658 b 1195 961 832 787 1053 961 b 1253 949 1217 961 1236 957 b 1306 1063 1274 968 1306 1020 b 1216 1126 1306 1097 1284 1126 b 545 565 1041 1126 657 680 l 593 753 b 673 1112 607 812 667 1038 b 511 1109 673 1112 580 1109 b 313 1119 473 1109 391 1116 l 311 1105 b 425 1045 399 1101 425 1093 b 414 966 425 1026 420 1000 z "},"L":{"ha":1232,"x_min":0,"x_max":0,"o":"m 1268 173 l 1257 180 l 1227 121 b 1048 53 1204 73 1138 53 b 618 137 932 53 775 87 b 693 326 654 191 680 255 l 788 753 b 869 1112 802 811 863 1038 l 708 1111 l 508 1113 l 506 1099 b 621 1044 595 1099 621 1093 b 610 965 621 1025 616 1000 l 478 196 b 309 235 427 217 372 235 b 96 58 181 235 96 164 b 250 -65 96 -17 154 -65 b 594 102 389 -65 511 -3 b 1009 -75 742 24 885 -75 b 1237 107 1095 -75 1173 -27 z m 471 165 b 256 -31 437 46 354 -31 b 131 66 178 -31 131 7 b 303 201 131 147 199 201 b 471 165 372 201 424 186 z "},"M":{"ha":1580,"x_min":0,"x_max":0,"o":"m 1609 -279 b 1425 -161 1464 -279 1425 -247 b 1432 -77 1425 -138 1428 -109 l 1554 760 b 1617 1092 1561 813 1604 1000 l 1724 1141 l 1731 1233 b 1187 795 1496 1126 1326 978 b 905 282 1062 629 974 446 b 469 1210 868 625 789 1114 b 475 1112 473 1181 475 1147 b 451 939 475 1034 466 954 b 479 922 460 935 470 928 b 414 621 452 794 418 640 b 65 52 327 248 271 109 b 64 47 64 51 64 49 b 152 -5 64 20 102 -5 b 256 31 183 -5 220 5 b 448 623 388 127 397 405 l 509 895 b 769 -26 657 741 725 309 l 817 -33 b 918 166 823 -12 871 101 b 913 214 916 181 916 197 b 1208 769 984 388 1075 591 b 1371 931 1255 833 1310 884 l 1278 76 b 1276 44 1276 66 1276 55 b 1637 -336 1276 -100 1367 -336 b 1906 -194 1799 -336 1906 -279 b 1784 -118 1906 -136 1819 -118 b 1609 -279 1784 -218 1706 -279 z "},"N":{"ha":1179,"x_min":0,"x_max":0,"o":"m 443 1142 b 445 1103 445 1130 445 1116 b 393 884 445 1014 412 903 b 448 855 412 877 430 867 l 407 626 b 65 52 334 252 271 109 b 64 47 64 50 64 49 b 151 -5 64 20 101 -5 b 256 31 183 -5 220 5 b 441 629 388 127 399 411 l 479 833 b 949 -25 680 680 890 298 b 1031 -18 949 -25 1013 -18 l 1038 -18 b 1149 600 1042 14 1143 570 b 1717 1175 1235 1040 1505 1175 l 1731 1175 b 1734 1192 1733 1179 1734 1187 b 1617 1262 1734 1224 1686 1262 b 1115 597 1440 1262 1208 1093 l 1052 257 b 443 1142 976 606 808 1020 z "},"O":{"ha":1312,"x_min":0,"x_max":0,"o":"m 666 26 b 385 310 472 26 385 106 b 873 1090 385 729 581 1090 b 1148 763 1055 1090 1148 977 b 666 26 1148 315 954 26 z m 880 1124 b 177 429 478 1124 177 878 b 659 -14 177 159 357 -14 b 1367 718 1045 -14 1367 277 b 880 1124 1367 983 1200 1124 z "},"P":{"ha":1201,"x_min":0,"x_max":0,"o":"m 884 1111 b 286 1122 854 1111 317 1120 l 282 1080 b 342 1082 292 1081 313 1081 l 342 1081 l 348 1082 b 391 1082 361 1082 375 1082 l 404 1082 b 457 1029 444 1078 457 1065 b 448 951 457 1010 453 985 l 319 167 b 218 64 307 96 260 64 b 146 127 183 64 151 86 l 130 123 b 306 -14 143 21 198 -14 b 534 320 460 -14 507 206 l 631 739 b 708 1079 644 795 699 999 b 878 1077 793 1078 861 1077 b 1081 863 1010 1077 1081 1002 b 747 406 1081 593 932 406 l 591 416 l 580 376 l 740 366 b 1301 833 1044 366 1301 541 b 884 1111 1301 1014 1156 1111 z "},"Q":{"ha":1312,"x_min":0,"x_max":0,"o":"m 477 -197 l 477 -195 b 772 -129 577 -188 679 -166 b 1367 718 1103 5 1367 319 b 880 1124 1367 983 1200 1124 b 177 429 479 1124 177 877 b 659 -14 177 159 357 -14 l 666 26 b 385 310 472 26 385 106 b 873 1090 385 730 582 1090 b 1148 763 1055 1090 1148 977 b 397 -163 1148 220 791 -163 b 307 -157 367 -163 337 -161 b 178 -125 254 -144 195 -130 l 172 -175 b 389 -214 230 -184 338 -207 b 1358 -332 492 -228 972 -332 b 1807 -153 1649 -332 1807 -269 b 1684 -77 1807 -104 1764 -77 b 1138 -252 1684 -191 1510 -252 b 477 -197 890 -252 604 -222 z "},"R":{"ha":1255,"x_min":0,"x_max":0,"o":"m 1304 -259 b 968 294 1152 -259 1061 60 b 760 435 926 400 794 428 l 761 436 b 1245 859 1046 446 1245 575 b 844 1111 1245 1023 1105 1111 b 286 1122 813 1111 317 1120 l 282 1080 b 404 1082 309 1080 368 1082 b 456 1029 444 1082 456 1067 b 448 951 456 1009 453 984 l 319 167 b 218 64 307 95 260 64 b 145 127 182 64 150 86 l 130 123 b 305 -14 142 21 199 -14 b 533 320 456 -14 507 207 l 561 440 l 570 479 l 630 739 b 708 1079 643 795 699 998 b 838 1077 772 1078 822 1077 b 1031 889 964 1077 1031 1011 b 733 473 1031 624 918 473 l 620 477 b 597 455 605 478 600 467 l 595 439 b 665 399 617 438 646 433 b 1332 -336 945 -165 1131 -336 b 1601 -194 1523 -336 1601 -254 b 1478 -118 1601 -136 1514 -118 b 1304 -259 1453 -218 1400 -259 z "},"S":{"ha":1105,"x_min":0,"x_max":0,"o":"m 532 -14 b 1082 330 862 -14 1082 123 b 486 878 1082 610 486 646 b 752 1090 486 1006 593 1090 b 1006 797 953 1090 988 985 b 1144 909 1044 797 1144 842 b 759 1124 1144 1076 897 1124 b 269 757 441 1124 269 996 b 871 242 269 457 871 456 b 540 20 871 109 739 20 b 258 313 339 20 276 125 b 120 201 220 313 120 269 b 532 -14 120 31 391 -14 z "},"T":{"ha":899,"x_min":0,"x_max":0,"o":"m 433 127 l 418 123 b 579 -14 430 26 488 -14 b 821 320 751 -14 795 201 l 921 753 b 999 1099 934 810 992 1024 b 1084 1099 1044 1099 1075 1099 b 1374 1095 1159 1099 1263 1095 b 1912 1202 1584 1095 1817 1111 b 1945 1272 1935 1228 1945 1251 b 1827 1364 1945 1327 1898 1364 b 1093 1133 1733 1168 1467 1133 b 277 1143 844 1133 307 1141 l 271 1094 b 694 1099 301 1096 500 1098 b 747 1044 734 1095 747 1080 b 738 965 747 1024 743 998 l 607 167 b 506 64 595 96 548 64 b 433 127 471 64 438 86 z "},"U":{"ha":1173,"x_min":0,"x_max":0,"o":"m 243 971 l 256 965 b 329 1028 277 1006 307 1028 b 363 976 349 1028 363 1012 b 356 925 363 962 361 945 l 233 358 b 216 220 222 311 216 264 b 417 -13 216 89 270 -13 b 645 78 474 -13 570 16 l 846 243 b 843 180 844 222 843 201 b 985 -12 843 52 911 -12 b 1143 100 1042 -12 1104 25 l 1182 177 l 1170 183 l 1131 106 b 1048 42 1110 66 1076 42 b 1008 98 1025 42 1008 59 b 1013 140 1008 110 1010 124 l 1218 1089 b 1219 1090 1219 1090 1219 1090 b 1126 1111 1219 1104 1172 1111 l 1000 1111 b 987 1103 1000 1111 987 1109 l 859 358 b 850 292 856 338 852 316 l 623 104 b 491 58 594 80 524 58 b 391 167 421 58 391 102 b 406 255 391 193 396 223 l 555 775 b 578 926 569 826 578 878 b 410 1115 578 1031 535 1115 b 257 998 355 1115 299 1080 z "},"V":{"ha":1069,"x_min":0,"x_max":0,"o":"m 619 -13 b 1163 930 962 -13 1163 551 b 1098 1114 1163 994 1147 1054 b 1040 1147 1080 1137 1059 1147 b 916 1034 981 1147 924 1069 b 1086 766 1043 987 1086 883 b 688 64 1086 501 928 64 b 534 336 566 64 534 187 b 588 944 534 531 588 786 b 399 1128 588 1047 534 1128 b 246 983 333 1128 290 1069 l 259 979 b 317 1041 282 1023 302 1041 b 371 877 353 1041 371 1006 b 360 731 371 845 366 800 b 354 555 357 684 354 626 b 619 -13 354 301 398 -13 z "},"W":{"ha":1618,"x_min":0,"x_max":0,"o":"m 945 391 b 661 64 865 213 750 64 b 517 299 549 64 517 166 b 588 944 517 498 588 776 b 393 1128 588 1047 528 1128 b 239 983 326 1128 283 1069 l 252 979 b 311 1041 275 1023 295 1041 b 364 877 347 1041 364 994 b 351 713 364 856 357 794 b 343 505 347 652 343 579 b 592 -13 343 267 383 -13 b 950 323 732 -13 858 135 b 1189 -13 972 137 1035 -13 b 1531 237 1315 -13 1437 84 b 1712 930 1640 414 1712 667 b 1647 1114 1712 994 1696 1054 b 1589 1147 1629 1137 1609 1147 b 1465 1034 1531 1147 1474 1069 b 1635 766 1592 987 1635 883 b 1503 258 1635 579 1581 393 b 1258 64 1434 141 1346 64 b 1114 299 1147 64 1114 163 b 1185 944 1114 498 1185 776 b 1017 1111 1185 1031 1143 1111 l 1017 1111 l 876 1111 l 877 1095 b 965 933 949 1095 965 1012 b 960 842 965 900 962 867 b 941 505 951 745 941 625 b 945 391 941 467 942 428 z "},"X":{"ha":1047,"x_min":0,"x_max":0,"o":"m 79 133 b 60 54 68 117 60 85 b 141 -41 60 6 79 -41 b 532 368 294 -41 421 186 b 854 -13 570 161 648 -13 b 1032 104 909 -13 988 18 l 1095 229 l 1084 235 l 1034 138 b 903 53 1003 77 943 53 b 715 663 803 53 763 167 b 1350 1048 965 1017 1162 1048 b 1522 1037 1411 1048 1469 1042 b 1541 1116 1533 1053 1541 1084 b 1461 1211 1541 1178 1513 1211 b 707 718 1171 1211 945 1051 b 443 1122 673 935 612 1122 b 270 1005 389 1122 312 1086 l 255 976 l 269 972 b 345 1034 292 1017 326 1034 b 522 430 492 1034 479 715 b 199 118 362 193 284 118 b 79 133 163 118 126 126 z "},"Y":{"ha":877,"x_min":0,"x_max":0,"o":"m 661 7 l 723 264 b 788 532 734 312 771 444 b 1543 1037 1105 1026 1347 1037 b 1562 1116 1553 1053 1562 1084 b 1481 1211 1562 1164 1543 1211 b 780 581 1217 1211 1004 922 l 777 581 b 433 1122 726 840 661 1122 b 260 1005 378 1122 302 1086 l 244 975 l 257 970 l 258 972 b 334 1034 281 1017 316 1034 b 554 543 456 1034 503 791 b 541 436 551 516 546 481 l 492 33 b 490 21 492 30 490 21 b 583 0 490 7 536 0 l 647 0 b 661 7 652 0 660 3 z "},"Z":{"ha":1078,"x_min":0,"x_max":0,"o":"m 68 -16 b 327 -9 151 -14 252 -9 b 837 -92 587 -9 731 -92 b 1019 66 907 -92 960 -56 l 1094 224 l 1082 231 l 1006 74 b 801 12 982 25 906 12 b 376 28 684 12 530 28 b 302 27 351 28 326 28 l 303 31 b 404 120 327 45 366 71 l 1094 1006 b 1193 1120 1165 1082 1193 1107 b 1190 1127 1193 1123 1192 1125 l 926 1097 b 819 1090 887 1092 852 1090 b 433 1158 621 1090 513 1158 b 259 939 366 1158 319 1111 l 216 817 l 229 812 l 270 879 b 882 1051 376 1050 568 1007 l 880 1046 b 786 956 857 1032 825 1002 l 155 106 b 68 -16 78 3 72 3 z "},"[":{"ha":484,"x_min":0,"x_max":0,"o":"m 296 -9 l 523 1040 b 680 1174 549 1160 555 1174 l 687 1208 l 487 1206 l 326 1207 b 262 827 303 1133 273 886 l 96 -163 b 96 -163 96 -163 96 -163 b 105 -177 96 -169 98 -177 l 190 -176 l 422 -178 l 428 -144 b 284 -86 317 -144 284 -136 b 296 -9 284 -67 289 -42 z "},"\\":{"ha":1440,"x_min":0,"x_max":0,"o":"m 764 540 b 1283 -120 794 503 1254 -76 l 1287 -126 l 1337 -75 l 1333 -71 b 800 580 1314 -51 940 406 b 357 1143 769 616 385 1099 l 353 1149 l 303 1098 l 307 1094 b 764 540 326 1074 623 713 z "},"]":{"ha":484,"x_min":0,"x_max":0,"o":"m 184 -9 b 0 -144 163 -130 151 -144 l -7 -178 l 226 -176 l 309 -177 b 324 -163 315 -177 323 -168 l 543 827 b 627 1207 555 886 621 1133 l 466 1206 l 266 1208 l 260 1174 b 375 1119 349 1174 375 1167 b 365 1040 375 1099 371 1074 z "},"^":{"ha":726,"x_min":0,"x_max":0,"o":"m 544 1101 l 506 1101 l 258 824 b 312 783 283 796 298 783 b 369 831 328 783 342 800 b 524 1063 407 873 519 1043 l 526 1063 b 675 831 530 1043 637 873 b 733 783 703 800 718 783 b 787 824 747 783 762 796 z "},"_":{"ha":543,"x_min":0,"x_max":0,"o":"m -54 -244 l -60 -278 l 495 -278 l 502 -244 z "},"`":{"ha":376,"x_min":0,"x_max":0,"o":"m 315 1106 l 267 1065 b 260 1052 261 1061 260 1057 b 265 1041 260 1048 262 1045 l 281 1021 l 474 869 l 493 885 l 341 1105 b 328 1112 337 1109 333 1112 b 315 1106 323 1112 319 1109 z "},"a":{"ha":1065,"x_min":0,"x_max":0,"o":"m 855 651 b 756 572 840 651 787 643 b 547 665 722 633 654 665 b 114 251 288 665 114 499 b 415 -14 114 92 235 -14 b 718 193 588 -14 668 89 b 876 -14 718 60 794 -14 b 1034 100 934 -14 995 23 l 1094 218 l 1082 224 l 1036 134 b 940 70 1015 93 975 70 b 878 142 906 70 878 92 b 881 174 878 151 879 162 l 912 293 b 989 651 928 351 983 577 z m 735 551 b 739 532 738 547 739 540 b 736 505 739 522 737 511 l 724 327 b 714 269 724 318 720 283 b 475 33 674 165 602 33 b 323 188 376 33 323 87 b 602 629 323 452 435 629 b 735 551 649 629 707 606 z "},"b":{"ha":957,"x_min":0,"x_max":0,"o":"m 247 7 l 312 119 b 539 -14 337 32 412 -14 b 975 401 800 -14 975 153 b 673 665 975 562 861 665 b 410 528 539 665 461 604 l 475 802 b 498 937 484 850 498 898 b 364 1031 498 993 470 1031 l 258 1031 l 256 1017 b 279 988 271 1017 279 1017 b 267 884 279 969 275 937 l 117 22 b 117 20 117 21 117 21 b 209 0 117 7 163 0 l 233 0 b 247 7 237 0 244 3 z m 376 387 b 613 619 417 489 490 619 b 765 464 705 619 765 557 b 484 22 765 178 666 22 b 329 184 419 22 329 65 z "},"c":{"ha":840,"x_min":0,"x_max":0,"o":"m 568 631 b 734 480 678 631 734 597 b 723 375 734 451 730 416 b 743 373 728 374 735 373 b 884 476 793 373 884 401 b 574 665 884 599 734 665 b 115 256 313 665 115 524 b 442 -14 115 92 239 -14 b 799 133 589 -14 716 41 l 774 155 b 504 33 720 90 604 33 b 324 198 379 33 324 79 b 568 631 324 414 439 630 z "},"d":{"ha":1072,"x_min":0,"x_max":0,"o":"m 816 1031 l 814 1017 l 814 1017 b 837 989 828 1017 837 1017 b 824 884 837 969 833 937 l 767 545 b 547 665 739 623 668 665 b 114 251 316 665 114 504 b 415 -14 114 90 227 -14 b 719 197 590 -14 670 92 b 881 -13 719 62 795 -13 b 1041 100 940 -13 1002 23 l 1101 218 l 1089 224 l 1042 134 b 947 70 1021 93 981 70 b 884 142 913 70 884 92 b 888 174 884 151 885 162 l 1032 802 b 1057 936 1043 850 1057 897 b 922 1031 1057 991 1028 1031 z m 754 467 l 730 327 b 715 275 728 307 721 290 b 475 33 675 171 602 33 b 323 188 370 33 323 77 b 602 629 323 427 437 629 b 754 467 667 629 754 585 z "},"e":{"ha":837,"x_min":0,"x_max":0,"o":"m 325 220 b 869 497 615 222 869 315 b 574 665 869 607 767 665 b 115 256 313 665 115 524 b 442 -14 115 92 239 -14 b 799 133 589 -14 716 41 l 774 155 b 504 33 720 90 604 33 b 324 198 379 33 324 79 b 325 220 324 205 324 212 z m 327 254 b 568 631 344 450 448 631 b 681 515 642 631 681 591 b 327 254 681 330 545 254 z "},"f":{"ha":569,"x_min":0,"x_max":0,"o":"m 264 704 l 256 651 l 165 651 l 165 616 l 250 616 l 120 -132 b 85 -260 106 -203 94 -260 l 82 -278 l 256 -278 b 326 -49 272 -278 276 -278 l 467 616 l 635 616 l 645 651 l 475 651 l 526 894 b 650 1004 539 961 583 1004 b 794 863 743 1004 794 955 b 790 821 794 849 793 836 b 929 915 880 821 929 854 b 686 1038 929 989 831 1038 b 264 704 412 1037 303 924 z "},"g":{"ha":823,"x_min":0,"x_max":0,"o":"m 418 251 b 304 358 339 251 304 281 b 492 631 304 512 379 631 b 605 508 567 631 605 589 b 418 251 605 345 533 251 z m 383 -244 b 142 -143 239 -244 142 -203 b 153 -98 142 -129 146 -114 b 126 -93 147 -95 138 -93 b 54 -159 96 -93 54 -107 l 54 -160 b 377 -278 54 -231 183 -278 b 783 -14 608 -278 783 -208 b 607 153 783 115 693 153 b 256 89 494 153 346 89 b 183 153 212 89 183 104 b 248 227 183 171 202 205 l 273 238 b 412 217 311 224 359 217 b 772 490 612 217 772 316 b 697 624 772 549 747 595 b 751 635 716 631 734 635 b 836 551 802 635 831 602 b 911 618 854 551 911 577 b 833 677 911 654 886 677 b 678 634 788 677 731 659 b 499 665 634 654 574 665 b 140 402 292 665 140 579 b 234 255 140 338 174 287 l 210 244 b 92 66 127 205 92 119 b 291 -65 92 -33 179 -65 b 604 -43 396 -65 520 -43 b 700 -89 662 -43 700 -54 b 383 -244 700 -184 545 -244 z "},"h":{"ha":989,"x_min":0,"x_max":0,"o":"m 258 1031 l 256 1017 b 279 988 271 1017 279 1017 b 267 884 279 969 275 937 l 118 30 b 117 20 118 29 117 21 b 209 0 117 7 163 0 l 274 0 b 288 7 278 0 287 3 l 381 404 l 555 547 b 652 595 585 572 623 595 b 692 533 675 595 692 579 b 666 396 692 503 685 458 l 644 323 b 623 193 630 277 623 233 b 782 -17 623 68 687 -17 b 954 100 837 -17 909 14 l 1017 224 l 1005 231 l 955 134 b 840 48 926 78 878 48 b 787 106 810 48 787 67 b 804 174 787 124 792 146 l 854 293 b 896 477 883 363 896 425 b 737 661 896 593 830 661 b 533 573 677 661 606 633 l 394 458 l 475 802 b 498 937 484 850 498 898 b 364 1031 498 993 470 1031 z "},"i":{"ha":550,"x_min":0,"x_max":0,"o":"m 293 1007 b 398 902 293 950 338 902 b 503 1007 454 902 503 947 b 398 1112 503 1064 457 1112 b 293 1007 341 1112 293 1067 z m 577 218 l 566 224 l 519 134 b 424 71 498 93 458 71 b 365 134 392 71 365 91 b 371 174 365 146 367 159 l 404 293 b 485 651 420 351 478 577 l 323 651 b 137 548 249 651 182 635 l 98 471 l 110 465 l 149 542 b 211 608 170 583 195 608 b 231 564 223 608 231 595 b 226 511 231 550 229 532 l 193 327 b 170 153 184 279 170 214 b 336 -8 170 46 250 -8 b 517 100 407 -8 480 28 z "},"j":{"ha":450,"x_min":0,"x_max":0,"o":"m 321 1007 b 427 902 321 950 367 902 b 532 1007 483 902 532 947 b 427 1112 532 1064 486 1112 b 321 1007 370 1112 321 1067 z m 492 651 l 332 651 b 145 548 257 651 190 635 l 132 523 l 144 515 l 157 542 b 219 608 178 583 202 608 b 239 564 231 608 239 595 b 234 511 239 550 237 532 l 137 -103 b 38 -206 126 -174 79 -206 b -35 -143 2 -206 -30 -184 l -68 -154 b 118 -285 -52 -259 17 -285 b 353 50 271 -285 326 -63 l 412 293 b 492 651 426 351 486 577 z "},"k":{"ha":910,"x_min":0,"x_max":0,"o":"m 597 108 b 1086 -322 816 -207 938 -322 b 1330 -194 1232 -322 1330 -271 b 1207 -118 1330 -144 1287 -118 b 1065 -266 1207 -207 1151 -266 b 756 110 938 -266 852 -81 l 557 504 b 709 551 608 536 658 551 b 899 496 768 551 843 522 b 937 606 914 515 937 564 b 850 682 937 656 899 682 b 530 536 744 682 628 618 b 371 362 467 482 412 420 l 475 802 b 498 937 484 850 498 898 b 364 1031 498 993 471 1031 l 258 1031 l 256 1017 l 257 1017 b 279 988 271 1017 279 1017 b 267 884 279 969 276 937 l 117 22 b 116 15 117 20 116 16 b 209 0 116 4 163 0 l 274 0 b 288 7 279 0 286 2 l 351 277 b 415 370 372 312 393 342 z "},"l":{"ha":494,"x_min":0,"x_max":0,"o":"m 344 1031 l 238 1032 l 237 1019 b 259 989 250 1019 259 1019 b 246 884 259 969 255 937 l 152 327 b 134 161 144 281 134 220 b 290 -10 134 47 209 -10 b 463 100 356 -10 426 27 l 523 218 l 511 224 l 465 134 b 360 71 447 99 399 71 b 302 139 328 71 302 90 b 307 174 302 149 304 161 l 425 672 b 505 1032 438 730 498 958 z "},"m":{"ha":1423,"x_min":0,"x_max":0,"o":"m 337 658 b 151 551 262 658 195 638 l 111 474 l 123 468 l 163 545 b 224 609 183 585 207 609 b 244 563 236 609 244 595 b 239 511 244 549 243 532 l 157 22 b 157 20 157 21 157 21 b 250 0 157 7 204 0 l 335 0 b 349 7 339 0 348 3 l 418 293 b 456 460 428 336 447 399 l 562 547 b 644 598 593 572 623 598 b 673 529 662 598 673 580 b 659 396 673 498 669 455 l 597 18 b 597 17 597 18 597 18 b 690 -3 597 3 644 -3 l 775 -3 b 789 4 779 -3 788 -1 l 860 293 b 869 337 863 308 867 323 b 882 459 878 381 882 423 l 989 547 b 1085 600 1019 572 1057 600 b 1124 538 1114 600 1124 573 b 1100 396 1124 494 1108 434 l 1084 323 b 1066 178 1073 274 1066 224 b 1235 -16 1066 70 1106 -16 b 1388 100 1289 -16 1346 19 l 1451 224 l 1439 231 l 1389 134 b 1303 71 1368 93 1333 71 b 1257 127 1278 71 1257 89 b 1265 174 1257 140 1259 155 l 1301 293 b 1342 504 1322 361 1342 438 b 1179 667 1342 595 1304 667 b 967 573 1120 667 1042 634 l 880 501 b 739 664 869 608 817 664 b 540 573 683 664 615 635 l 460 507 b 460 522 460 512 460 517 b 337 658 460 597 433 658 z "},"n":{"ha":1050,"x_min":0,"x_max":0,"o":"m 337 658 b 151 551 262 658 195 638 l 111 474 l 123 468 l 163 545 b 224 609 183 585 207 609 b 245 563 236 609 245 595 b 239 511 245 549 243 532 l 159 30 b 157 20 159 29 157 21 b 250 0 157 7 204 0 l 332 0 b 345 7 336 0 345 3 l 418 293 b 447 408 425 324 437 365 l 616 547 b 711 597 646 572 684 597 b 750 536 741 597 750 571 b 727 396 750 492 735 434 l 711 323 b 693 178 700 274 693 224 b 862 -16 693 70 733 -16 b 1015 100 916 -16 973 19 l 1078 224 l 1066 231 l 1016 134 b 930 71 995 93 960 71 b 884 127 905 71 884 89 b 892 174 884 140 886 155 l 928 293 b 968 503 949 361 968 437 b 806 665 968 594 931 665 b 594 573 747 665 669 634 l 456 460 b 461 521 459 481 461 501 b 337 658 461 597 433 658 z "},"o":{"ha":891,"x_min":0,"x_max":0,"o":"m 449 20 b 317 172 359 20 317 64 b 568 631 317 401 425 631 b 695 455 651 631 695 570 b 449 20 695 206 591 20 z m 574 665 b 115 256 313 665 115 524 b 442 -14 115 92 238 -14 b 904 412 697 -14 904 149 b 574 665 904 577 791 665 z "},"p":{"ha":1040,"x_min":0,"x_max":0,"o":"m 380 113 l 395 178 l 427 317 b 438 373 431 334 435 353 b 677 612 479 476 551 612 b 829 456 769 612 829 549 b 550 22 829 196 718 22 b 418 96 491 22 445 54 l 409 57 b 605 -14 447 10 512 -14 b 1040 393 865 -14 1040 145 b 737 658 1040 555 925 658 b 448 477 578 658 498 571 b 315 651 447 567 418 651 b 148 544 240 651 193 631 l 120 490 l 132 482 l 146 511 b 218 593 166 549 198 593 b 239 538 231 593 239 578 b 233 471 239 527 236 486 l 146 -49 b 117 -250 127 -163 117 -221 b 134 -278 117 -273 123 -278 l 294 -278 b 323 -132 302 -227 308 -196 z "},"q":{"ha":996,"x_min":0,"x_max":0,"o":"m 602 629 b 753 489 663 629 743 591 b 741 422 749 467 745 445 l 722 295 b 475 33 683 184 608 33 b 323 188 370 33 323 77 b 602 629 323 427 437 629 z m 547 665 b 114 251 316 665 114 504 b 415 -14 114 90 227 -14 b 702 162 571 -14 651 70 l 636 -271 b 647 -278 635 -276 641 -278 l 716 -278 b 817 -256 763 -278 814 -271 l 981 505 b 1043 637 1010 637 1020 637 l 1046 651 l 941 651 b 767 547 828 651 787 608 b 547 665 739 625 668 665 z "},"r":{"ha":806,"x_min":0,"x_max":0,"o":"m 337 658 b 151 551 262 658 195 638 l 111 474 l 123 468 l 163 545 b 224 609 183 585 207 609 b 244 563 236 609 244 595 b 239 511 244 549 243 532 l 157 22 b 157 15 157 19 157 16 b 243 -1 157 3 197 -1 l 331 0 b 345 7 331 0 345 3 l 418 293 b 662 627 463 471 575 627 b 761 492 717 627 753 580 b 783 488 768 489 774 488 b 897 599 832 488 897 534 b 760 714 897 668 842 714 b 460 491 655 714 521 612 b 461 521 460 503 461 510 b 337 658 461 597 433 658 z "},"s":{"ha":785,"x_min":0,"x_max":0,"o":"m 397 -14 b 782 199 601 -14 782 63 b 561 401 782 302 669 349 b 374 524 471 446 374 463 b 524 632 374 603 448 631 b 690 465 631 632 679 588 b 786 543 748 465 786 496 b 774 577 786 553 783 566 b 530 665 719 655 628 665 b 179 454 327 665 179 598 b 380 273 179 363 275 306 b 610 145 491 238 610 209 b 404 20 610 66 511 20 b 191 200 279 20 201 79 l 190 205 b 87 124 123 205 87 177 b 100 89 87 113 91 101 b 397 -14 159 4 284 -14 z "},"t":{"ha":596,"x_min":0,"x_max":0,"o":"m 264 616 l 219 327 b 200 158 212 281 200 217 b 374 -10 200 46 284 -10 b 558 100 445 -10 520 26 l 618 218 l 606 224 l 559 134 b 442 70 541 98 488 70 b 370 144 404 70 370 91 b 374 174 370 153 372 163 l 471 616 l 679 616 l 679 651 l 479 651 l 536 909 b 537 913 536 910 537 913 b 522 917 537 916 530 917 l 444 917 b 287 766 381 917 300 850 l 269 651 l 132 651 l 132 616 z "},"u":{"ha":1007,"x_min":0,"x_max":0,"o":"m 297 667 b 158 551 243 667 199 632 l 95 427 l 106 420 l 157 517 b 229 581 178 558 206 581 b 261 530 248 581 261 565 b 254 477 261 515 259 498 l 224 358 b 199 181 210 300 199 237 b 351 -13 199 73 237 -13 b 551 78 407 -13 477 16 l 696 197 b 838 -12 696 52 756 -12 b 995 100 895 -12 957 26 l 1034 177 l 1022 183 l 983 106 b 901 42 962 66 928 42 b 861 101 879 42 861 60 b 865 140 861 113 863 125 l 975 629 l 975 631 b 882 651 975 644 928 651 l 770 651 b 756 644 764 651 757 649 l 711 358 b 699 243 707 326 701 286 l 530 104 b 425 58 500 80 457 58 b 378 128 389 58 378 89 b 404 255 378 169 391 219 l 430 328 b 463 490 451 382 463 439 b 297 667 463 589 418 667 z "},"v":{"ha":830,"x_min":0,"x_max":0,"o":"m 138 551 l 106 490 l 118 482 l 136 517 b 190 579 159 562 176 579 b 233 380 226 579 233 494 b 477 -13 233 130 332 -13 b 854 505 692 -13 854 298 b 742 675 854 607 810 675 b 625 568 680 675 642 593 b 770 361 693 539 770 460 b 543 51 770 216 631 51 b 424 197 448 51 424 113 b 451 483 424 285 451 396 b 276 667 451 586 411 667 b 138 551 222 667 179 632 z "},"w":{"ha":1223,"x_min":0,"x_max":0,"o":"m 106 490 l 118 482 l 136 517 b 191 579 159 562 177 579 b 233 380 227 579 233 452 b 450 -13 233 130 305 -13 b 699 144 545 -13 631 53 b 884 -13 728 43 784 -13 b 1246 503 1080 -13 1246 287 b 1135 715 1246 642 1208 715 b 1019 609 1074 715 1036 633 b 1164 360 1099 578 1164 495 b 952 51 1164 229 1036 51 b 839 175 864 51 839 102 b 880 498 839 269 880 398 b 711 651 880 586 836 651 l 583 651 l 584 635 b 669 467 659 635 669 547 b 687 197 669 361 673 270 b 517 51 640 115 567 51 b 418 196 422 51 418 112 b 452 483 418 282 452 391 b 277 667 452 586 412 667 b 138 551 222 667 179 632 z "},"x":{"ha":880,"x_min":0,"x_max":0,"o":"m 715 53 b 587 384 574 53 594 222 b 782 539 671 500 726 539 b 892 505 817 539 850 525 b 911 578 902 523 911 551 b 807 664 911 634 873 664 b 583 437 706 664 644 559 b 357 667 570 561 526 667 b 184 551 303 667 226 632 l 121 427 l 133 420 l 183 517 b 259 579 206 562 241 579 b 387 233 348 579 342 396 b 172 71 298 143 240 71 b 68 106 138 71 106 85 b 34 12 52 83 34 45 b 123 -54 34 -36 68 -54 b 399 195 231 -54 318 82 b 667 -13 437 81 509 -13 b 845 104 722 -13 801 18 l 908 229 l 897 235 l 846 138 b 715 53 816 77 756 53 z "},"y":{"ha":873,"x_min":0,"x_max":0,"o":"m 138 551 l 106 490 l 118 482 l 136 517 b 191 581 159 563 177 581 b 233 387 227 581 233 509 b 533 -108 233 98 427 -64 b 307 -231 464 -178 385 -231 b 154 19 165 -231 154 -131 b 21 -90 74 19 21 -24 b 297 -278 21 -203 132 -278 b 648 -45 418 -278 543 -178 b 903 536 795 142 903 396 b 783 675 903 619 855 675 b 666 568 715 675 683 593 b 805 383 725 543 805 471 b 621 -7 805 283 726 130 b 446 379 490 45 446 212 b 452 504 446 421 452 461 b 276 667 452 602 381 667 b 138 551 222 667 179 632 z "},"z":{"ha":838,"x_min":0,"x_max":0,"o":"m 41 0 b 287 4 123 1 205 4 b 657 -71 508 4 594 -71 b 779 66 699 -71 729 -39 l 856 232 l 844 239 l 778 98 b 631 33 751 41 711 33 b 349 41 566 33 475 41 b 296 41 332 41 315 41 l 274 41 l 275 45 b 377 133 299 59 334 87 l 759 530 b 861 650 831 606 861 635 b 859 657 861 653 860 655 b 545 644 754 652 651 644 b 279 675 406 644 334 675 b 109 468 213 675 180 637 l 121 462 b 383 587 215 594 251 575 l 568 604 l 566 600 b 471 511 543 586 511 555 l 127 121 b 41 0 42 24 44 18 z "},"{":{"ha":511,"x_min":0,"x_max":0,"o":"m 488 752 l 515 878 b 707 1175 565 1109 583 1175 l 714 1208 l 541 1206 b 302 821 389 1206 317 1012 l 290 674 b 130 529 281 564 220 529 l 125 502 b 245 419 196 502 245 490 b 239 374 245 406 243 391 l 210 231 b 174 -26 189 127 174 40 b 292 -176 174 -123 205 -176 l 449 -178 l 455 -144 b 326 -47 359 -144 326 -121 b 355 140 326 -4 338 56 l 381 255 b 406 424 393 311 406 374 b 355 509 406 473 393 509 l 357 522 b 488 752 436 522 465 642 z "},"|":{"ha":517,"x_min":0,"x_max":0,"o":"m 368 1331 l 368 -277 l 435 -277 l 435 1331 z "},"}":{"ha":511,"x_min":0,"x_max":0,"o":"m 315 752 b 298 614 306 705 298 655 b 357 522 298 561 312 522 l 354 509 b 229 255 275 509 247 366 l 210 140 b 0 -144 170 -85 151 -144 l -7 -178 l 151 -176 b 390 231 296 -176 343 -26 l 416 374 b 581 502 437 484 497 502 l 587 529 b 471 612 516 529 471 551 b 482 674 471 629 475 650 l 528 821 b 566 1036 551 897 566 972 b 439 1206 566 1135 531 1206 l 266 1208 l 260 1175 b 363 1078 336 1175 363 1150 b 337 878 363 1032 353 967 z "},"~":{"ha":651,"x_min":0,"x_max":0,"o":"m 190 407 l 195 412 b 306 473 233 458 269 473 b 545 401 381 473 453 401 b 696 494 593 401 642 429 l 701 498 l 658 536 l 653 530 b 543 469 615 486 579 469 b 304 542 467 469 395 542 b 151 449 256 542 205 514 l 147 444 z "}," ":{"ha":543,"x_min":0,"x_max":0,"o":""},"¡":{"ha":481,"x_min":0,"x_max":0,"o":"m 492 819 b 387 924 492 876 447 924 b 282 819 330 924 282 879 b 387 714 282 762 328 714 b 492 819 444 714 492 760 z m 254 530 l 136 83 b 56 -277 121 25 62 -203 l 224 -277 b 321 -130 295 -277 302 -259 l 407 502 b 409 518 408 510 409 517 b 326 537 409 530 371 537 l 267 537 b 254 530 264 537 255 534 z "},"¢":{"ha":863,"x_min":0,"x_max":0,"o":"m 460 -80 l 513 191 b 842 336 648 197 764 250 l 817 359 b 547 236 762 293 646 236 b 522 237 538 236 530 237 l 638 833 b 777 684 730 828 777 791 b 766 578 777 654 772 620 b 786 576 771 577 778 576 b 926 680 836 576 926 605 b 644 867 926 795 793 860 l 686 1080 l 652 1086 l 610 868 b 157 459 352 865 157 726 b 478 190 157 297 279 193 l 427 -74 z m 488 241 b 367 401 405 254 367 304 b 604 834 367 614 478 825 z "},"£":{"ha":1264,"x_min":0,"x_max":0,"o":"m 1268 173 l 1257 180 l 1227 121 b 1048 53 1204 73 1138 53 b 618 137 932 53 775 87 b 693 326 654 191 680 255 l 732 503 b 983 496 884 501 955 498 l 989 496 l 996 553 l 987 553 b 742 546 943 549 819 547 l 788 753 b 869 1112 802 811 863 1038 l 708 1111 l 508 1113 l 506 1099 b 621 1044 595 1099 621 1093 b 610 965 621 1025 616 1000 l 538 547 b 402 551 461 549 422 550 l 396 551 l 389 494 l 397 495 b 530 500 424 497 477 499 l 478 196 b 309 235 427 217 372 235 b 96 58 193 235 96 169 b 250 -65 96 -17 154 -65 b 594 102 389 -65 511 -3 b 1009 -75 742 24 885 -75 b 1237 107 1095 -75 1173 -27 z m 471 165 b 256 -31 437 46 354 -31 b 131 66 178 -31 131 7 b 303 201 131 151 208 201 b 471 165 372 201 424 186 z "},"¤":{"ha":581,"x_min":0,"x_max":0,"o":"m 293 645 l 233 707 l 205 682 l 268 621 b 230 516 241 591 230 557 b 265 415 230 477 241 444 l 203 359 l 233 331 l 292 390 b 391 355 321 368 353 355 b 496 394 431 355 465 368 l 550 337 l 578 362 l 519 419 b 552 516 541 447 552 479 b 518 616 552 554 541 587 l 579 676 l 554 704 l 493 641 b 391 678 464 665 430 678 b 293 645 354 678 321 666 z m 264 516 b 391 644 264 587 321 644 b 518 516 461 644 518 587 b 391 389 518 446 461 389 b 264 516 321 389 264 446 z "},"¥":{"ha":1206,"x_min":0,"x_max":0,"o":"m 661 7 l 724 264 b 782 502 734 307 764 416 b 969 496 891 500 945 498 l 976 496 l 982 553 l 974 553 b 798 547 941 550 867 548 b 1213 983 1030 914 1109 983 b 1326 969 1246 983 1282 975 b 1345 1048 1336 985 1345 1017 b 1264 1143 1345 1096 1326 1143 b 779 581 1086 1143 907 804 l 777 581 b 433 1122 726 840 661 1122 b 260 1005 378 1122 302 1086 l 244 975 l 258 970 l 258 972 b 335 1034 281 1017 316 1034 b 554 547 456 1034 503 793 b 389 551 457 548 411 550 l 382 551 l 376 494 l 384 495 b 549 501 416 498 485 500 l 541 436 l 490 22 b 490 16 490 21 490 16 b 583 0 490 7 522 0 l 648 0 b 661 7 652 0 660 3 z "},"¦":{"ha":435,"x_min":0,"x_max":0,"o":"m 286 1331 l 286 651 l 354 651 l 354 1331 z m 286 448 l 286 -277 l 354 -277 l 354 448 z "},"§":{"ha":962,"x_min":0,"x_max":0,"o":"m 639 321 b 376 568 517 412 376 490 b 530 707 376 638 443 695 b 806 458 656 615 806 536 b 639 321 806 389 726 334 z m 488 737 b 185 521 326 715 185 635 b 633 20 185 323 633 157 b 464 -87 633 -59 541 -86 b 298 81 357 -87 309 -43 b 201 3 240 81 201 50 b 213 -32 201 -8 204 -20 b 457 -119 269 -110 359 -119 b 808 91 661 -119 808 -53 b 678 290 808 165 751 231 b 977 507 839 313 977 393 b 548 1006 977 704 548 869 b 697 1114 548 1084 621 1113 b 864 946 804 1114 852 1069 b 960 1024 922 946 960 977 b 948 1059 960 1035 957 1047 b 704 1146 892 1137 802 1146 b 353 937 501 1146 353 1080 b 488 737 353 863 412 797 z "},"¨":{"ha":692,"x_min":0,"x_max":0,"o":"m 298 1007 b 382 922 298 962 334 922 b 467 1007 427 922 467 958 b 382 1092 467 1058 433 1092 b 298 1007 332 1092 298 1058 z m 616 1007 b 701 922 616 962 652 922 b 786 1007 746 922 786 958 b 701 1092 786 1058 752 1092 b 616 1007 650 1092 616 1058 z "},"©":{"ha":967,"x_min":0,"x_max":0,"o":"m 562 819 b 145 402 332 819 145 631 b 562 -14 145 172 332 -14 b 978 402 793 -14 978 175 b 562 819 978 634 789 819 z m 562 805 b 964 402 782 805 964 627 b 562 -1 964 182 786 -1 b 159 402 340 -1 159 180 b 562 805 159 624 339 805 z m 614 627 b 309 354 440 627 309 533 b 527 175 309 245 391 175 b 764 273 625 175 709 212 l 747 288 b 568 206 711 244 634 206 b 448 316 485 206 448 237 b 610 604 448 460 525 604 b 721 504 684 604 721 582 b 713 434 721 484 718 461 b 727 433 718 433 722 433 b 821 501 760 433 821 452 b 614 627 821 583 721 627 z "},"ª":{"ha":800,"x_min":0,"x_max":0,"o":"m 736 1036 b 666 987 726 1036 691 1033 b 520 1049 640 1024 593 1049 b 210 749 338 1049 210 929 b 428 553 210 636 296 553 b 634 683 537 553 596 614 b 751 557 643 606 691 557 b 867 640 792 557 838 582 l 879 663 l 854 676 b 795 629 842 651 820 629 b 758 672 777 629 758 639 b 782 777 758 707 775 743 b 836 1028 791 816 831 972 b 836 1029 836 1029 836 1029 b 829 1036 836 1031 835 1036 z m 646 952 b 646 942 646 951 646 950 b 646 924 646 938 646 931 l 637 806 b 630 767 636 802 635 779 b 469 606 603 697 555 606 b 370 705 405 606 370 635 b 558 1003 370 886 445 1003 b 646 952 587 1003 625 990 z "},"«":{"ha":766,"x_min":0,"x_max":0,"o":"m 419 376 l 412 338 l 671 83 b 717 134 705 109 717 115 b 680 187 717 149 703 163 b 452 355 645 225 472 351 l 453 358 b 744 521 474 362 694 483 b 804 581 780 547 804 563 b 759 632 804 594 781 608 z m 141 376 l 134 338 l 393 83 b 439 134 427 109 439 115 b 401 187 439 149 425 163 b 174 355 367 225 194 351 l 175 358 b 466 521 196 362 416 483 b 526 581 503 548 526 563 b 481 632 526 595 501 610 z "},"¬":{"ha":734,"x_min":0,"x_max":0,"o":"m 149 416 l 700 416 l 639 100 l 673 100 l 741 450 l 155 450 z "},"­":{"ha":597,"x_min":0,"x_max":0,"o":"m 365 415 b 606 408 541 415 583 410 l 612 408 l 618 465 l 610 465 b 399 457 559 460 456 457 b 161 463 233 457 177 462 l 155 463 l 148 406 l 156 407 b 365 415 210 411 311 415 z "},"®":{"ha":995,"x_min":0,"x_max":0,"o":"m 538 357 b 836 32 661 111 744 32 b 958 98 918 32 958 67 b 900 134 958 126 917 134 l 897 134 l 897 132 b 823 73 886 90 865 73 b 678 314 760 73 720 208 b 604 373 665 349 630 365 b 800 562 718 382 800 440 b 620 676 800 636 737 676 b 374 682 608 676 389 680 l 371 682 l 368 656 l 372 656 b 427 656 384 656 408 656 b 446 637 441 656 446 653 b 442 604 446 629 445 619 l 385 257 b 344 214 380 228 361 214 b 315 239 331 214 317 222 l 315 243 l 301 240 l 302 237 b 382 174 307 191 334 174 b 486 323 452 174 475 273 l 529 509 b 563 655 534 532 557 615 b 617 654 588 655 610 654 b 699 575 670 654 699 629 b 571 395 699 460 651 395 l 532 397 b 518 385 524 397 519 392 l 517 374 l 520 373 b 538 357 526 373 530 372 z m 730 22 l 721 33 b 562 -1 672 12 618 -1 b 159 402 340 -1 159 180 b 562 805 159 624 339 805 b 964 402 782 805 964 627 b 896 178 964 319 939 242 l 907 170 b 978 402 952 237 978 317 b 562 819 978 634 789 819 b 146 402 332 819 146 631 b 562 -14 146 172 332 -14 b 730 22 622 -14 679 -1 z "},"¯":{"ha":629,"x_min":0,"x_max":0,"o":"m 493 968 b 707 961 646 968 686 962 l 713 960 l 720 1018 l 711 1017 b 527 1010 659 1013 580 1010 b 305 1016 376 1010 324 1015 l 299 1016 l 292 959 l 300 960 b 493 968 353 964 439 968 z "},"°":{"ha":311,"x_min":0,"x_max":0,"o":"m 333 1060 b 407 987 376 1060 407 1020 b 333 913 407 943 366 913 b 260 987 290 913 260 955 b 333 1060 260 1030 301 1060 z m 333 1094 b 226 987 284 1094 226 1053 b 333 879 226 938 268 879 b 441 987 382 879 441 921 b 333 1094 441 1037 397 1094 z "},"±":{"ha":726,"x_min":0,"x_max":0,"o":"m 406 49 b 646 42 582 49 623 43 l 653 41 l 659 99 l 651 98 b 439 91 600 94 497 91 b 201 97 273 91 218 96 l 195 97 l 189 40 l 197 41 b 406 49 251 45 351 49 z m 492 633 b 498 905 493 802 496 876 l 498 911 l 441 911 l 441 903 b 449 634 446 850 449 699 b 192 640 282 635 221 637 l 186 640 l 179 583 l 187 583 b 448 591 239 587 384 591 b 443 339 447 427 445 368 l 443 333 l 500 333 l 499 341 b 491 591 495 393 492 526 b 751 585 657 589 722 586 l 758 584 l 764 642 l 755 641 b 492 633 704 636 558 634 z "},"²":{"ha":726,"x_min":0,"x_max":0,"o":"m 769 503 l 754 510 l 720 440 b 608 399 705 410 668 399 b 294 416 531 399 419 416 b 361 473 309 426 330 445 l 574 669 b 762 969 680 766 762 867 b 530 1122 762 1068 681 1122 b 239 890 390 1122 239 1027 b 382 728 239 813 295 751 l 399 757 b 270 895 323 776 270 827 b 525 1091 270 1004 395 1091 b 623 1013 589 1091 623 1065 b 440 730 623 933 566 862 l 193 473 b 129 383 130 406 133 403 l 291 383 b 614 319 456 383 545 319 b 735 432 659 319 694 345 z "},"³":{"ha":694,"x_min":0,"x_max":0,"o":"m 404 376 b 261 536 340 376 261 421 b 268 597 261 553 264 574 b 152 498 200 597 152 561 b 399 345 152 415 254 345 b 756 600 582 345 756 436 b 604 764 756 680 701 740 b 763 947 694 793 763 857 b 505 1094 763 1036 664 1094 b 253 946 379 1094 253 1039 b 335 871 253 901 285 871 b 500 1063 366 1027 433 1063 b 608 959 567 1063 608 1024 b 481 775 608 857 541 775 l 452 776 b 437 758 446 776 437 770 b 454 745 437 751 443 745 l 500 745 b 602 619 564 745 602 699 b 404 376 602 479 503 376 z "},"´":{"ha":120,"x_min":0,"x_max":0,"o":"m 94 469 b 88 472 92 471 90 472 b 81 469 85 472 83 471 l 16 389 l 25 381 l 97 438 l 106 448 b 109 454 107 450 109 452 b 105 460 109 456 108 458 z "},"µ":{"ha":1007,"x_min":0,"x_max":0,"o":"m 95 427 l 106 420 l 157 517 b 229 581 178 558 206 581 b 261 533 248 581 261 564 b 254 477 261 516 257 493 l 125 -188 b 121 -212 123 -193 121 -206 b 169 -259 121 -239 140 -259 b 239 -187 204 -259 239 -228 b 198 -64 239 -144 198 -131 b 203 -22 198 -52 199 -39 b 217 73 203 -17 210 22 b 351 -13 238 21 279 -13 b 551 78 408 -13 476 16 l 697 198 b 837 -12 697 55 755 -12 b 995 100 895 -12 956 26 l 1034 177 l 1022 183 l 983 106 b 901 42 962 66 928 42 b 861 101 879 42 861 60 b 865 140 861 112 862 125 l 972 616 b 975 631 972 620 975 630 b 882 651 975 644 928 651 l 770 651 b 756 644 770 651 757 649 l 711 358 b 699 244 707 327 703 286 l 530 104 b 425 58 500 80 458 58 b 378 128 390 58 378 89 b 404 255 378 169 391 219 l 430 328 b 463 490 450 382 463 439 b 297 667 463 589 417 667 b 158 551 243 667 199 632 z "},"¶":{"ha":1015,"x_min":0,"x_max":0,"o":"m 674 -193 l 803 -193 l 808 -170 b 797 -144 801 -170 797 -162 b 808 -64 797 -127 800 -101 l 1016 1006 b 1128 1089 1031 1082 1042 1089 l 1133 1112 l 566 1112 b 241 793 409 1112 241 975 b 462 576 241 669 332 576 l 490 576 l 366 -64 b 325 -170 351 -140 338 -170 l 320 -193 l 449 -193 l 677 981 b 809 1078 688 1039 741 1078 b 905 1001 868 1078 905 1048 b 903 981 905 994 904 987 z "},"·":{"ha":468,"x_min":0,"x_max":0,"o":"m 235 543 b 340 437 235 486 280 437 b 445 543 397 437 445 483 b 340 648 445 606 403 648 b 235 543 277 648 235 606 z "},"¸":{"ha":446,"x_min":0,"x_max":0,"o":"m 113 -278 b 384 -134 234 -278 384 -208 b 233 -66 384 -82 323 -66 l 276 22 l 245 37 l 180 -97 l 208 -97 b 303 -140 269 -97 303 -113 b 113 -259 303 -196 197 -259 z "},"¹":{"ha":377,"x_min":0,"x_max":0,"o":"m 354 363 l 461 828 b 517 1080 470 867 513 1025 l 518 1083 l 372 1083 l 372 1083 b 239 985 357 1078 313 1048 l 256 963 b 326 1013 284 985 315 1013 b 332 998 328 1013 332 1013 b 329 973 332 992 331 985 l 229 380 b 228 372 229 378 228 373 b 296 355 228 358 263 355 l 341 355 b 354 363 342 355 352 355 z "},"º":{"ha":674,"x_min":0,"x_max":0,"o":"m 452 594 b 363 694 391 594 363 618 b 534 1008 363 852 437 1008 b 621 892 589 1008 621 973 b 452 594 621 720 548 594 z m 539 1049 b 211 752 356 1049 211 947 b 447 553 211 635 298 553 b 777 862 625 553 777 671 b 539 1049 777 979 696 1049 z "},"»":{"ha":766,"x_min":0,"x_max":0,"o":"m 493 376 l 232 625 b 186 574 199 600 186 593 b 224 521 186 560 200 545 b 452 358 258 483 433 362 l 452 355 b 159 187 431 351 209 225 b 100 127 123 160 100 146 b 138 69 100 113 116 92 l 486 338 z m 771 376 l 510 625 b 465 574 477 600 465 593 b 502 521 465 560 478 545 b 730 358 536 483 711 362 l 730 355 b 437 187 709 351 487 225 b 378 127 401 160 378 146 b 416 69 378 113 394 92 l 764 338 z "},"¼":{"ha":1379,"x_min":0,"x_max":0,"o":"m 714 81 l 1110 81 l 1094 -52 l 1227 -52 l 1236 -16 l 1259 81 l 1327 81 l 1333 111 l 1265 111 b 1299 264 1280 170 1295 236 l 1300 269 l 1190 248 b 1115 119 1147 240 1131 248 l 1114 111 l 764 111 b 1326 749 944 326 1236 420 l 1329 757 l 1321 752 b 1128 676 1265 716 1156 676 b 1124 676 1128 676 1126 676 l 1121 678 l 1120 674 b 729 123 1079 510 909 357 l 729 123 z m 744 541 b 1164 1067 900 740 1139 1040 l 1119 1113 b 712 578 1086 1063 748 623 b 215 -41 557 380 239 -14 l 261 -87 b 744 541 294 -37 709 497 z m 354 363 l 461 828 b 517 1080 470 867 513 1025 l 518 1083 l 372 1083 l 372 1083 b 239 985 357 1078 313 1048 l 256 963 b 326 1013 284 985 315 1013 b 332 998 328 1013 332 1013 b 329 973 332 992 331 985 l 229 380 b 228 372 229 378 228 373 b 296 355 228 358 263 355 l 341 355 b 354 363 342 355 352 355 z "},"½":{"ha":1481,"x_min":0,"x_max":0,"o":"m 1427 71 l 1412 79 l 1378 9 b 1265 -32 1363 -22 1326 -32 b 951 -16 1189 -32 1077 -16 b 1019 41 967 -5 988 14 l 1232 237 b 1420 538 1338 335 1420 436 b 1187 690 1420 637 1339 690 b 897 458 1048 690 897 596 b 1040 297 897 382 953 320 l 1057 326 b 928 463 981 345 928 395 b 1183 660 928 573 1053 660 b 1281 582 1246 660 1281 634 b 1098 299 1281 502 1224 431 l 851 41 b 787 -48 787 -25 791 -28 l 949 -48 b 1272 -113 1114 -48 1202 -113 b 1393 1 1316 -113 1352 -86 z m 744 541 b 1164 1067 900 740 1139 1040 l 1119 1113 b 712 578 1086 1063 748 623 b 215 -41 557 380 239 -14 l 261 -87 b 744 541 294 -37 709 497 z m 354 363 l 461 828 b 517 1080 470 867 513 1025 l 518 1083 l 372 1083 l 372 1083 b 239 985 357 1078 313 1048 l 256 963 b 326 1013 284 985 315 1013 b 332 998 328 1013 332 1013 b 329 973 332 992 331 985 l 229 380 b 228 372 229 378 228 373 b 296 355 228 358 263 355 l 341 355 b 354 363 342 355 352 355 z "},"¾":{"ha":1644,"x_min":0,"x_max":0,"o":"m 404 376 b 261 536 340 376 261 421 b 268 597 261 553 264 574 b 152 498 200 597 152 561 b 399 345 152 415 254 345 b 756 600 582 345 756 436 b 604 764 756 680 701 740 b 763 947 694 793 763 857 b 505 1094 763 1036 664 1094 b 253 946 379 1094 253 1039 b 335 871 253 901 285 871 b 500 1063 366 1027 433 1063 b 608 959 567 1063 608 1024 b 481 775 608 857 541 775 l 452 776 b 437 758 446 776 437 770 b 454 745 437 751 443 745 l 500 745 b 602 619 564 745 602 699 b 404 376 602 479 503 376 z m 979 81 l 1375 81 l 1358 -52 l 1491 -52 l 1500 -16 l 1523 81 l 1592 81 l 1598 111 l 1530 111 b 1564 264 1544 170 1559 236 l 1565 269 l 1454 248 b 1379 119 1411 240 1395 248 l 1378 111 l 1028 111 b 1590 749 1208 326 1500 420 l 1593 757 l 1586 752 b 1393 676 1530 716 1421 676 b 1389 676 1392 676 1390 676 l 1385 678 l 1384 674 b 994 123 1343 510 1173 357 l 994 123 z m 1008 541 b 1429 1067 1164 740 1404 1040 l 1383 1113 b 977 578 1350 1063 1013 623 b 479 -41 821 380 504 -14 l 526 -87 b 1008 541 558 -37 973 497 z "},"¿":{"ha":926,"x_min":0,"x_max":0,"o":"m 650 813 b 545 918 650 870 605 918 b 440 813 488 918 440 873 b 545 708 440 756 486 708 b 650 813 602 708 650 753 z m 451 -257 b 252 -103 332 -257 252 -195 b 800 355 252 98 800 14 b 497 546 800 469 678 546 b 162 367 296 546 162 474 b 270 264 162 303 237 264 l 271 264 b 490 512 315 490 395 512 b 628 372 565 512 628 456 b 87 -87 628 140 87 252 b 444 -291 87 -209 230 -291 b 800 -146 657 -291 800 -233 b 694 -43 800 -82 728 -43 l 691 -43 b 451 -257 649 -255 547 -257 z "},"À":{"ha":1349,"x_min":0,"x_max":0,"o":"m 873 1567 l 817 1527 b 810 1513 812 1522 810 1518 b 816 1502 810 1509 813 1506 l 832 1482 l 1052 1316 l 1071 1333 l 899 1566 b 885 1573 895 1570 890 1573 b 873 1567 881 1573 877 1570 z m 654 331 b 954 261 749 309 854 279 b 1501 -336 1002 -103 1209 -336 b 1771 -194 1693 -336 1771 -254 b 1648 -118 1771 -149 1722 -118 b 1474 -259 1629 -217 1570 -259 b 1097 245 1192 -259 1111 -174 b 1352 425 1226 245 1325 284 l 1332 441 b 1096 343 1308 370 1215 346 b 1095 393 1095 359 1095 376 b 1116 837 1095 535 1116 694 b 908 1244 1116 1025 1080 1187 b 910 1214 909 1235 910 1225 b 841 932 910 1114 861 951 b 871 901 852 925 863 914 b 634 381 806 799 728 576 b 484 391 580 387 529 391 b 109 116 256 391 109 304 b 296 -45 109 20 184 -45 b 654 331 433 -45 557 133 z m 614 339 b 308 16 536 191 425 16 b 159 136 218 16 159 64 b 477 357 159 287 290 357 b 614 339 517 357 564 350 z m 676 377 b 889 868 765 568 836 773 b 943 429 930 772 943 598 b 945 349 943 401 943 375 b 676 377 857 355 764 368 z "},"Á":{"ha":1349,"x_min":0,"x_max":0,"o":"m 1065 1567 b 1053 1573 1061 1570 1057 1573 b 1040 1566 1048 1573 1044 1570 l 881 1319 l 900 1303 l 1106 1482 l 1122 1502 b 1128 1513 1125 1506 1128 1509 b 1121 1527 1128 1518 1126 1522 z m 654 331 b 954 261 749 309 854 279 b 1501 -336 1002 -103 1209 -336 b 1771 -194 1693 -336 1771 -254 b 1648 -118 1771 -149 1722 -118 b 1474 -259 1629 -217 1570 -259 b 1097 245 1192 -259 1111 -174 b 1352 425 1226 245 1325 284 l 1332 441 b 1096 343 1308 370 1215 346 b 1095 393 1095 359 1095 376 b 1116 837 1095 535 1116 694 b 908 1244 1116 1025 1080 1187 b 910 1214 909 1235 910 1225 b 841 932 910 1114 861 951 b 871 901 852 925 863 914 b 634 381 806 799 728 576 b 484 391 580 387 529 391 b 109 116 256 391 109 304 b 296 -45 109 20 184 -45 b 654 331 433 -45 557 133 z m 614 339 b 308 16 536 191 425 16 b 159 136 218 16 159 64 b 477 357 159 287 290 357 b 614 339 517 357 564 350 z m 676 377 b 889 868 765 568 836 773 b 943 429 930 772 943 598 b 945 349 943 401 943 375 b 676 377 857 355 764 368 z "},"Â":{"ha":1349,"x_min":0,"x_max":0,"o":"m 995 1562 l 957 1562 l 763 1367 b 819 1325 788 1339 805 1325 b 876 1373 835 1325 849 1342 b 975 1525 914 1415 970 1504 l 977 1525 b 1077 1373 981 1504 1039 1415 b 1135 1325 1104 1342 1119 1325 b 1190 1367 1149 1325 1165 1339 z m 654 331 b 954 261 749 309 854 279 b 1501 -336 1002 -103 1209 -336 b 1771 -194 1693 -336 1771 -254 b 1648 -118 1771 -149 1722 -118 b 1474 -259 1629 -217 1570 -259 b 1097 245 1192 -259 1111 -174 b 1352 425 1226 245 1325 284 l 1332 441 b 1096 343 1308 370 1215 346 b 1095 393 1095 359 1095 376 b 1116 837 1095 535 1116 694 b 908 1244 1116 1025 1080 1187 b 910 1214 909 1235 910 1225 b 841 932 910 1114 861 951 b 871 901 852 925 863 914 b 634 381 806 799 728 576 b 484 391 580 387 529 391 b 109 116 256 391 109 304 b 296 -45 109 20 184 -45 b 654 331 433 -45 557 133 z m 614 339 b 308 16 536 191 425 16 b 159 136 218 16 159 64 b 477 357 159 287 290 357 b 614 339 517 357 564 350 z m 676 377 b 889 868 765 568 836 773 b 943 429 930 772 943 598 b 945 349 943 401 943 375 b 676 377 857 355 764 368 z "},"Ã":{"ha":1349,"x_min":0,"x_max":0,"o":"m 1177 1468 l 1190 1522 l 1155 1530 l 1141 1476 b 1091 1427 1132 1439 1113 1427 b 861 1560 1030 1427 935 1560 b 778 1432 825 1560 797 1503 l 763 1377 l 798 1369 l 813 1424 b 858 1466 821 1455 838 1466 b 1088 1332 916 1466 1011 1332 b 1177 1468 1126 1332 1156 1390 z m 654 331 b 954 261 749 309 854 279 b 1501 -336 1002 -103 1209 -336 b 1771 -194 1693 -336 1771 -254 b 1648 -118 1771 -149 1722 -118 b 1474 -259 1629 -217 1570 -259 b 1097 245 1192 -259 1111 -174 b 1352 425 1226 245 1325 284 l 1332 441 b 1096 343 1308 370 1215 346 b 1095 393 1095 359 1095 376 b 1116 837 1095 535 1116 694 b 908 1244 1116 1025 1080 1187 b 910 1214 909 1235 910 1225 b 841 932 910 1114 861 951 b 871 901 852 925 863 914 b 634 381 806 799 728 576 b 484 391 580 387 529 391 b 109 116 256 391 109 304 b 296 -45 109 20 184 -45 b 654 331 433 -45 557 133 z m 614 339 b 308 16 536 191 425 16 b 159 136 218 16 159 64 b 477 357 159 287 290 357 b 614 339 517 357 564 350 z m 676 377 b 889 868 765 568 836 773 b 943 429 930 772 943 598 b 945 349 943 401 943 375 b 676 377 857 355 764 368 z "},"Ä":{"ha":1349,"x_min":0,"x_max":0,"o":"m 732 1468 b 817 1383 732 1423 768 1383 b 902 1468 862 1383 902 1419 b 817 1553 902 1519 868 1553 b 732 1468 766 1553 732 1519 z m 1051 1468 b 1136 1383 1051 1423 1087 1383 b 1221 1468 1181 1383 1221 1419 b 1136 1553 1221 1519 1187 1553 b 1051 1468 1085 1553 1051 1519 z m 654 331 b 954 261 749 309 854 279 b 1501 -336 1002 -103 1209 -336 b 1771 -194 1693 -336 1771 -254 b 1648 -118 1771 -149 1722 -118 b 1474 -259 1629 -217 1570 -259 b 1097 245 1192 -259 1111 -174 b 1352 425 1226 245 1325 284 l 1332 441 b 1096 343 1308 370 1215 346 b 1095 393 1095 359 1095 376 b 1116 837 1095 535 1116 694 b 908 1244 1116 1025 1080 1187 b 910 1214 909 1235 910 1225 b 841 932 910 1114 861 951 b 871 901 852 925 863 914 b 634 381 806 799 728 576 b 484 391 580 387 529 391 b 109 116 256 391 109 304 b 296 -45 109 20 184 -45 b 654 331 433 -45 557 133 z m 614 339 b 308 16 536 191 425 16 b 159 136 218 16 159 64 b 477 357 159 287 290 357 b 614 339 517 357 564 350 z m 676 377 b 889 868 765 568 836 773 b 943 429 930 772 943 598 b 945 349 943 401 943 375 b 676 377 857 355 764 368 z "},"Å":{"ha":1414,"x_min":0,"x_max":0,"o":"m 856 1246 b 903 1140 856 1204 874 1166 b 841 932 889 1048 857 947 b 871 901 852 925 863 914 b 634 381 806 799 728 576 b 484 391 580 387 529 391 b 109 116 256 391 109 304 b 296 -45 109 20 184 -45 b 654 331 433 -45 557 133 b 954 261 749 309 854 279 b 1501 -336 1002 -103 1209 -336 b 1771 -194 1693 -336 1771 -254 b 1648 -118 1771 -149 1722 -118 b 1474 -259 1629 -217 1570 -259 b 1097 245 1192 -259 1111 -174 b 1352 425 1226 245 1325 284 l 1332 441 b 1096 343 1308 370 1215 346 b 1095 393 1095 359 1095 376 b 1116 837 1095 535 1116 694 b 1062 1118 1116 944 1104 1043 b 1141 1246 1109 1142 1141 1190 b 998 1388 1141 1331 1084 1388 b 856 1246 913 1388 856 1331 z m 890 1246 b 998 1354 890 1311 933 1354 b 1107 1246 1063 1354 1107 1311 b 998 1137 1107 1181 1063 1137 b 890 1246 933 1137 890 1181 z m 676 377 b 889 868 765 568 836 773 b 943 429 930 772 943 598 b 945 349 943 401 943 375 b 676 377 857 355 764 368 z m 614 339 b 308 16 536 191 425 16 b 159 136 218 16 159 64 b 477 357 159 287 290 357 b 614 339 517 357 564 350 z "},"Æ":{"ha":1695,"x_min":0,"x_max":0,"o":"m 69 176 b 248 -7 69 -1 176 -7 b 595 295 395 -7 524 152 l 694 502 b 1002 467 788 490 896 475 l 928 37 l 740 39 l 736 -1 l 976 -1 b 1475 -79 1243 -1 1378 -79 b 1663 100 1545 -79 1596 -39 l 1722 224 l 1710 231 l 1653 115 b 1328 32 1619 45 1497 32 b 1103 35 1260 32 1184 34 l 1200 463 b 1563 675 1383 471 1533 522 l 1542 692 b 1217 542 1490 591 1387 553 l 1222 562 l 1265 753 b 1333 1068 1277 806 1320 979 b 1517 1059 1399 1063 1461 1059 b 1777 1146 1629 1059 1718 1077 b 1801 1211 1794 1170 1801 1192 b 1688 1308 1801 1274 1724 1308 b 1148 1111 1632 1112 1522 1111 b 780 1126 1117 1111 811 1125 l 783 1058 b 920 1069 791 1059 863 1064 b 671 549 863 974 764 747 b 504 554 608 551 550 553 b 69 176 243 554 69 403 z m 652 507 b 556 315 618 435 585 368 b 266 51 494 201 391 51 b 119 194 212 51 119 90 b 497 520 119 390 270 520 b 652 507 539 519 592 514 z m 714 547 b 958 1072 813 762 904 975 b 989 1074 964 1072 978 1074 b 1094 1019 1067 1074 1094 1067 b 1084 943 1094 1000 1090 975 l 1015 538 b 714 547 912 539 808 543 z "},"Ç":{"ha":1199,"x_min":0,"x_max":0,"o":"m 452 -298 b 724 -154 574 -298 724 -227 b 573 -85 724 -102 663 -85 l 608 -14 l 631 -14 b 1201 290 877 -14 1059 101 l 1178 311 b 639 46 1046 134 876 46 b 391 345 478 46 391 151 b 846 1090 391 792 573 1090 b 1170 777 1107 1090 1152 972 b 1309 889 1208 777 1309 821 b 1291 939 1309 905 1303 921 b 852 1124 1196 1074 1048 1124 b 177 423 447 1124 177 844 b 572 -11 177 181 332 13 l 520 -117 l 547 -117 b 643 -160 609 -117 643 -132 b 452 -279 643 -216 537 -279 z "},"È":{"ha":1139,"x_min":0,"x_max":0,"o":"m 682 1486 l 627 1445 b 620 1432 621 1441 620 1437 b 625 1421 620 1428 623 1425 l 642 1400 l 861 1235 l 880 1251 l 708 1485 b 694 1491 704 1489 700 1491 b 682 1486 690 1491 686 1489 z m 113 -1 l 352 -1 b 893 -79 619 -1 777 -79 b 1107 100 977 -79 1040 -39 l 1166 224 l 1154 231 l 1097 115 b 718 32 1063 45 907 32 b 479 35 642 32 560 34 l 598 562 l 931 562 l 933 610 l 606 597 l 637 732 b 709 1069 649 785 696 980 b 910 1061 774 1065 844 1061 b 1244 1212 1050 1061 1244 1088 b 1131 1309 1244 1270 1198 1309 b 523 1112 1074 1114 897 1112 b 317 1114 492 1112 349 1113 l 321 1073 b 367 1076 334 1074 351 1076 b 469 1020 445 1076 469 1067 b 459 944 469 1001 465 977 l 304 37 l 116 39 z "},"É":{"ha":1139,"x_min":0,"x_max":0,"o":"m 875 1486 b 863 1491 871 1489 867 1491 b 849 1485 857 1491 853 1489 l 690 1238 l 709 1221 l 916 1400 l 932 1421 b 937 1432 935 1425 937 1428 b 930 1445 937 1437 936 1441 z m 113 -1 l 352 -1 b 893 -79 619 -1 777 -79 b 1107 100 977 -79 1040 -39 l 1166 224 l 1154 231 l 1097 115 b 718 32 1063 45 907 32 b 479 35 642 32 560 34 l 598 562 l 931 562 l 933 610 l 606 597 l 637 732 b 709 1069 649 785 696 980 b 910 1061 774 1065 844 1061 b 1244 1212 1050 1061 1244 1088 b 1131 1309 1244 1270 1198 1309 b 523 1112 1074 1114 897 1112 b 317 1114 492 1112 349 1113 l 321 1073 b 367 1076 334 1074 351 1076 b 469 1020 445 1076 469 1067 b 459 944 469 1001 465 977 l 304 37 l 116 39 z "},"Ê":{"ha":1139,"x_min":0,"x_max":0,"o":"m 804 1480 l 766 1480 l 572 1285 b 629 1244 598 1257 614 1244 b 686 1292 644 1244 659 1261 b 784 1443 724 1334 780 1423 l 787 1443 b 887 1292 791 1423 849 1334 b 944 1244 914 1261 929 1244 b 1000 1285 959 1244 975 1257 z m 113 -1 l 352 -1 b 893 -79 619 -1 777 -79 b 1107 100 977 -79 1040 -39 l 1166 224 l 1154 231 l 1097 115 b 718 32 1063 45 907 32 b 479 35 642 32 560 34 l 598 562 l 931 562 l 933 610 l 606 597 l 637 732 b 709 1069 649 785 696 980 b 910 1061 774 1065 844 1061 b 1244 1212 1050 1061 1244 1088 b 1131 1309 1244 1270 1198 1309 b 523 1112 1074 1114 897 1112 b 317 1114 492 1112 349 1113 l 321 1073 b 367 1076 334 1074 351 1076 b 469 1020 445 1076 469 1067 b 459 944 469 1001 465 977 l 304 37 l 116 39 z "},"Ë":{"ha":1139,"x_min":0,"x_max":0,"o":"m 543 1387 b 627 1302 543 1342 578 1302 b 712 1387 671 1302 712 1338 b 627 1472 712 1438 678 1472 b 543 1387 576 1472 543 1438 z m 861 1387 b 945 1302 861 1342 897 1302 b 1031 1387 990 1302 1031 1338 b 945 1472 1031 1438 997 1472 b 861 1387 895 1472 861 1438 z m 113 -1 l 352 -1 b 893 -79 619 -1 777 -79 b 1107 100 977 -79 1040 -39 l 1166 224 l 1154 231 l 1097 115 b 718 32 1063 45 907 32 b 479 35 642 32 560 34 l 598 562 l 931 562 l 933 610 l 606 597 l 637 732 b 709 1069 649 785 696 980 b 910 1061 774 1065 844 1061 b 1244 1212 1050 1061 1244 1088 b 1131 1309 1244 1270 1198 1309 b 523 1112 1074 1114 897 1112 b 317 1114 492 1112 349 1113 l 321 1073 b 367 1076 334 1074 351 1076 b 469 1020 445 1076 469 1067 b 459 944 469 1001 465 977 l 304 37 l 116 39 z "},"Ì":{"ha":475,"x_min":0,"x_max":0,"o":"m 378 1486 l 322 1445 b 315 1432 317 1441 315 1437 b 321 1421 315 1428 318 1425 l 337 1400 l 557 1235 l 576 1251 l 404 1485 b 390 1491 399 1489 395 1491 b 378 1486 386 1491 382 1489 z m 244 1113 l 242 1099 b 357 1044 331 1099 357 1093 b 347 965 357 1025 353 1000 l 185 22 b 184 14 185 20 184 15 b 277 0 184 3 232 0 l 342 0 b 356 7 347 0 355 3 l 524 753 b 606 1112 538 811 599 1038 l 444 1111 z "},"Í":{"ha":475,"x_min":0,"x_max":0,"o":"m 570 1486 b 558 1491 566 1489 562 1491 b 545 1485 553 1491 549 1489 l 386 1238 l 405 1221 l 611 1400 l 627 1421 b 633 1432 630 1425 633 1428 b 626 1445 633 1437 631 1441 z m 244 1113 l 242 1099 b 357 1044 331 1099 357 1093 b 347 965 357 1025 353 1000 l 185 22 b 184 14 185 20 184 15 b 277 0 184 3 232 0 l 342 0 b 356 7 347 0 355 3 l 524 753 b 606 1112 538 811 599 1038 l 444 1111 z "},"Î":{"ha":475,"x_min":0,"x_max":0,"o":"m 499 1480 l 461 1480 l 267 1285 b 324 1244 293 1257 309 1244 b 381 1292 339 1244 354 1261 b 479 1443 419 1334 475 1423 l 481 1443 b 582 1292 486 1423 544 1334 b 639 1244 609 1261 624 1244 b 694 1285 654 1244 670 1257 z m 244 1113 l 242 1099 b 357 1044 331 1099 357 1093 b 347 965 357 1025 353 1000 l 185 22 b 184 14 185 20 184 15 b 277 0 184 3 232 0 l 342 0 b 356 7 347 0 355 3 l 524 753 b 606 1112 538 811 599 1038 l 444 1111 z "},"Ï":{"ha":475,"x_min":0,"x_max":0,"o":"m 237 1387 b 321 1302 237 1342 273 1302 b 407 1387 366 1302 407 1338 b 321 1472 407 1438 373 1472 b 237 1387 271 1472 237 1438 z m 556 1387 b 640 1302 556 1342 591 1302 b 726 1387 685 1302 726 1338 b 640 1472 726 1438 692 1472 b 556 1387 590 1472 556 1438 z m 244 1113 l 242 1099 b 357 1044 331 1099 357 1093 b 347 965 357 1025 353 1000 l 185 22 b 184 14 185 20 184 15 b 277 0 184 3 232 0 l 342 0 b 356 7 347 0 355 3 l 524 753 b 606 1112 538 811 599 1038 l 444 1111 z "},"Ð":{"ha":1346,"x_min":0,"x_max":0,"o":"m 492 33 l 608 543 b 847 537 739 541 822 538 l 854 536 l 860 594 l 852 593 b 618 587 814 590 703 588 l 652 739 b 731 1079 665 793 718 991 b 905 1077 817 1078 887 1077 b 1180 750 1086 1076 1180 964 b 718 26 1180 313 991 26 b 492 33 642 26 567 30 z m 911 1111 b 313 1122 881 1111 345 1120 l 309 1080 b 406 1082 323 1081 358 1082 b 484 1026 464 1082 484 1068 b 474 949 484 1007 479 982 l 412 587 b 199 592 294 589 222 590 l 193 592 l 186 535 l 194 536 b 405 543 230 538 326 541 l 318 37 l 151 39 l 140 -1 b 709 -14 329 -5 633 -14 b 1398 704 1086 -14 1398 271 b 911 1111 1398 970 1232 1111 z "},"Ñ":{"ha":1179,"x_min":0,"x_max":0,"o":"m 1109 1386 l 1122 1440 l 1087 1449 l 1074 1394 b 1023 1345 1064 1358 1045 1345 b 793 1478 962 1345 867 1478 b 710 1351 758 1478 729 1421 l 695 1295 l 730 1287 l 745 1343 b 790 1385 753 1374 770 1385 b 1021 1251 848 1385 943 1251 b 1109 1386 1059 1251 1088 1309 z m 443 1142 b 445 1103 445 1130 445 1116 b 393 884 445 1014 412 903 b 448 855 412 877 430 867 l 407 626 b 65 52 334 252 271 109 b 64 47 64 50 64 49 b 151 -5 64 20 101 -5 b 256 31 183 -5 220 5 b 441 629 388 127 399 411 l 479 833 b 949 -25 680 680 890 298 b 1031 -18 949 -25 1013 -18 l 1038 -18 b 1149 600 1042 14 1143 570 b 1717 1175 1235 1040 1505 1175 l 1731 1175 b 1734 1192 1733 1179 1734 1187 b 1617 1262 1734 1224 1686 1262 b 1115 597 1440 1262 1208 1093 l 1052 257 b 443 1142 976 606 808 1020 z "},"Ò":{"ha":1312,"x_min":0,"x_max":0,"o":"m 785 1486 l 729 1445 b 722 1432 724 1441 722 1437 b 728 1421 722 1428 725 1425 l 744 1400 l 964 1235 l 983 1251 l 810 1485 b 797 1491 806 1489 802 1491 b 785 1486 793 1491 789 1489 z m 666 26 b 385 310 472 26 385 106 b 873 1090 385 729 581 1090 b 1148 763 1055 1090 1148 977 b 666 26 1148 315 954 26 z m 880 1124 b 177 429 478 1124 177 878 b 659 -14 177 159 357 -14 b 1367 718 1045 -14 1367 277 b 880 1124 1367 983 1200 1124 z "},"Ó":{"ha":1312,"x_min":0,"x_max":0,"o":"m 977 1486 b 965 1491 973 1489 969 1491 b 951 1485 960 1491 956 1489 l 793 1238 l 812 1221 l 1018 1400 l 1034 1421 b 1040 1432 1037 1425 1040 1428 b 1033 1445 1040 1437 1038 1441 z m 666 26 b 385 310 472 26 385 106 b 873 1090 385 729 581 1090 b 1148 763 1055 1090 1148 977 b 666 26 1148 315 954 26 z m 880 1124 b 177 429 478 1124 177 878 b 659 -14 177 159 357 -14 b 1367 718 1045 -14 1367 277 b 880 1124 1367 983 1200 1124 z "},"Ô":{"ha":1312,"x_min":0,"x_max":0,"o":"m 907 1480 l 869 1480 l 675 1285 b 731 1244 700 1257 717 1244 b 788 1292 747 1244 761 1261 b 886 1443 826 1334 882 1423 l 889 1443 b 989 1292 893 1423 951 1334 b 1046 1244 1016 1261 1031 1244 b 1102 1285 1061 1244 1077 1257 z m 666 26 b 385 310 472 26 385 106 b 873 1090 385 729 581 1090 b 1148 763 1055 1090 1148 977 b 666 26 1148 315 954 26 z m 880 1124 b 177 429 478 1124 177 878 b 659 -14 177 159 357 -14 b 1367 718 1045 -14 1367 277 b 880 1124 1367 983 1200 1124 z "},"Õ":{"ha":1312,"x_min":0,"x_max":0,"o":"m 1088 1386 l 1102 1440 l 1067 1449 l 1053 1394 b 1003 1345 1044 1358 1025 1345 b 772 1478 942 1345 847 1478 b 690 1351 737 1478 709 1421 l 675 1295 l 710 1287 l 725 1343 b 770 1385 733 1374 749 1385 b 1000 1251 828 1385 923 1251 b 1088 1386 1038 1251 1068 1309 z m 666 26 b 385 310 472 26 385 106 b 873 1090 385 729 581 1090 b 1148 763 1055 1090 1148 977 b 666 26 1148 315 954 26 z m 880 1124 b 177 429 478 1124 177 878 b 659 -14 177 159 357 -14 b 1367 718 1045 -14 1367 277 b 880 1124 1367 983 1200 1124 z "},"Ö":{"ha":1312,"x_min":0,"x_max":0,"o":"m 644 1387 b 729 1302 644 1342 680 1302 b 814 1387 774 1302 814 1338 b 729 1472 814 1438 780 1472 b 644 1387 678 1472 644 1438 z m 963 1387 b 1048 1302 963 1342 999 1302 b 1133 1387 1093 1302 1133 1338 b 1048 1472 1133 1438 1099 1472 b 963 1387 997 1472 963 1438 z m 666 26 b 385 310 472 26 385 106 b 873 1090 385 729 581 1090 b 1148 763 1055 1090 1148 977 b 666 26 1148 315 954 26 z m 880 1124 b 177 429 478 1124 177 878 b 659 -14 177 159 357 -14 b 1367 718 1045 -14 1367 277 b 880 1124 1367 983 1200 1124 z "},"×":{"ha":705,"x_min":0,"x_max":0,"o":"m 475 521 b 672 708 596 640 650 689 l 677 713 l 636 753 l 631 747 b 446 551 597 707 492 597 b 268 737 329 670 287 715 l 264 742 l 218 706 l 224 701 b 415 522 264 667 369 567 b 233 347 298 406 255 366 l 229 343 l 269 302 l 274 309 b 445 491 307 348 400 445 b 624 303 562 372 605 325 l 629 298 l 673 334 l 667 339 b 475 521 628 373 523 474 z "},"Ø":{"ha":1312,"x_min":0,"x_max":0,"o":"m 666 26 b 405 170 525 26 440 68 l 814 585 l 1133 899 b 1148 763 1143 859 1148 814 b 666 26 1148 315 954 26 z m 294 118 b 137 -35 208 33 145 -28 l 168 -75 b 325 89 179 -61 243 5 b 659 -14 407 23 519 -14 b 1367 718 1045 -14 1367 277 b 1251 1014 1367 846 1327 946 b 1380 1139 1321 1083 1372 1133 l 1349 1179 b 1217 1041 1337 1165 1285 1111 b 880 1124 1136 1096 1023 1124 b 177 429 478 1124 177 878 b 294 118 177 300 218 194 z m 393 216 b 385 310 388 244 385 275 b 873 1090 385 729 581 1090 b 1118 941 995 1090 1078 1039 l 797 616 z "},"Ù":{"ha":1173,"x_min":0,"x_max":0,"o":"m 701 1486 l 645 1445 b 638 1432 640 1441 638 1437 b 644 1421 638 1428 641 1425 l 660 1400 l 880 1235 l 899 1251 l 726 1485 b 713 1491 722 1489 718 1491 b 701 1486 709 1491 705 1489 z m 243 971 l 256 965 b 329 1028 277 1006 307 1028 b 363 976 349 1028 363 1012 b 356 925 363 962 361 945 l 233 358 b 216 220 222 311 216 264 b 417 -13 216 89 270 -13 b 645 78 474 -13 570 16 l 846 243 b 843 180 844 222 843 201 b 985 -12 843 52 911 -12 b 1143 100 1042 -12 1104 25 l 1182 177 l 1170 183 l 1131 106 b 1048 42 1110 66 1076 42 b 1008 98 1025 42 1008 59 b 1013 140 1008 110 1010 124 l 1218 1089 b 1219 1090 1219 1090 1219 1090 b 1126 1111 1219 1104 1172 1111 l 1000 1111 b 987 1103 1000 1111 987 1109 l 859 358 b 850 292 856 338 852 316 l 623 104 b 491 58 594 80 524 58 b 391 167 421 58 391 102 b 406 255 391 193 396 223 l 555 775 b 578 926 569 826 578 878 b 410 1115 578 1031 535 1115 b 257 998 355 1115 299 1080 z "},"Ú":{"ha":1173,"x_min":0,"x_max":0,"o":"m 893 1486 b 881 1491 889 1489 885 1491 b 867 1485 876 1491 871 1489 l 709 1238 l 728 1221 l 934 1400 l 950 1421 b 956 1432 953 1425 956 1428 b 949 1445 956 1437 954 1441 z m 243 971 l 256 965 b 329 1028 277 1006 307 1028 b 363 976 349 1028 363 1012 b 356 925 363 962 361 945 l 233 358 b 216 220 222 311 216 264 b 417 -13 216 89 270 -13 b 645 78 474 -13 570 16 l 846 243 b 843 180 844 222 843 201 b 985 -12 843 52 911 -12 b 1143 100 1042 -12 1104 25 l 1182 177 l 1170 183 l 1131 106 b 1048 42 1110 66 1076 42 b 1008 98 1025 42 1008 59 b 1013 140 1008 110 1010 124 l 1218 1089 b 1219 1090 1219 1090 1219 1090 b 1126 1111 1219 1104 1172 1111 l 1000 1111 b 987 1103 1000 1111 987 1109 l 859 358 b 850 292 856 338 852 316 l 623 104 b 491 58 594 80 524 58 b 391 167 421 58 391 102 b 406 255 391 193 396 223 l 555 775 b 578 926 569 826 578 878 b 410 1115 578 1031 535 1115 b 257 998 355 1115 299 1080 z "},"Û":{"ha":1173,"x_min":0,"x_max":0,"o":"m 823 1480 l 785 1480 l 591 1285 b 647 1244 616 1257 633 1244 b 704 1292 663 1244 677 1261 b 802 1443 742 1334 798 1423 l 805 1443 b 905 1292 809 1423 867 1334 b 962 1244 932 1261 947 1244 b 1018 1285 977 1244 993 1257 z m 243 971 l 256 965 b 329 1028 277 1006 307 1028 b 363 976 349 1028 363 1012 b 356 925 363 962 361 945 l 233 358 b 216 220 222 311 216 264 b 417 -13 216 89 270 -13 b 645 78 474 -13 570 16 l 846 243 b 843 180 844 222 843 201 b 985 -12 843 52 911 -12 b 1143 100 1042 -12 1104 25 l 1182 177 l 1170 183 l 1131 106 b 1048 42 1110 66 1076 42 b 1008 98 1025 42 1008 59 b 1013 140 1008 110 1010 124 l 1218 1089 b 1219 1090 1219 1090 1219 1090 b 1126 1111 1219 1104 1172 1111 l 1000 1111 b 987 1103 1000 1111 987 1109 l 859 358 b 850 292 856 338 852 316 l 623 104 b 491 58 594 80 524 58 b 391 167 421 58 391 102 b 406 255 391 193 396 223 l 555 775 b 578 926 569 826 578 878 b 410 1115 578 1031 535 1115 b 257 998 355 1115 299 1080 z "},"Ü":{"ha":1173,"x_min":0,"x_max":0,"o":"m 560 1387 b 645 1302 560 1342 596 1302 b 730 1387 690 1302 730 1338 b 645 1472 730 1438 696 1472 b 560 1387 594 1472 560 1438 z m 879 1387 b 964 1302 879 1342 915 1302 b 1048 1387 1008 1302 1048 1338 b 964 1472 1048 1438 1015 1472 b 879 1387 913 1472 879 1438 z m 243 971 l 256 965 b 329 1028 277 1006 307 1028 b 363 976 349 1028 363 1012 b 356 925 363 962 361 945 l 233 358 b 216 220 222 311 216 264 b 417 -13 216 89 270 -13 b 645 78 474 -13 570 16 l 846 243 b 843 180 844 222 843 201 b 985 -12 843 52 911 -12 b 1143 100 1042 -12 1104 25 l 1182 177 l 1170 183 l 1131 106 b 1048 42 1110 66 1076 42 b 1008 98 1025 42 1008 59 b 1013 140 1008 110 1010 124 l 1218 1089 b 1219 1090 1219 1090 1219 1090 b 1126 1111 1219 1104 1172 1111 l 1000 1111 b 987 1103 1000 1111 987 1109 l 859 358 b 850 292 856 338 852 316 l 623 104 b 491 58 594 80 524 58 b 391 167 421 58 391 102 b 406 255 391 193 396 223 l 555 775 b 578 926 569 826 578 878 b 410 1115 578 1031 535 1115 b 257 998 355 1115 299 1080 z "},"Ý":{"ha":877,"x_min":0,"x_max":0,"o":"m 943 1486 b 931 1491 939 1489 935 1491 b 918 1485 926 1491 922 1489 l 759 1238 l 778 1221 l 984 1400 l 1000 1421 b 1006 1432 1003 1425 1006 1428 b 999 1445 1006 1437 1004 1441 z m 661 7 l 723 264 b 788 532 734 312 771 444 b 1543 1037 1105 1026 1347 1037 b 1562 1116 1553 1053 1562 1084 b 1481 1211 1562 1164 1543 1211 b 780 581 1217 1211 1004 922 l 777 581 b 433 1122 726 840 661 1122 b 260 1005 378 1122 302 1086 l 244 975 l 257 970 l 258 972 b 334 1034 281 1017 316 1034 b 554 543 456 1034 503 791 b 541 436 551 516 546 481 l 492 33 b 490 21 492 30 490 21 b 583 0 490 7 536 0 l 647 0 b 661 7 652 0 660 3 z "},"Þ":{"ha":1066,"x_min":0,"x_max":0,"o":"m 633 1112 l 471 1111 l 271 1113 l 269 1099 b 384 1044 358 1099 384 1093 b 374 965 384 1025 380 1000 l 212 22 b 212 20 212 21 212 21 b 304 0 212 7 259 0 l 370 0 b 383 7 375 0 382 3 l 551 753 b 599 945 559 784 580 865 b 729 941 654 943 706 941 b 932 752 861 940 932 875 b 598 338 932 483 815 338 l 496 338 l 485 298 l 591 298 b 1152 724 928 298 1152 469 b 735 975 1152 887 1006 975 b 607 979 722 975 667 977 b 633 1112 620 1034 630 1084 z "},"ß":{"ha":1002,"x_min":0,"x_max":0,"o":"m 10 -223 l -10 -254 b 123 -285 22 -277 69 -285 b 357 50 277 -285 334 -64 l 512 857 b 635 960 526 929 598 960 b 857 779 765 960 845 897 b 586 543 681 772 586 690 b 682 345 586 461 631 399 b 827 146 749 273 827 215 b 703 20 827 70 785 20 b 557 193 577 20 566 86 l 556 198 l 551 198 b 454 117 501 198 454 168 b 696 -14 454 43 526 -14 b 998 195 886 -14 998 69 b 862 439 998 293 928 370 b 754 607 806 498 754 551 b 876 747 754 698 797 747 l 892 747 b 581 1038 892 936 779 1038 b 258 704 408 1038 290 913 l 250 651 l 165 651 l 165 616 l 245 616 l 138 -123 b 35 -227 127 -195 78 -227 b 10 -223 26 -227 18 -225 z "},"à":{"ha":1065,"x_min":0,"x_max":0,"o":"m 486 1106 l 430 1065 b 423 1052 425 1061 423 1057 b 429 1041 423 1048 426 1045 l 445 1021 l 665 855 l 684 871 l 511 1105 b 498 1112 507 1109 503 1112 b 486 1106 494 1112 490 1109 z m 855 651 b 756 572 840 651 787 643 b 547 665 722 633 654 665 b 114 251 288 665 114 499 b 415 -14 114 92 235 -14 b 718 193 588 -14 668 89 b 876 -14 718 60 794 -14 b 1034 100 934 -14 995 23 l 1094 218 l 1082 224 l 1036 134 b 940 70 1015 93 975 70 b 878 142 906 70 878 92 b 881 174 878 151 879 162 l 912 293 b 989 651 928 351 983 577 z m 735 551 b 739 532 738 547 739 540 b 736 505 739 522 737 511 l 724 327 b 714 269 724 318 720 283 b 475 33 674 165 602 33 b 323 188 376 33 323 87 b 602 629 323 452 435 629 b 735 551 649 629 707 606 z "},"á":{"ha":1065,"x_min":0,"x_max":0,"o":"m 678 1106 b 666 1112 674 1109 670 1112 b 652 1105 661 1112 656 1109 l 494 858 l 513 842 l 719 1021 l 735 1041 b 741 1052 738 1045 741 1048 b 734 1065 741 1057 739 1061 z m 855 651 b 756 572 840 651 787 643 b 547 665 722 633 654 665 b 114 251 288 665 114 499 b 415 -14 114 92 235 -14 b 718 193 588 -14 668 89 b 876 -14 718 60 794 -14 b 1034 100 934 -14 995 23 l 1094 218 l 1082 224 l 1036 134 b 940 70 1015 93 975 70 b 878 142 906 70 878 92 b 881 174 878 151 879 162 l 912 293 b 989 651 928 351 983 577 z m 735 551 b 739 532 738 547 739 540 b 736 505 739 522 737 511 l 724 327 b 714 269 724 318 720 283 b 475 33 674 165 602 33 b 323 188 376 33 323 87 b 602 629 323 452 435 629 b 735 551 649 629 707 606 z "},"â":{"ha":1065,"x_min":0,"x_max":0,"o":"m 608 1101 l 570 1101 l 376 905 b 432 864 401 878 418 864 b 489 912 448 864 462 881 b 587 1063 527 954 583 1043 l 590 1063 b 690 912 594 1043 652 954 b 747 864 717 881 732 864 b 803 905 762 864 778 878 z m 855 651 b 756 572 840 651 787 643 b 547 665 722 633 654 665 b 114 251 288 665 114 499 b 415 -14 114 92 235 -14 b 718 193 588 -14 668 89 b 876 -14 718 60 794 -14 b 1034 100 934 -14 995 23 l 1094 218 l 1082 224 l 1036 134 b 940 70 1015 93 975 70 b 878 142 906 70 878 92 b 881 174 878 151 879 162 l 912 293 b 989 651 928 351 983 577 z m 735 551 b 739 532 738 547 739 540 b 736 505 739 522 737 511 l 724 327 b 714 269 724 318 720 283 b 475 33 674 165 602 33 b 323 188 376 33 323 87 b 602 629 323 452 435 629 b 735 551 649 629 707 606 z "},"ã":{"ha":1065,"x_min":0,"x_max":0,"o":"m 789 1006 l 803 1061 l 768 1069 l 754 1015 b 704 966 745 978 726 966 b 473 1099 643 966 548 1099 b 391 971 438 1099 410 1042 l 376 916 l 411 907 l 426 963 b 471 1005 434 994 450 1005 b 701 871 529 1005 624 871 b 789 1006 739 871 769 929 z m 855 651 b 756 572 840 651 787 643 b 547 665 722 633 654 665 b 114 251 288 665 114 499 b 415 -14 114 92 235 -14 b 718 193 588 -14 668 89 b 876 -14 718 60 794 -14 b 1034 100 934 -14 995 23 l 1094 218 l 1082 224 l 1036 134 b 940 70 1015 93 975 70 b 878 142 906 70 878 92 b 881 174 878 151 879 162 l 912 293 b 989 651 928 351 983 577 z m 735 551 b 739 532 738 547 739 540 b 736 505 739 522 737 511 l 724 327 b 714 269 724 318 720 283 b 475 33 674 165 602 33 b 323 188 376 33 323 87 b 602 629 323 452 435 629 b 735 551 649 629 707 606 z "},"ä":{"ha":1065,"x_min":0,"x_max":0,"o":"m 345 1007 b 430 922 345 962 380 922 b 515 1007 475 922 515 958 b 430 1092 515 1058 481 1092 b 345 1007 379 1092 345 1058 z m 664 1007 b 749 922 664 962 699 922 b 833 1007 793 922 833 958 b 749 1092 833 1058 800 1092 b 664 1007 698 1092 664 1058 z m 855 651 b 756 572 840 651 787 643 b 547 665 722 633 654 665 b 114 251 288 665 114 499 b 415 -14 114 92 235 -14 b 718 193 588 -14 668 89 b 876 -14 718 60 794 -14 b 1034 100 934 -14 995 23 l 1094 218 l 1082 224 l 1036 134 b 940 70 1015 93 975 70 b 878 142 906 70 878 92 b 881 174 878 151 879 162 l 912 293 b 989 651 928 351 983 577 z m 735 551 b 739 532 738 547 739 540 b 736 505 739 522 737 511 l 724 327 b 714 269 724 318 720 283 b 475 33 674 165 602 33 b 323 188 376 33 323 87 b 602 629 323 452 435 629 b 735 551 649 629 707 606 z "},"å":{"ha":1065,"x_min":0,"x_max":0,"o":"m 481 968 b 589 1076 481 1033 524 1076 b 698 968 654 1076 698 1033 b 589 859 698 903 654 859 b 481 968 524 859 481 903 z m 447 968 b 589 825 447 889 511 825 b 732 968 668 825 732 889 b 589 1110 732 1053 675 1110 b 447 968 504 1110 447 1053 z m 855 651 b 756 572 840 651 787 643 b 547 665 722 633 654 665 b 114 251 288 665 114 499 b 415 -14 114 92 235 -14 b 718 193 588 -14 668 89 b 876 -14 718 60 794 -14 b 1034 100 934 -14 995 23 l 1094 218 l 1082 224 l 1036 134 b 940 70 1015 93 975 70 b 878 142 906 70 878 92 b 881 174 878 151 879 162 l 912 293 b 989 651 928 351 983 577 z m 735 551 b 739 532 738 547 739 540 b 736 505 739 522 737 511 l 724 327 b 714 269 724 318 720 283 b 475 33 674 165 602 33 b 323 188 376 33 323 87 b 602 629 323 452 435 629 b 735 551 649 629 707 606 z "},"æ":{"ha":1440,"x_min":0,"x_max":0,"o":"m 742 531 b 736 505 740 523 739 514 l 724 327 b 722 272 723 311 722 292 l 715 275 b 475 33 675 171 602 33 b 323 188 370 33 323 77 b 339 326 323 226 328 271 b 602 629 377 523 469 629 b 742 531 667 629 710 597 z m 760 586 b 547 665 726 636 670 665 b 122 326 332 665 161 530 b 114 251 117 300 114 275 b 415 -14 114 90 227 -14 b 722 202 593 -14 673 95 b 773 -7 724 100 739 -7 l 781 -7 l 800 121 b 1046 -14 842 36 930 -14 b 1402 133 1193 -14 1320 41 l 1377 155 b 1107 33 1323 90 1207 33 b 928 220 975 33 928 87 b 1472 497 1236 220 1472 315 b 1178 665 1472 607 1371 665 b 867 535 1037 665 935 621 b 881 651 873 583 878 626 l 835 651 b 760 586 820 651 786 644 z m 931 254 b 943 326 934 276 937 300 b 1171 631 978 509 1069 631 b 1284 515 1246 631 1284 591 b 931 254 1284 329 1149 254 z "},"ç":{"ha":840,"x_min":0,"x_max":0,"o":"m 251 -297 b 522 -153 372 -297 522 -227 b 371 -85 522 -101 461 -85 l 407 -12 b 442 -14 418 -13 430 -14 b 799 133 589 -14 716 41 l 774 155 b 504 33 720 90 604 33 b 324 198 379 33 324 79 b 568 631 324 414 439 630 b 734 480 678 631 734 597 b 723 375 734 451 730 416 b 743 373 728 374 735 373 b 884 476 793 373 884 401 b 574 665 884 599 734 665 b 115 256 313 665 115 524 b 371 -9 115 112 210 14 l 318 -116 l 345 -116 b 441 -159 408 -116 441 -132 b 251 -278 441 -215 335 -278 z "},"è":{"ha":837,"x_min":0,"x_max":0,"o":"m 481 1106 l 426 1065 b 419 1052 420 1061 419 1057 b 425 1041 419 1048 422 1045 l 441 1021 l 661 855 l 680 871 l 507 1105 b 494 1112 503 1109 499 1112 b 481 1106 490 1112 486 1109 z m 325 220 b 869 497 615 222 869 315 b 574 665 869 607 767 665 b 115 256 313 665 115 524 b 442 -14 115 92 239 -14 b 799 133 589 -14 716 41 l 774 155 b 504 33 720 90 604 33 b 324 198 379 33 324 79 b 325 220 324 205 324 212 z m 327 254 b 568 631 344 450 448 631 b 681 515 642 631 681 591 b 327 254 681 330 545 254 z "},"é":{"ha":837,"x_min":0,"x_max":0,"o":"m 674 1106 b 662 1112 670 1109 666 1112 b 648 1105 656 1112 652 1109 l 490 858 l 509 842 l 715 1021 l 731 1041 b 736 1052 734 1045 736 1048 b 730 1065 736 1057 735 1061 z m 325 220 b 869 497 615 222 869 315 b 574 665 869 607 767 665 b 115 256 313 665 115 524 b 442 -14 115 92 239 -14 b 799 133 589 -14 716 41 l 774 155 b 504 33 720 90 604 33 b 324 198 379 33 324 79 b 325 220 324 205 324 212 z m 327 254 b 568 631 344 450 448 631 b 681 515 642 631 681 591 b 327 254 681 330 545 254 z "},"ê":{"ha":837,"x_min":0,"x_max":0,"o":"m 604 1101 l 566 1101 l 372 905 b 428 864 397 878 414 864 b 485 912 444 864 458 881 b 583 1063 523 954 579 1043 l 586 1063 b 686 912 590 1043 648 954 b 743 864 713 881 728 864 b 799 905 758 864 774 878 z m 325 220 b 869 497 615 222 869 315 b 574 665 869 607 767 665 b 115 256 313 665 115 524 b 442 -14 115 92 239 -14 b 799 133 589 -14 716 41 l 774 155 b 504 33 720 90 604 33 b 324 198 379 33 324 79 b 325 220 324 205 324 212 z m 327 254 b 568 631 344 450 448 631 b 681 515 642 631 681 591 b 327 254 681 330 545 254 z "},"ë":{"ha":837,"x_min":0,"x_max":0,"o":"m 341 1007 b 426 922 341 962 376 922 b 511 1007 471 922 511 958 b 426 1092 511 1058 477 1092 b 341 1007 375 1092 341 1058 z m 660 1007 b 745 922 660 962 695 922 b 829 1007 789 922 829 958 b 745 1092 829 1058 795 1092 b 660 1007 694 1092 660 1058 z m 325 220 b 869 497 615 222 869 315 b 574 665 869 607 767 665 b 115 256 313 665 115 524 b 442 -14 115 92 239 -14 b 799 133 589 -14 716 41 l 774 155 b 504 33 720 90 604 33 b 324 198 379 33 324 79 b 325 220 324 205 324 212 z m 327 254 b 568 631 344 450 448 631 b 681 515 642 631 681 591 b 327 254 681 330 545 254 z "},"ì":{"ha":550,"x_min":0,"x_max":0,"o":"m 308 1106 l 252 1065 b 245 1052 247 1061 245 1057 b 251 1041 245 1048 248 1045 l 267 1021 l 487 855 l 506 871 l 334 1105 b 320 1112 330 1109 326 1112 b 308 1106 316 1112 312 1109 z m 577 218 l 566 224 l 519 134 b 424 71 498 93 458 71 b 365 134 392 71 365 91 b 371 174 365 146 367 159 l 404 293 b 485 651 420 351 478 577 l 323 651 b 137 548 249 651 182 635 l 98 471 l 110 465 l 149 542 b 211 608 170 583 195 608 b 231 564 223 608 231 595 b 226 511 231 550 229 532 l 193 327 b 170 153 184 279 170 214 b 336 -8 170 46 250 -8 b 517 100 407 -8 480 28 z "},"í":{"ha":550,"x_min":0,"x_max":0,"o":"m 500 1106 b 488 1112 496 1109 492 1112 b 475 1105 483 1112 479 1109 l 316 858 l 335 842 l 541 1021 l 557 1041 b 563 1052 560 1045 563 1048 b 556 1065 563 1057 562 1061 z m 577 218 l 566 224 l 519 134 b 424 71 498 93 458 71 b 365 134 392 71 365 91 b 371 174 365 146 367 159 l 404 293 b 485 651 420 351 478 577 l 323 651 b 137 548 249 651 182 635 l 98 471 l 110 465 l 149 542 b 211 608 170 583 195 608 b 231 564 223 608 231 595 b 226 511 231 550 229 532 l 193 327 b 170 153 184 279 170 214 b 336 -8 170 46 250 -8 b 517 100 407 -8 480 28 z "},"î":{"ha":550,"x_min":0,"x_max":0,"o":"m 430 1101 l 392 1101 l 198 905 b 254 864 223 878 240 864 b 311 912 270 864 284 881 b 410 1063 349 954 406 1043 l 412 1063 b 512 912 416 1043 474 954 b 570 864 539 881 554 864 b 625 905 584 864 600 878 z m 577 218 l 566 224 l 519 134 b 424 71 498 93 458 71 b 365 134 392 71 365 91 b 371 174 365 146 367 159 l 404 293 b 485 651 420 351 478 577 l 323 651 b 137 548 249 651 182 635 l 98 471 l 110 465 l 149 542 b 211 608 170 583 195 608 b 231 564 223 608 231 595 b 226 511 231 550 229 532 l 193 327 b 170 153 184 279 170 214 b 336 -8 170 46 250 -8 b 517 100 407 -8 480 28 z "},"ï":{"ha":550,"x_min":0,"x_max":0,"o":"m 168 1007 b 252 922 168 962 203 922 b 337 1007 297 922 337 958 b 252 1092 337 1058 303 1092 b 168 1007 201 1092 168 1058 z m 486 1007 b 571 922 486 962 522 922 b 656 1007 616 922 656 958 b 571 1092 656 1058 622 1092 b 486 1007 520 1092 486 1058 z m 577 218 l 566 224 l 519 134 b 424 71 498 93 458 71 b 365 134 392 71 365 91 b 371 174 365 146 367 159 l 404 293 b 485 651 420 351 478 577 l 323 651 b 137 548 249 651 182 635 l 98 471 l 110 465 l 149 542 b 211 608 170 583 195 608 b 231 564 223 608 231 595 b 226 511 231 550 229 532 l 193 327 b 170 153 184 279 170 214 b 336 -8 170 46 250 -8 b 517 100 407 -8 480 28 z "},"ð":{"ha":917,"x_min":0,"x_max":0,"o":"m 741 576 b 460 20 733 292 602 20 b 317 195 366 20 317 81 b 565 631 317 431 439 631 b 741 576 642 631 703 612 z m 741 624 b 572 665 699 650 641 665 b 113 248 322 665 113 522 b 453 -14 113 90 243 -14 b 949 586 737 -14 949 282 b 709 991 949 755 875 912 b 801 1076 785 1065 782 1059 l 806 1080 l 770 1125 l 765 1118 b 665 1009 738 1086 699 1044 b 441 1044 602 1031 528 1044 l 435 1010 b 610 955 507 1010 566 990 b 491 843 499 846 513 862 l 486 838 l 522 793 l 527 800 b 642 926 560 839 606 890 b 741 624 708 854 739 744 z "},"ñ":{"ha":1050,"x_min":0,"x_max":0,"o":"m 850 1006 l 864 1061 l 829 1069 l 815 1015 b 765 966 806 978 787 966 b 534 1099 704 966 609 1099 b 452 971 499 1099 471 1042 l 437 916 l 472 907 l 487 963 b 532 1005 495 994 511 1005 b 762 871 590 1005 685 871 b 850 1006 800 871 830 929 z m 337 658 b 151 551 262 658 195 638 l 111 474 l 123 468 l 163 545 b 224 609 183 585 207 609 b 245 563 236 609 245 595 b 239 511 245 549 243 532 l 159 30 b 157 20 159 29 157 21 b 250 0 157 7 204 0 l 332 0 b 345 7 336 0 345 3 l 418 293 b 447 408 425 324 437 365 l 616 547 b 711 597 646 572 684 597 b 750 536 741 597 750 571 b 727 396 750 492 735 434 l 711 323 b 693 178 700 274 693 224 b 862 -16 693 70 733 -16 b 1015 100 916 -16 973 19 l 1078 224 l 1066 231 l 1016 134 b 930 71 995 93 960 71 b 884 127 905 71 884 89 b 892 174 884 140 886 155 l 928 293 b 968 503 949 361 968 437 b 806 665 968 594 931 665 b 594 573 747 665 669 634 l 456 460 b 461 521 459 481 461 501 b 337 658 461 597 433 658 z "},"ò":{"ha":891,"x_min":0,"x_max":0,"o":"m 487 1106 l 431 1065 b 425 1052 426 1061 425 1057 b 430 1041 425 1048 427 1045 l 446 1021 l 666 855 l 685 871 l 513 1105 b 499 1112 509 1109 505 1112 b 487 1106 495 1112 491 1109 z m 449 20 b 317 172 359 20 317 64 b 568 631 317 401 425 631 b 695 455 651 631 695 570 b 449 20 695 206 591 20 z m 574 665 b 115 256 313 665 115 524 b 442 -14 115 92 238 -14 b 904 412 697 -14 904 149 b 574 665 904 577 791 665 z "},"ó":{"ha":891,"x_min":0,"x_max":0,"o":"m 680 1106 b 667 1112 675 1109 671 1112 b 654 1105 662 1112 658 1109 l 495 858 l 514 842 l 720 1021 l 736 1041 b 742 1052 739 1045 742 1048 b 735 1065 742 1057 741 1061 z m 449 20 b 317 172 359 20 317 64 b 568 631 317 401 425 631 b 695 455 651 631 695 570 b 449 20 695 206 591 20 z m 574 665 b 115 256 313 665 115 524 b 442 -14 115 92 238 -14 b 904 412 697 -14 904 149 b 574 665 904 577 791 665 z "},"ô":{"ha":891,"x_min":0,"x_max":0,"o":"m 609 1101 l 571 1101 l 377 905 b 433 864 402 878 419 864 b 490 912 449 864 463 881 b 589 1063 528 954 585 1043 l 591 1063 b 691 912 595 1043 653 954 b 749 864 718 881 733 864 b 804 905 763 864 779 878 z m 449 20 b 317 172 359 20 317 64 b 568 631 317 401 425 631 b 695 455 651 631 695 570 b 449 20 695 206 591 20 z m 574 665 b 115 256 313 665 115 524 b 442 -14 115 92 238 -14 b 904 412 697 -14 904 149 b 574 665 904 577 791 665 z "},"õ":{"ha":891,"x_min":0,"x_max":0,"o":"m 791 1006 l 804 1061 l 769 1069 l 755 1015 b 705 966 746 978 727 966 b 475 1099 644 966 549 1099 b 392 971 439 1099 411 1042 l 377 916 l 412 907 l 427 963 b 472 1005 435 994 452 1005 b 703 871 530 1005 625 871 b 791 1006 741 871 770 929 z m 449 20 b 317 172 359 20 317 64 b 568 631 317 401 425 631 b 695 455 651 631 695 570 b 449 20 695 206 591 20 z m 574 665 b 115 256 313 665 115 524 b 442 -14 115 92 238 -14 b 904 412 697 -14 904 149 b 574 665 904 577 791 665 z "},"ö":{"ha":891,"x_min":0,"x_max":0,"o":"m 374 1007 b 458 922 374 962 410 922 b 543 1007 503 922 543 958 b 458 1092 543 1058 509 1092 b 374 1007 408 1092 374 1058 z m 692 1007 b 777 922 692 962 728 922 b 862 1007 822 922 862 958 b 777 1092 862 1058 828 1092 b 692 1007 726 1092 692 1058 z m 449 20 b 317 172 359 20 317 64 b 568 631 317 401 425 631 b 695 455 651 631 695 570 b 449 20 695 206 591 20 z m 574 665 b 115 256 313 665 115 524 b 442 -14 115 92 238 -14 b 904 412 697 -14 904 149 b 574 665 904 577 791 665 z "},"÷":{"ha":719,"x_min":0,"x_max":0,"o":"m 345 247 b 450 142 345 190 391 142 b 555 247 507 142 555 187 b 450 352 555 310 513 352 b 345 247 387 352 345 310 z m 359 803 b 464 698 359 746 404 698 b 569 803 521 698 569 743 b 464 908 569 866 527 908 b 359 803 401 908 359 866 z m 443 503 b 724 496 619 503 701 498 l 731 496 l 737 553 l 729 553 b 477 545 677 548 534 545 b 198 551 311 545 214 550 l 192 551 l 185 494 l 193 495 b 443 503 248 499 389 503 z "},"ø":{"ha":891,"x_min":0,"x_max":0,"o":"m 449 20 b 321 120 376 20 334 50 l 524 326 l 694 492 b 695 455 694 480 695 468 b 449 20 695 206 591 20 z m 203 59 b 119 -20 159 16 128 -13 l 150 -60 b 239 34 161 -46 195 -11 b 442 -14 292 3 360 -14 b 904 412 697 -14 904 149 b 812 607 904 499 873 564 b 904 696 861 654 895 688 l 873 735 b 773 629 861 720 822 679 b 574 665 722 653 655 665 b 115 256 313 665 115 524 b 203 59 115 174 146 106 z m 317 171 l 317 172 b 568 631 317 401 425 631 b 685 538 628 631 668 600 l 507 356 z "},"ù":{"ha":1007,"x_min":0,"x_max":0,"o":"m 526 1106 l 471 1065 b 464 1052 465 1061 464 1057 b 469 1041 464 1048 467 1045 l 486 1021 l 705 855 l 724 871 l 552 1105 b 538 1112 548 1109 544 1112 b 526 1106 534 1112 530 1109 z m 297 667 b 158 551 243 667 199 632 l 95 427 l 106 420 l 157 517 b 229 581 178 558 206 581 b 261 530 248 581 261 565 b 254 477 261 515 259 498 l 224 358 b 199 181 210 300 199 237 b 351 -13 199 73 237 -13 b 551 78 407 -13 477 16 l 696 197 b 838 -12 696 52 756 -12 b 995 100 895 -12 957 26 l 1034 177 l 1022 183 l 983 106 b 901 42 962 66 928 42 b 861 101 879 42 861 60 b 865 140 861 113 863 125 l 975 629 l 975 631 b 882 651 975 644 928 651 l 770 651 b 756 644 764 651 757 649 l 711 358 b 699 243 707 326 701 286 l 530 104 b 425 58 500 80 457 58 b 378 128 389 58 378 89 b 404 255 378 169 391 219 l 430 328 b 463 490 451 382 463 439 b 297 667 463 589 418 667 z "},"ú":{"ha":1007,"x_min":0,"x_max":0,"o":"m 719 1106 b 707 1112 715 1109 711 1112 b 693 1105 701 1112 697 1109 l 534 858 l 553 842 l 760 1021 l 776 1041 b 781 1052 779 1045 781 1048 b 774 1065 781 1057 780 1061 z m 297 667 b 158 551 243 667 199 632 l 95 427 l 106 420 l 157 517 b 229 581 178 558 206 581 b 261 530 248 581 261 565 b 254 477 261 515 259 498 l 224 358 b 199 181 210 300 199 237 b 351 -13 199 73 237 -13 b 551 78 407 -13 477 16 l 696 197 b 838 -12 696 52 756 -12 b 995 100 895 -12 957 26 l 1034 177 l 1022 183 l 983 106 b 901 42 962 66 928 42 b 861 101 879 42 861 60 b 865 140 861 113 863 125 l 975 629 l 975 631 b 882 651 975 644 928 651 l 770 651 b 756 644 764 651 757 649 l 711 358 b 699 243 707 326 701 286 l 530 104 b 425 58 500 80 457 58 b 378 128 389 58 378 89 b 404 255 378 169 391 219 l 430 328 b 463 490 451 382 463 439 b 297 667 463 589 418 667 z "},"û":{"ha":1007,"x_min":0,"x_max":0,"o":"m 648 1101 l 610 1101 l 416 905 b 473 864 441 878 458 864 b 530 912 488 864 503 881 b 628 1063 568 954 624 1043 l 631 1063 b 730 912 635 1043 692 954 b 788 864 758 881 772 864 b 844 905 802 864 819 878 z m 297 667 b 158 551 243 667 199 632 l 95 427 l 106 420 l 157 517 b 229 581 178 558 206 581 b 261 530 248 581 261 565 b 254 477 261 515 259 498 l 224 358 b 199 181 210 300 199 237 b 351 -13 199 73 237 -13 b 551 78 407 -13 477 16 l 696 197 b 838 -12 696 52 756 -12 b 995 100 895 -12 957 26 l 1034 177 l 1022 183 l 983 106 b 901 42 962 66 928 42 b 861 101 879 42 861 60 b 865 140 861 113 863 125 l 975 629 l 975 631 b 882 651 975 644 928 651 l 770 651 b 756 644 764 651 757 649 l 711 358 b 699 243 707 326 701 286 l 530 104 b 425 58 500 80 457 58 b 378 128 389 58 378 89 b 404 255 378 169 391 219 l 430 328 b 463 490 451 382 463 439 b 297 667 463 589 418 667 z "},"ü":{"ha":1007,"x_min":0,"x_max":0,"o":"m 386 1007 b 471 922 386 962 422 922 b 555 1007 515 922 555 958 b 471 1092 555 1058 522 1092 b 386 1007 420 1092 386 1058 z m 705 1007 b 789 922 705 962 741 922 b 874 1007 834 922 874 958 b 789 1092 874 1058 840 1092 b 705 1007 739 1092 705 1058 z m 297 667 b 158 551 243 667 199 632 l 95 427 l 106 420 l 157 517 b 229 581 178 558 206 581 b 261 530 248 581 261 565 b 254 477 261 515 259 498 l 224 358 b 199 181 210 300 199 237 b 351 -13 199 73 237 -13 b 551 78 407 -13 477 16 l 696 197 b 838 -12 696 52 756 -12 b 995 100 895 -12 957 26 l 1034 177 l 1022 183 l 983 106 b 901 42 962 66 928 42 b 861 101 879 42 861 60 b 865 140 861 113 863 125 l 975 629 l 975 631 b 882 651 975 644 928 651 l 770 651 b 756 644 764 651 757 649 l 711 358 b 699 243 707 326 701 286 l 530 104 b 425 58 500 80 457 58 b 378 128 389 58 378 89 b 404 255 378 169 391 219 l 430 328 b 463 490 451 382 463 439 b 297 667 463 589 418 667 z "},"ý":{"ha":873,"x_min":0,"x_max":0,"o":"m 692 1106 b 680 1112 688 1109 684 1112 b 666 1105 674 1112 670 1109 l 507 858 l 526 842 l 732 1021 l 749 1041 b 754 1052 751 1045 754 1048 b 747 1065 754 1057 753 1061 z m 138 551 l 106 490 l 118 482 l 136 517 b 191 581 159 563 177 581 b 233 387 227 581 233 509 b 533 -108 233 98 427 -64 b 307 -231 464 -178 385 -231 b 154 19 165 -231 154 -131 b 21 -90 74 19 21 -24 b 297 -278 21 -203 132 -278 b 648 -45 418 -278 543 -178 b 903 536 795 142 903 396 b 783 675 903 619 855 675 b 666 568 715 675 683 593 b 805 383 725 543 805 471 b 621 -7 805 283 726 130 b 446 379 490 45 446 212 b 452 504 446 421 452 461 b 276 667 452 602 381 667 b 138 551 222 667 179 632 z "},"þ":{"ha":1020,"x_min":0,"x_max":0,"o":"m 359 115 b 585 -14 385 31 459 -14 b 1019 393 845 -14 1019 145 b 717 658 1019 555 905 658 b 450 515 580 658 501 593 l 504 753 b 585 1112 517 811 578 1038 l 420 1111 l 220 1113 l 218 1099 b 334 1045 307 1099 334 1093 b 323 965 334 1025 330 1000 l 125 -49 b 97 -250 103 -163 97 -221 b 114 -278 97 -273 103 -278 l 273 -278 b 302 -132 281 -227 287 -196 z m 417 370 b 657 612 457 473 530 612 b 809 456 749 612 809 549 b 530 22 809 170 711 22 b 374 184 465 22 374 65 z "},"ÿ":{"ha":873,"x_min":0,"x_max":0,"o":"m 359 1007 b 444 922 359 962 394 922 b 528 1007 488 922 528 958 b 444 1092 528 1058 494 1092 b 359 1007 393 1092 359 1058 z m 677 1007 b 762 922 677 962 713 922 b 847 1007 807 922 847 958 b 762 1092 847 1058 813 1092 b 677 1007 711 1092 677 1058 z m 138 551 l 106 490 l 118 482 l 136 517 b 191 581 159 563 177 581 b 233 387 227 581 233 509 b 533 -108 233 98 427 -64 b 307 -231 464 -178 385 -231 b 154 19 165 -231 154 -131 b 21 -90 74 19 21 -24 b 297 -278 21 -203 132 -278 b 648 -45 418 -278 543 -178 b 903 536 795 142 903 396 b 783 675 903 619 855 675 b 666 568 715 675 683 593 b 805 383 725 543 805 471 b 621 -7 805 283 726 130 b 446 379 490 45 446 212 b 452 504 446 421 452 461 b 276 667 452 602 381 667 b 138 551 222 667 179 632 z "},"Ā":{"ha":1349,"x_min":0,"x_max":0,"o":"m 991 1429 b 1204 1422 1144 1429 1184 1423 l 1211 1421 l 1217 1479 l 1209 1478 b 1025 1471 1158 1474 1078 1471 b 803 1477 875 1471 823 1476 l 797 1477 l 790 1420 l 798 1421 b 991 1429 851 1425 938 1429 z m 654 331 b 954 261 749 309 854 279 b 1501 -336 1002 -103 1209 -336 b 1771 -194 1693 -336 1771 -254 b 1648 -118 1771 -149 1722 -118 b 1474 -259 1629 -217 1570 -259 b 1097 245 1192 -259 1111 -174 b 1352 425 1226 245 1325 284 l 1332 441 b 1096 343 1308 370 1215 346 b 1095 393 1095 359 1095 376 b 1116 837 1095 535 1116 694 b 908 1244 1116 1025 1080 1187 b 910 1214 909 1235 910 1225 b 841 932 910 1114 861 951 b 871 901 852 925 863 914 b 634 381 806 799 728 576 b 484 391 580 387 529 391 b 109 116 256 391 109 304 b 296 -45 109 20 184 -45 b 654 331 433 -45 557 133 z m 614 339 b 308 16 536 191 425 16 b 159 136 218 16 159 64 b 477 357 159 287 290 357 b 614 339 517 357 564 350 z m 676 377 b 889 868 765 568 836 773 b 943 429 930 772 943 598 b 945 349 943 401 943 375 b 676 377 857 355 764 368 z "},"ā":{"ha":1065,"x_min":0,"x_max":0,"o":"m 604 968 b 817 961 756 968 797 962 l 824 960 l 830 1018 l 822 1017 b 637 1010 770 1013 690 1010 b 416 1016 487 1010 435 1015 l 410 1016 l 403 959 l 411 960 b 604 968 463 964 550 968 z m 855 651 b 756 572 840 651 787 643 b 547 665 722 633 654 665 b 114 251 288 665 114 499 b 415 -14 114 92 235 -14 b 718 193 588 -14 668 89 b 876 -14 718 60 794 -14 b 1034 100 934 -14 995 23 l 1094 218 l 1082 224 l 1036 134 b 940 70 1015 93 975 70 b 878 142 906 70 878 92 b 881 174 878 151 879 162 l 912 293 b 989 651 928 351 983 577 z m 735 551 b 739 532 738 547 739 540 b 736 505 739 522 737 511 l 724 327 b 714 269 724 318 720 283 b 475 33 674 165 602 33 b 323 188 376 33 323 87 b 602 629 323 452 435 629 b 735 551 649 629 707 606 z "},"Ă":{"ha":1349,"x_min":0,"x_max":0,"o":"m 777 1544 b 990 1328 846 1413 892 1328 b 1204 1544 1096 1328 1148 1421 l 1175 1559 b 990 1404 1118 1476 1080 1404 b 812 1559 916 1404 881 1458 z m 654 331 b 954 261 749 309 854 279 b 1501 -336 1002 -103 1209 -336 b 1771 -194 1693 -336 1771 -254 b 1648 -118 1771 -149 1722 -118 b 1474 -259 1629 -217 1570 -259 b 1097 245 1192 -259 1111 -174 b 1352 425 1226 245 1325 284 l 1332 441 b 1096 343 1308 370 1215 346 b 1095 393 1095 359 1095 376 b 1116 837 1095 535 1116 694 b 908 1244 1116 1025 1080 1187 b 910 1214 909 1235 910 1225 b 841 932 910 1114 861 951 b 871 901 852 925 863 914 b 634 381 806 799 728 576 b 484 391 580 387 529 391 b 109 116 256 391 109 304 b 296 -45 109 20 184 -45 b 654 331 433 -45 557 133 z m 614 339 b 308 16 536 191 425 16 b 159 136 218 16 159 64 b 477 357 159 287 290 357 b 614 339 517 357 564 350 z m 676 377 b 889 868 765 568 836 773 b 943 429 930 772 943 598 b 945 349 943 401 943 375 b 676 377 857 355 764 368 z "},"ă":{"ha":1065,"x_min":0,"x_max":0,"o":"m 389 1083 b 602 867 459 951 505 867 b 817 1083 708 867 761 960 l 787 1098 b 603 943 730 1015 692 943 b 425 1098 528 943 494 997 z m 855 651 b 756 572 840 651 787 643 b 547 665 722 633 654 665 b 114 251 288 665 114 499 b 415 -14 114 92 235 -14 b 718 193 588 -14 668 89 b 876 -14 718 60 794 -14 b 1034 100 934 -14 995 23 l 1094 218 l 1082 224 l 1036 134 b 940 70 1015 93 975 70 b 878 142 906 70 878 92 b 881 174 878 151 879 162 l 912 293 b 989 651 928 351 983 577 z m 735 551 b 739 532 738 547 739 540 b 736 505 739 522 737 511 l 724 327 b 714 269 724 318 720 283 b 475 33 674 165 602 33 b 323 188 376 33 323 87 b 602 629 323 452 435 629 b 735 551 649 629 707 606 z "},"Ą":{"ha":1434,"x_min":0,"x_max":0,"o":"m 614 339 l 583 281 b 288 14 531 184 410 14 b 158 125 210 14 158 58 b 477 357 158 276 269 357 b 614 339 517 357 564 350 z m 887 865 b 954 348 927 753 924 537 b 676 377 863 355 766 367 b 887 865 764 566 835 768 z m 841 932 b 871 900 852 925 863 913 b 634 381 806 797 728 576 b 484 391 580 387 529 391 b 109 99 240 391 109 289 b 262 -47 109 11 170 -47 b 618 262 407 -47 556 146 l 654 331 b 970 258 754 308 866 276 b 1221 -13 1005 105 1073 -13 b 1284 -1 1240 -13 1261 -9 b 1162 -175 1232 -55 1162 -115 b 1305 -277 1162 -237 1220 -277 b 1418 -195 1373 -277 1418 -244 b 1399 -149 1418 -180 1413 -164 b 1312 -206 1383 -174 1354 -206 b 1228 -142 1262 -206 1228 -180 b 1335 15 1228 -96 1284 -44 b 1399 104 1360 43 1383 73 l 1462 229 l 1451 235 l 1400 138 b 1266 50 1358 55 1306 50 b 1094 245 1145 50 1104 117 b 1107 245 1098 245 1103 245 b 1352 425 1230 245 1326 288 l 1332 441 b 1092 343 1307 369 1213 345 b 1120 810 1095 484 1120 654 b 908 1244 1120 1010 1080 1186 b 910 1214 909 1235 910 1225 b 841 932 910 1114 861 951 z "},"ą":{"ha":1065,"x_min":0,"x_max":0,"o":"m 735 551 b 739 532 738 547 739 540 b 736 505 739 522 737 511 l 724 327 b 714 269 724 318 720 283 b 475 33 674 165 602 33 b 323 188 376 33 323 87 b 602 629 323 452 435 629 b 735 551 649 629 707 606 z m 855 651 b 756 572 840 651 787 643 b 547 665 722 633 654 665 b 114 251 288 665 114 499 b 415 -14 114 92 235 -14 b 718 193 588 -14 668 89 b 876 -14 718 60 794 -14 b 920 -7 890 -14 905 -12 b 803 -181 868 -60 803 -115 b 947 -277 803 -229 850 -277 b 1059 -195 1015 -277 1059 -244 b 1040 -149 1059 -180 1054 -164 b 954 -206 1024 -174 995 -206 b 869 -145 891 -206 869 -173 b 983 24 869 -92 947 -22 b 1034 100 1003 49 1021 74 l 1094 218 l 1082 224 l 1036 134 b 940 70 1015 93 975 70 b 878 142 906 70 878 92 b 881 174 878 151 879 162 l 912 293 b 989 651 928 351 983 577 z "},"Ć":{"ha":1199,"x_min":0,"x_max":0,"o":"m 943 1486 b 931 1491 939 1489 935 1491 b 918 1485 926 1491 922 1489 l 759 1238 l 778 1221 l 984 1400 l 1000 1421 b 1006 1432 1003 1425 1006 1428 b 999 1445 1006 1437 1004 1441 z m 1201 290 l 1178 311 b 639 46 1046 134 876 46 b 391 345 478 46 391 151 b 846 1090 391 792 573 1090 b 1170 777 1107 1090 1152 972 b 1309 889 1253 777 1309 821 b 852 1124 1309 1065 1013 1124 b 177 423 447 1124 177 844 b 631 -14 177 161 359 -14 b 1201 290 877 -14 1059 101 z "},"ć":{"ha":840,"x_min":0,"x_max":0,"o":"m 675 1106 b 663 1112 671 1109 667 1112 b 649 1105 657 1112 653 1109 l 490 858 l 509 842 l 715 1021 l 732 1041 b 737 1052 734 1045 737 1048 b 730 1065 737 1057 736 1061 z m 568 631 b 734 480 678 631 734 597 b 723 375 734 451 730 416 b 743 373 728 374 735 373 b 884 476 793 373 884 401 b 574 665 884 599 734 665 b 115 256 313 665 115 524 b 442 -14 115 92 239 -14 b 799 133 589 -14 716 41 l 774 155 b 504 33 720 90 604 33 b 324 198 379 33 324 79 b 568 631 324 414 439 630 z "},"Ĉ":{"ha":1199,"x_min":0,"x_max":0,"o":"m 873 1480 l 835 1480 l 641 1285 b 697 1244 666 1257 683 1244 b 754 1292 713 1244 727 1261 b 852 1443 792 1334 848 1423 l 855 1443 b 955 1292 859 1423 917 1334 b 1013 1244 982 1261 997 1244 b 1068 1285 1027 1244 1043 1257 z m 1201 290 l 1178 311 b 639 46 1046 134 876 46 b 391 345 478 46 391 151 b 846 1090 391 792 573 1090 b 1170 777 1107 1090 1152 972 b 1309 889 1253 777 1309 821 b 852 1124 1309 1065 1013 1124 b 177 423 447 1124 177 844 b 631 -14 177 161 359 -14 b 1201 290 877 -14 1059 101 z "},"ĉ":{"ha":840,"x_min":0,"x_max":0,"o":"m 604 1101 l 566 1101 l 372 905 b 429 864 397 878 414 864 b 486 912 444 864 458 881 b 584 1063 524 954 580 1043 l 587 1063 b 686 912 591 1043 648 954 b 744 864 713 881 728 864 b 800 905 758 864 774 878 z m 568 631 b 734 480 678 631 734 597 b 723 375 734 451 730 416 b 743 373 728 374 735 373 b 884 476 793 373 884 401 b 574 665 884 599 734 665 b 115 256 313 665 115 524 b 442 -14 115 92 239 -14 b 799 133 589 -14 716 41 l 774 155 b 504 33 720 90 604 33 b 324 198 379 33 324 79 b 568 631 324 414 439 630 z "},"Ċ":{"ha":1199,"x_min":0,"x_max":0,"o":"m 736 1387 b 841 1282 736 1330 782 1282 b 946 1387 898 1282 946 1327 b 841 1492 946 1444 901 1492 b 736 1387 785 1492 736 1447 z m 1201 290 l 1178 311 b 639 46 1046 134 876 46 b 391 345 478 46 391 151 b 846 1090 391 792 573 1090 b 1170 777 1107 1090 1152 972 b 1309 889 1253 777 1309 821 b 852 1124 1309 1065 1013 1124 b 177 423 447 1124 177 844 b 631 -14 177 161 359 -14 b 1201 290 877 -14 1059 101 z "},"ċ":{"ha":840,"x_min":0,"x_max":0,"o":"m 467 1007 b 572 902 467 950 513 902 b 677 1007 629 902 677 947 b 572 1112 677 1064 631 1112 b 467 1007 515 1112 467 1067 z m 568 631 b 734 480 678 631 734 597 b 723 375 734 451 730 416 b 743 373 728 374 735 373 b 884 476 793 373 884 401 b 574 665 884 599 734 665 b 115 256 313 665 115 524 b 442 -14 115 92 239 -14 b 799 133 589 -14 716 41 l 774 155 b 504 33 720 90 604 33 b 324 198 379 33 324 79 b 568 631 324 414 439 630 z "},"Č":{"ha":1199,"x_min":0,"x_max":0,"o":"m 873 1244 l 1068 1439 b 1011 1480 1043 1467 1025 1480 b 954 1432 996 1480 981 1463 b 855 1281 916 1390 859 1301 l 852 1281 b 755 1432 848 1301 793 1390 b 699 1480 728 1463 714 1480 b 641 1439 684 1480 666 1467 l 835 1244 z m 1201 290 l 1178 311 b 639 46 1046 134 876 46 b 391 345 478 46 391 151 b 846 1090 391 792 573 1090 b 1170 777 1107 1090 1152 972 b 1309 889 1253 777 1309 821 b 852 1124 1309 1065 1013 1124 b 177 423 447 1124 177 844 b 631 -14 177 161 359 -14 b 1201 290 877 -14 1059 101 z "},"č":{"ha":840,"x_min":0,"x_max":0,"o":"m 604 864 l 800 1059 b 743 1101 774 1087 757 1101 b 685 1053 727 1101 712 1084 b 587 901 647 1010 591 922 l 584 901 b 487 1053 580 922 525 1010 b 430 1101 460 1084 446 1101 b 372 1059 416 1101 397 1087 l 566 864 z m 568 631 b 734 480 678 631 734 597 b 723 375 734 451 730 416 b 743 373 728 374 735 373 b 884 476 793 373 884 401 b 574 665 884 599 734 665 b 115 256 313 665 115 524 b 442 -14 115 92 239 -14 b 799 133 589 -14 716 41 l 774 155 b 504 33 720 90 604 33 b 324 198 379 33 324 79 b 568 631 324 414 439 630 z "},"Ď":{"ha":1319,"x_min":0,"x_max":0,"o":"m 944 1218 l 1139 1413 b 1082 1455 1114 1441 1097 1455 b 1025 1407 1067 1455 1052 1438 b 926 1255 987 1364 930 1276 l 924 1255 b 827 1407 920 1276 865 1364 b 770 1455 800 1438 785 1455 b 712 1413 755 1455 737 1441 l 906 1218 z m 884 1111 b 286 1122 854 1111 317 1120 l 282 1080 b 379 1082 296 1081 331 1082 b 456 1026 437 1082 456 1068 b 447 949 456 1007 452 982 l 291 37 l 124 39 l 113 -1 b 682 -14 302 -5 606 -14 b 1371 704 1059 -14 1371 271 b 884 1111 1371 970 1204 1111 z m 465 33 l 625 739 b 704 1079 637 793 691 991 b 878 1077 790 1078 860 1077 b 1153 750 1059 1076 1153 964 b 690 26 1153 313 964 26 b 465 33 615 26 540 30 z "},"ď":{"ha":1241,"x_min":0,"x_max":0,"o":"m 1166 939 b 1271 834 1166 876 1213 834 b 1180 703 1235 799 1196 760 l 1213 693 b 1361 885 1235 774 1316 810 b 1376 939 1371 901 1376 920 b 1271 1044 1376 1008 1339 1044 b 1166 939 1202 1044 1166 1008 z m 816 1031 l 814 1017 l 814 1017 b 837 989 828 1017 837 1017 b 824 884 837 969 833 937 l 767 545 b 547 665 739 623 668 665 b 114 251 316 665 114 504 b 415 -14 114 90 227 -14 b 719 197 590 -14 670 92 b 881 -13 719 62 795 -13 b 1041 100 940 -13 1002 23 l 1101 218 l 1089 224 l 1042 134 b 947 70 1021 93 981 70 b 884 142 913 70 884 92 b 888 174 884 151 885 162 l 1032 802 b 1057 936 1043 850 1057 897 b 922 1031 1057 991 1028 1031 z m 754 467 l 730 327 b 715 275 728 307 721 290 b 475 33 675 171 602 33 b 323 188 370 33 323 77 b 602 629 323 427 437 629 b 754 467 667 629 754 585 z "},"Đ":{"ha":1346,"x_min":0,"x_max":0,"o":"m 492 33 l 608 543 b 847 537 739 541 822 538 l 854 536 l 860 594 l 852 593 b 618 587 814 590 703 588 l 652 739 b 731 1079 665 793 718 991 b 905 1077 817 1078 887 1077 b 1180 750 1086 1076 1180 964 b 718 26 1180 313 991 26 b 492 33 642 26 567 30 z m 911 1111 b 313 1122 881 1111 345 1120 l 309 1080 b 406 1082 323 1081 358 1082 b 484 1026 464 1082 484 1068 b 474 949 484 1007 479 982 l 412 587 b 199 592 294 589 222 590 l 193 592 l 186 535 l 194 536 b 405 543 230 538 326 541 l 318 37 l 151 39 l 140 -1 b 709 -14 329 -5 633 -14 b 1398 704 1086 -14 1398 271 b 911 1111 1398 970 1232 1111 z "},"đ":{"ha":1072,"x_min":0,"x_max":0,"o":"m 754 467 l 730 327 b 715 275 728 307 721 290 b 475 33 675 171 602 33 b 323 188 370 33 323 77 b 602 629 323 427 437 629 b 754 467 667 629 754 585 z m 816 1031 l 814 1017 l 814 1017 b 837 989 828 1017 837 1017 b 824 884 837 969 833 937 l 819 858 b 612 863 680 859 640 861 l 606 863 l 600 806 l 608 807 b 812 814 650 810 745 813 l 767 545 b 547 665 739 623 668 665 b 114 251 316 665 114 504 b 415 -14 114 90 227 -14 b 719 197 590 -14 670 92 b 881 -13 719 62 795 -13 b 1041 100 940 -13 1002 23 l 1101 218 l 1089 224 l 1042 134 b 947 70 1021 93 981 70 b 884 142 913 70 884 92 b 888 174 884 151 885 162 l 1032 802 l 1034 812 b 1139 808 1093 811 1120 809 l 1145 808 l 1152 865 l 1143 865 b 1046 860 1122 863 1086 861 b 1057 936 1052 887 1057 913 b 922 1031 1057 991 1028 1031 z "},"Ē":{"ha":1139,"x_min":0,"x_max":0,"o":"m 801 1348 b 1015 1341 954 1348 994 1342 l 1021 1340 l 1027 1398 l 1019 1397 b 834 1390 967 1393 888 1390 b 613 1396 684 1390 632 1394 l 606 1396 l 600 1339 l 608 1339 b 801 1348 661 1343 747 1348 z m 113 -1 l 352 -1 b 893 -79 619 -1 777 -79 b 1107 100 977 -79 1040 -39 l 1166 224 l 1154 231 l 1097 115 b 718 32 1063 45 907 32 b 479 35 642 32 560 34 l 598 562 l 931 562 l 933 610 l 606 597 l 637 732 b 709 1069 649 785 696 980 b 910 1061 774 1065 844 1061 b 1244 1212 1050 1061 1244 1088 b 1131 1309 1244 1270 1198 1309 b 523 1112 1074 1114 897 1112 b 317 1114 492 1112 349 1113 l 321 1073 b 367 1076 334 1074 351 1076 b 469 1020 445 1076 469 1067 b 459 944 469 1001 465 977 l 304 37 l 116 39 z "},"ē":{"ha":837,"x_min":0,"x_max":0,"o":"m 600 968 b 813 961 752 968 793 962 l 820 960 l 826 1018 l 818 1017 b 633 1010 766 1013 686 1010 b 412 1016 483 1010 431 1015 l 406 1016 l 399 959 l 407 960 b 600 968 459 964 546 968 z m 325 220 b 869 497 615 222 869 315 b 574 665 869 607 767 665 b 115 256 313 665 115 524 b 442 -14 115 92 239 -14 b 799 133 589 -14 716 41 l 774 155 b 504 33 720 90 604 33 b 324 198 379 33 324 79 b 325 220 324 205 324 212 z m 327 254 b 568 631 344 450 448 631 b 681 515 642 631 681 591 b 327 254 681 330 545 254 z "},"Ĕ":{"ha":1139,"x_min":0,"x_max":0,"o":"m 586 1463 b 800 1246 656 1331 702 1246 b 1013 1463 905 1246 958 1339 l 985 1478 b 800 1323 928 1395 890 1323 b 623 1478 726 1323 690 1377 z m 113 -1 l 352 -1 b 893 -79 619 -1 777 -79 b 1107 100 977 -79 1040 -39 l 1166 224 l 1154 231 l 1097 115 b 718 32 1063 45 907 32 b 479 35 642 32 560 34 l 598 562 l 931 562 l 933 610 l 606 597 l 637 732 b 709 1069 649 785 696 980 b 910 1061 774 1065 844 1061 b 1244 1212 1050 1061 1244 1088 b 1131 1309 1244 1270 1198 1309 b 523 1112 1074 1114 897 1112 b 317 1114 492 1112 349 1113 l 321 1073 b 367 1076 334 1074 351 1076 b 469 1020 445 1076 469 1067 b 459 944 469 1001 465 977 l 304 37 l 116 39 z "},"ĕ":{"ha":837,"x_min":0,"x_max":0,"o":"m 385 1083 b 598 867 455 951 500 867 b 812 1083 704 867 757 960 l 783 1098 b 599 943 726 1015 688 943 b 421 1098 524 943 490 997 z m 325 220 b 869 497 615 222 869 315 b 574 665 869 607 767 665 b 115 256 313 665 115 524 b 442 -14 115 92 239 -14 b 799 133 589 -14 716 41 l 774 155 b 504 33 720 90 604 33 b 324 198 379 33 324 79 b 325 220 324 205 324 212 z m 327 254 b 568 631 344 450 448 631 b 681 515 642 631 681 591 b 327 254 681 330 545 254 z "},"Ė":{"ha":1139,"x_min":0,"x_max":0,"o":"m 688 1387 b 793 1282 688 1330 734 1282 b 898 1387 850 1282 898 1327 b 793 1492 898 1444 852 1492 b 688 1387 736 1492 688 1447 z m 113 -1 l 352 -1 b 893 -79 619 -1 777 -79 b 1107 100 977 -79 1040 -39 l 1166 224 l 1154 231 l 1097 115 b 718 32 1063 45 907 32 b 479 35 642 32 560 34 l 598 562 l 931 562 l 933 610 l 606 597 l 637 732 b 709 1069 649 785 696 980 b 910 1061 774 1065 844 1061 b 1244 1212 1050 1061 1244 1088 b 1131 1309 1244 1270 1198 1309 b 523 1112 1074 1114 897 1112 b 317 1114 492 1112 349 1113 l 321 1073 b 367 1076 334 1074 351 1076 b 469 1020 445 1076 469 1067 b 459 944 469 1001 465 977 l 304 37 l 116 39 z "},"ė":{"ha":837,"x_min":0,"x_max":0,"o":"m 467 1007 b 572 902 467 950 512 902 b 677 1007 628 902 677 947 b 572 1112 677 1064 631 1112 b 467 1007 515 1112 467 1067 z m 325 220 b 869 497 615 222 869 315 b 574 665 869 607 767 665 b 115 256 313 665 115 524 b 442 -14 115 92 239 -14 b 799 133 589 -14 716 41 l 774 155 b 504 33 720 90 604 33 b 324 198 379 33 324 79 b 325 220 324 205 324 212 z m 327 254 b 568 631 344 450 448 631 b 681 515 642 631 681 591 b 327 254 681 330 545 254 z "},"Ę":{"ha":1139,"x_min":0,"x_max":0,"o":"m 113 -1 l 352 -1 b 911 -38 619 -1 795 -38 b 970 -28 929 -38 953 -35 l 971 -30 b 867 -191 924 -78 867 -136 b 1008 -291 867 -251 923 -291 b 1120 -209 1067 -291 1120 -254 b 1101 -162 1120 -194 1115 -178 b 1015 -220 1085 -187 1056 -220 b 930 -156 964 -220 930 -194 b 1042 10 930 -119 987 -56 b 1125 141 1078 55 1107 103 l 1166 224 l 1154 231 l 1137 197 b 505 35 1079 79 739 35 b 479 35 496 35 488 35 l 598 562 l 931 562 l 933 610 l 606 597 l 637 732 b 709 1069 649 785 696 980 b 910 1061 774 1065 844 1061 b 1244 1212 1050 1061 1244 1088 b 1131 1309 1244 1270 1198 1309 b 523 1112 1074 1114 897 1112 b 317 1114 492 1112 349 1113 l 321 1073 b 367 1076 334 1074 351 1076 b 469 1020 445 1076 469 1067 b 459 944 469 1001 465 977 l 304 37 l 116 39 z "},"ę":{"ha":837,"x_min":0,"x_max":0,"o":"m 668 -279 b 781 -197 728 -279 781 -241 b 762 -150 781 -182 774 -165 b 675 -208 745 -175 716 -208 b 591 -144 625 -208 591 -182 b 730 56 591 -110 631 -54 l 799 133 l 774 155 b 504 33 720 90 604 33 b 324 198 379 33 324 79 b 325 220 324 205 324 212 b 869 497 615 222 869 315 b 574 665 869 607 767 665 b 115 256 313 665 115 524 b 442 -14 115 92 239 -14 b 670 39 519 -14 604 6 l 672 37 b 522 -178 614 -26 522 -106 b 668 -279 522 -224 570 -279 z m 327 254 b 568 631 344 450 448 631 b 681 515 642 631 681 591 b 327 254 681 330 545 254 z "},"Ě":{"ha":1139,"x_min":0,"x_max":0,"o":"m 804 1244 l 1000 1439 b 943 1480 975 1467 958 1480 b 886 1432 928 1480 913 1463 b 787 1281 848 1390 791 1301 l 784 1281 b 688 1432 780 1301 726 1390 b 631 1480 661 1463 646 1480 b 572 1439 616 1480 598 1467 l 766 1244 z m 113 -1 l 352 -1 b 893 -79 619 -1 777 -79 b 1107 100 977 -79 1040 -39 l 1166 224 l 1154 231 l 1097 115 b 718 32 1063 45 907 32 b 479 35 642 32 560 34 l 598 562 l 931 562 l 933 610 l 606 597 l 637 732 b 709 1069 649 785 696 980 b 910 1061 774 1065 844 1061 b 1244 1212 1050 1061 1244 1088 b 1131 1309 1244 1270 1198 1309 b 523 1112 1074 1114 897 1112 b 317 1114 492 1112 349 1113 l 321 1073 b 367 1076 334 1074 351 1076 b 469 1020 445 1076 469 1067 b 459 944 469 1001 465 977 l 304 37 l 116 39 z "},"ě":{"ha":837,"x_min":0,"x_max":0,"o":"m 604 864 l 799 1059 b 742 1101 774 1087 756 1101 b 684 1053 726 1101 711 1084 b 586 901 646 1010 590 922 l 583 901 b 486 1053 579 922 524 1010 b 429 1101 459 1084 445 1101 b 372 1059 415 1101 397 1087 l 566 864 z m 325 220 b 869 497 615 222 869 315 b 574 665 869 607 767 665 b 115 256 313 665 115 524 b 442 -14 115 92 239 -14 b 799 133 589 -14 716 41 l 774 155 b 504 33 720 90 604 33 b 324 198 379 33 324 79 b 325 220 324 205 324 212 z m 327 254 b 568 631 344 450 448 631 b 681 515 642 631 681 591 b 327 254 681 330 545 254 z "},"Ĝ":{"ha":1268,"x_min":0,"x_max":0,"o":"m 874 1480 l 836 1480 l 642 1285 b 699 1244 667 1257 684 1244 b 755 1292 714 1244 728 1261 b 854 1443 793 1334 850 1423 l 857 1443 b 956 1292 861 1423 918 1334 b 1014 1244 983 1261 998 1244 b 1069 1285 1028 1244 1044 1257 z m 1016 348 l 1010 311 b 639 26 977 140 829 26 b 391 345 478 26 391 138 b 846 1090 391 792 573 1090 b 1170 777 1107 1090 1152 972 b 1309 889 1208 777 1309 821 b 852 1124 1309 1065 1013 1124 b 177 423 447 1124 177 844 b 631 -14 177 161 359 -14 b 993 177 789 -14 920 59 l 989 0 l 1158 0 l 1196 156 b 1279 536 1211 214 1272 462 l 1117 528 b 675 530 1117 528 753 529 l 665 485 l 912 496 b 1026 440 1001 496 1026 489 b 1016 348 1026 421 1021 382 z "},"ĝ":{"ha":823,"x_min":0,"x_max":0,"o":"m 533 1101 l 495 1101 l 301 905 b 357 864 326 878 343 864 b 414 912 373 864 387 881 b 513 1063 452 954 509 1043 l 515 1063 b 615 912 519 1043 577 954 b 673 864 642 881 657 864 b 728 905 687 864 703 878 z m 418 251 b 304 358 339 251 304 281 b 492 631 304 512 379 631 b 605 508 567 631 605 589 b 418 251 605 345 533 251 z m 383 -244 b 142 -143 239 -244 142 -203 b 153 -98 142 -129 146 -114 b 126 -93 147 -95 138 -93 b 54 -159 96 -93 54 -107 l 54 -160 b 377 -278 54 -231 183 -278 b 783 -14 608 -278 783 -208 b 607 153 783 115 693 153 b 256 89 494 153 346 89 b 183 153 212 89 183 104 b 248 227 183 171 202 205 l 273 238 b 412 217 311 224 359 217 b 772 490 612 217 772 316 b 697 624 772 549 747 595 b 751 635 716 631 734 635 b 836 551 802 635 831 602 b 911 618 854 551 911 577 b 833 677 911 654 886 677 b 678 634 788 677 731 659 b 499 665 634 654 574 665 b 140 402 292 665 140 579 b 234 255 140 338 174 287 l 210 244 b 92 66 127 205 92 119 b 291 -65 92 -33 179 -65 b 604 -43 396 -65 520 -43 b 700 -89 662 -43 700 -54 b 383 -244 700 -184 545 -244 z "},"Ğ":{"ha":1268,"x_min":0,"x_max":0,"o":"m 656 1463 b 869 1246 726 1331 772 1246 b 1083 1463 975 1246 1027 1339 l 1054 1478 b 869 1323 997 1395 959 1323 b 692 1478 795 1323 760 1377 z m 1016 348 l 1010 311 b 639 26 977 140 829 26 b 391 345 478 26 391 138 b 846 1090 391 792 573 1090 b 1170 777 1107 1090 1152 972 b 1309 889 1208 777 1309 821 b 852 1124 1309 1065 1013 1124 b 177 423 447 1124 177 844 b 631 -14 177 161 359 -14 b 993 177 789 -14 920 59 l 989 0 l 1158 0 l 1196 156 b 1279 536 1211 214 1272 462 l 1117 528 b 675 530 1117 528 753 529 l 665 485 l 912 496 b 1026 440 1001 496 1026 489 b 1016 348 1026 421 1021 382 z "},"ğ":{"ha":823,"x_min":0,"x_max":0,"o":"m 315 1083 b 528 867 385 951 430 867 b 742 1083 633 867 686 960 l 713 1098 b 528 943 656 1015 618 943 b 351 1098 454 943 419 997 z m 418 251 b 304 358 339 251 304 281 b 492 631 304 512 379 631 b 605 508 567 631 605 589 b 418 251 605 345 533 251 z m 383 -244 b 142 -143 239 -244 142 -203 b 153 -98 142 -129 146 -114 b 126 -93 147 -95 138 -93 b 54 -159 96 -93 54 -107 l 54 -160 b 377 -278 54 -231 183 -278 b 783 -14 608 -278 783 -208 b 607 153 783 115 693 153 b 256 89 494 153 346 89 b 183 153 212 89 183 104 b 248 227 183 171 202 205 l 273 238 b 412 217 311 224 359 217 b 772 490 612 217 772 316 b 697 624 772 549 747 595 b 751 635 716 631 734 635 b 836 551 802 635 831 602 b 911 618 854 551 911 577 b 833 677 911 654 886 677 b 678 634 788 677 731 659 b 499 665 634 654 574 665 b 140 402 292 665 140 579 b 234 255 140 338 174 287 l 210 244 b 92 66 127 205 92 119 b 291 -65 92 -33 179 -65 b 604 -43 396 -65 520 -43 b 700 -89 662 -43 700 -54 b 383 -244 700 -184 545 -244 z "},"Ġ":{"ha":1268,"x_min":0,"x_max":0,"o":"m 737 1387 b 842 1282 737 1330 783 1282 b 947 1387 899 1282 947 1327 b 842 1492 947 1444 902 1492 b 737 1387 785 1492 737 1447 z m 1016 348 l 1010 311 b 639 26 977 140 829 26 b 391 345 478 26 391 138 b 846 1090 391 792 573 1090 b 1170 777 1107 1090 1152 972 b 1309 889 1208 777 1309 821 b 852 1124 1309 1065 1013 1124 b 177 423 447 1124 177 844 b 631 -14 177 161 359 -14 b 993 177 789 -14 920 59 l 989 0 l 1158 0 l 1196 156 b 1279 536 1211 214 1272 462 l 1117 528 b 675 530 1117 528 753 529 l 665 485 l 912 496 b 1026 440 1001 496 1026 489 b 1016 348 1026 421 1021 382 z "},"ġ":{"ha":823,"x_min":0,"x_max":0,"o":"m 396 1007 b 501 902 396 950 441 902 b 606 1007 557 902 606 947 b 501 1112 606 1064 560 1112 b 396 1007 444 1112 396 1067 z m 418 251 b 304 358 339 251 304 281 b 492 631 304 512 379 631 b 605 508 567 631 605 589 b 418 251 605 345 533 251 z m 383 -244 b 142 -143 239 -244 142 -203 b 153 -98 142 -129 146 -114 b 126 -93 147 -95 138 -93 b 54 -159 96 -93 54 -107 l 54 -160 b 377 -278 54 -231 183 -278 b 783 -14 608 -278 783 -208 b 607 153 783 115 693 153 b 256 89 494 153 346 89 b 183 153 212 89 183 104 b 248 227 183 171 202 205 l 273 238 b 412 217 311 224 359 217 b 772 490 612 217 772 316 b 697 624 772 549 747 595 b 751 635 716 631 734 635 b 836 551 802 635 831 602 b 911 618 854 551 911 577 b 833 677 911 654 886 677 b 678 634 788 677 731 659 b 499 665 634 654 574 665 b 140 402 292 665 140 579 b 234 255 140 338 174 287 l 210 244 b 92 66 127 205 92 119 b 291 -65 92 -33 179 -65 b 604 -43 396 -65 520 -43 b 700 -89 662 -43 700 -54 b 383 -244 700 -184 545 -244 z "},"Ģ":{"ha":1268,"x_min":0,"x_max":0,"o":"m 515 -166 b 583 -233 515 -202 545 -233 b 524 -317 559 -256 534 -281 l 545 -323 b 640 -203 559 -273 610 -249 b 650 -166 646 -192 650 -180 b 583 -98 650 -125 623 -98 b 515 -166 543 -98 515 -125 z m 1016 348 l 1010 311 b 639 26 977 140 829 26 b 391 345 478 26 391 138 b 846 1090 391 792 573 1090 b 1170 777 1107 1090 1152 972 b 1309 889 1208 777 1309 821 b 852 1124 1309 1065 1013 1124 b 177 423 447 1124 177 844 b 631 -14 177 161 359 -14 b 993 177 789 -14 920 59 l 989 0 l 1158 0 l 1196 156 b 1279 536 1211 214 1272 462 l 1117 528 b 675 530 1117 528 753 529 l 665 485 l 912 496 b 1026 440 1001 496 1026 489 b 1016 348 1026 421 1021 382 z "},"ģ":{"ha":823,"x_min":0,"x_max":0,"o":"m 589 932 b 522 1000 589 968 559 1000 b 580 1084 545 1022 570 1047 l 559 1090 b 465 969 545 1039 494 1015 b 454 932 458 958 454 946 b 522 865 454 896 484 865 b 589 932 557 865 589 895 z m 418 251 b 304 358 339 251 304 281 b 492 631 304 512 379 631 b 605 508 567 631 605 589 b 418 251 605 345 533 251 z m 383 -244 b 142 -143 239 -244 142 -203 b 153 -98 142 -129 146 -114 b 126 -93 147 -95 138 -93 b 54 -159 96 -93 54 -107 l 54 -160 b 377 -278 54 -231 183 -278 b 783 -14 608 -278 783 -208 b 607 153 783 115 693 153 b 256 89 494 153 346 89 b 183 153 212 89 183 104 b 248 227 183 171 202 205 l 273 238 b 412 217 311 224 359 217 b 772 490 612 217 772 316 b 697 624 772 549 747 595 b 751 635 716 631 734 635 b 836 551 802 635 831 602 b 911 618 854 551 911 577 b 833 677 911 654 886 677 b 678 634 788 677 731 659 b 499 665 634 654 574 665 b 140 402 292 665 140 579 b 234 255 140 338 174 287 l 210 244 b 92 66 127 205 92 119 b 291 -65 92 -33 179 -65 b 604 -43 396 -65 520 -43 b 700 -89 662 -43 700 -54 b 383 -244 700 -184 545 -244 z "},"Ĥ":{"ha":1503,"x_min":0,"x_max":0,"o":"m 1158 1480 l 1120 1480 l 926 1285 b 982 1244 951 1257 968 1244 b 1039 1292 998 1244 1012 1261 b 1137 1443 1077 1334 1133 1423 l 1140 1443 b 1240 1292 1144 1423 1202 1334 b 1297 1244 1267 1261 1282 1244 b 1353 1285 1312 1244 1328 1257 z m 958 1112 l 796 1111 l 596 1113 l 594 1099 b 709 1044 683 1099 709 1093 b 699 965 709 1025 705 1000 l 630 566 b 572 568 610 566 590 568 b 113 121 297 568 113 389 b 292 -92 113 -7 185 -92 b 822 507 625 -92 733 108 b 1231 468 945 490 1108 471 l 1165 86 b 1161 41 1162 72 1161 57 b 1549 -336 1161 -185 1316 -336 b 1818 -194 1711 -336 1818 -279 b 1695 -118 1818 -136 1731 -118 b 1510 -286 1695 -218 1607 -286 b 1305 -117 1367 -286 1305 -245 b 1320 -13 1305 -85 1312 -46 l 1433 486 b 1590 601 1508 505 1564 540 l 1550 624 b 1447 545 1536 585 1499 560 l 1493 753 b 1575 1112 1507 811 1568 1038 l 1413 1111 l 1335 1113 l 1333 1099 b 1316 965 1328 1043 1324 1015 l 1240 523 b 831 549 1122 523 958 536 l 876 753 b 958 1112 890 811 951 1038 z m 624 531 b 304 -31 581 281 564 -31 b 163 139 219 -31 163 37 b 566 534 163 376 324 534 b 624 531 583 534 603 532 z "},"ĥ":{"ha":989,"x_min":0,"x_max":0,"o":"m 745 1350 l 707 1350 l 513 1155 b 569 1114 538 1127 555 1114 b 626 1162 585 1114 599 1131 b 724 1313 664 1204 720 1293 l 727 1313 b 827 1162 731 1293 789 1204 b 884 1114 854 1131 869 1114 b 940 1155 899 1114 915 1127 z m 258 1031 l 256 1017 b 279 988 271 1017 279 1017 b 267 884 279 969 275 937 l 118 30 b 117 20 118 29 117 21 b 209 0 117 7 163 0 l 274 0 b 288 7 278 0 287 3 l 381 404 l 555 547 b 652 595 585 572 623 595 b 692 533 675 595 692 579 b 666 396 692 503 685 458 l 644 323 b 623 193 630 277 623 233 b 782 -17 623 68 687 -17 b 954 100 837 -17 909 14 l 1017 224 l 1005 231 l 955 134 b 840 48 926 78 878 48 b 787 106 810 48 787 67 b 804 174 787 124 792 146 l 854 293 b 896 477 883 363 896 425 b 737 661 896 593 830 661 b 533 573 677 661 606 633 l 394 458 l 475 802 b 498 937 484 850 498 898 b 364 1031 498 993 470 1031 z "},"Ħ":{"ha":1537,"x_min":0,"x_max":0,"o":"m 958 1112 l 796 1111 l 596 1113 l 594 1099 b 709 1044 683 1099 709 1093 b 699 965 709 1025 705 1000 l 694 936 b 600 938 644 937 609 937 l 593 938 l 587 881 l 595 882 b 685 884 608 882 642 884 l 630 566 b 572 568 610 566 590 568 b 113 121 297 568 113 389 b 292 -92 113 -7 185 -92 b 822 507 625 -92 733 108 b 1231 468 945 490 1109 471 l 1165 86 b 1161 41 1162 72 1161 57 b 1549 -336 1161 -185 1316 -336 b 1818 -194 1711 -336 1818 -279 b 1695 -118 1818 -136 1731 -118 b 1510 -286 1695 -218 1607 -286 b 1305 -117 1367 -286 1305 -245 b 1320 -13 1305 -85 1312 -46 l 1433 486 b 1590 601 1508 505 1564 540 l 1550 624 b 1447 545 1536 585 1499 560 l 1493 753 b 1527 885 1499 777 1512 827 b 1607 883 1569 884 1598 884 l 1614 882 l 1620 940 l 1612 939 b 1539 937 1600 938 1573 937 b 1575 1112 1556 1006 1571 1077 l 1413 1111 l 1335 1113 l 1333 1099 b 1316 965 1328 1043 1324 1015 l 1310 933 b 1126 932 1228 932 1154 932 b 921 933 1065 932 994 932 b 958 1112 938 1004 954 1076 z m 1103 890 b 1303 888 1164 890 1233 888 l 1240 523 b 831 549 1122 523 958 536 l 876 753 b 910 888 882 777 895 829 b 1103 890 996 889 1072 890 z m 624 531 b 304 -31 581 281 564 -31 b 163 139 219 -31 163 37 b 566 534 163 376 324 534 b 624 531 583 534 603 532 z "},"ħ":{"ha":1030,"x_min":0,"x_max":0,"o":"m 328 7 l 422 404 l 595 547 b 692 595 626 572 664 595 b 733 533 716 595 733 579 b 707 396 733 503 726 458 l 684 323 b 664 193 671 277 664 233 b 823 -17 664 68 728 -17 b 994 100 878 -17 949 14 l 1057 224 l 1046 231 l 996 134 b 880 48 967 78 918 48 b 828 106 850 48 828 67 b 844 174 828 124 833 146 l 895 293 b 937 477 924 363 937 425 b 778 661 937 593 871 661 b 574 573 718 661 646 633 l 435 458 l 515 802 l 517 814 b 718 808 647 812 692 810 l 725 808 l 731 865 l 723 865 b 527 858 684 861 595 859 b 538 937 533 886 538 913 b 405 1031 538 993 511 1031 l 299 1031 l 297 1017 b 320 988 311 1017 320 1017 b 307 884 320 969 316 937 l 303 859 b 192 863 238 861 212 862 l 186 863 l 179 806 l 187 807 b 295 812 212 809 252 810 l 159 30 b 157 20 159 29 157 21 b 250 0 157 7 204 0 l 315 0 b 328 7 319 0 328 3 z "},"Ĩ":{"ha":475,"x_min":0,"x_max":0,"o":"m 708 1386 l 722 1440 l 686 1449 l 673 1394 b 623 1345 663 1358 644 1345 b 392 1478 562 1345 467 1478 b 309 1351 357 1478 328 1421 l 294 1295 l 330 1287 l 345 1343 b 389 1385 353 1374 369 1385 b 620 1251 448 1385 543 1251 b 708 1386 658 1251 688 1309 z m 244 1113 l 242 1099 b 357 1044 331 1099 357 1093 b 347 965 357 1025 353 1000 l 185 22 b 184 14 185 20 184 15 b 277 0 184 3 232 0 l 342 0 b 356 7 347 0 355 3 l 524 753 b 606 1112 538 811 599 1038 l 444 1111 z "},"ĩ":{"ha":550,"x_min":0,"x_max":0,"o":"m 612 1006 l 625 1061 l 590 1069 l 576 1015 b 526 966 567 978 548 966 b 296 1099 465 966 370 1099 b 213 971 260 1099 232 1042 l 198 916 l 233 907 l 248 963 b 293 1005 256 994 273 1005 b 524 871 351 1005 446 871 b 612 1006 562 871 591 929 z m 577 218 l 566 224 l 519 134 b 424 71 498 93 458 71 b 365 134 392 71 365 91 b 371 174 365 146 367 159 l 404 293 b 485 651 420 351 478 577 l 323 651 b 137 548 249 651 182 635 l 98 471 l 110 465 l 149 542 b 211 608 170 583 195 608 b 231 564 223 608 231 595 b 226 511 231 550 229 532 l 193 327 b 170 153 184 279 170 214 b 336 -8 170 46 250 -8 b 517 100 407 -8 480 28 z "},"Ī":{"ha":475,"x_min":0,"x_max":0,"o":"m 523 1348 b 736 1341 675 1348 715 1342 l 743 1340 l 749 1398 l 741 1397 b 556 1390 689 1393 610 1390 b 335 1396 406 1390 354 1394 l 328 1396 l 321 1339 l 330 1339 b 523 1348 382 1343 469 1348 z m 244 1113 l 242 1099 b 357 1044 331 1099 357 1093 b 347 965 357 1025 353 1000 l 185 22 b 184 14 185 20 184 15 b 277 0 184 3 232 0 l 342 0 b 356 7 347 0 355 3 l 524 753 b 606 1112 538 811 599 1038 l 444 1111 z "},"ī":{"ha":550,"x_min":0,"x_max":0,"o":"m 426 968 b 640 961 578 968 619 962 l 646 960 l 652 1018 l 644 1017 b 460 1010 592 1013 513 1010 b 238 1016 309 1010 257 1015 l 232 1016 l 225 959 l 233 960 b 426 968 286 964 372 968 z m 577 218 l 566 224 l 519 134 b 424 71 498 93 458 71 b 365 134 392 71 365 91 b 371 174 365 146 367 159 l 404 293 b 485 651 420 351 478 577 l 323 651 b 137 548 249 651 182 635 l 98 471 l 110 465 l 149 542 b 211 608 170 583 195 608 b 231 564 223 608 231 595 b 226 511 231 550 229 532 l 193 327 b 170 153 184 279 170 214 b 336 -8 170 46 250 -8 b 517 100 407 -8 480 28 z "},"Ĭ":{"ha":475,"x_min":0,"x_max":0,"o":"m 308 1463 b 522 1246 378 1331 424 1246 b 735 1463 627 1246 680 1339 l 707 1478 b 522 1323 650 1395 612 1323 b 345 1478 448 1323 412 1377 z m 244 1113 l 242 1099 b 357 1044 331 1099 357 1093 b 347 965 357 1025 353 1000 l 185 22 b 184 14 185 20 184 15 b 277 0 184 3 232 0 l 342 0 b 356 7 347 0 355 3 l 524 753 b 606 1112 538 811 599 1038 l 444 1111 z "},"ĭ":{"ha":550,"x_min":0,"x_max":0,"o":"m 212 1083 b 425 867 281 951 327 867 b 639 1083 530 867 583 960 l 610 1098 b 425 943 553 1015 515 943 b 248 1098 351 943 316 997 z m 577 218 l 566 224 l 519 134 b 424 71 498 93 458 71 b 365 134 392 71 365 91 b 371 174 365 146 367 159 l 404 293 b 485 651 420 351 478 577 l 323 651 b 137 548 249 651 182 635 l 98 471 l 110 465 l 149 542 b 211 608 170 583 195 608 b 231 564 223 608 231 595 b 226 511 231 550 229 532 l 193 327 b 170 153 184 279 170 214 b 336 -8 170 46 250 -8 b 517 100 407 -8 480 28 z "},"Į":{"ha":502,"x_min":0,"x_max":0,"o":"m 305 -279 b 418 -197 365 -279 418 -242 b 398 -151 418 -182 412 -166 b 312 -208 382 -176 353 -208 b 228 -144 261 -208 228 -182 b 406 107 228 -106 271 -61 l 551 753 b 633 1112 565 811 626 1038 l 471 1111 l 271 1113 l 269 1099 b 384 1044 358 1099 384 1093 b 374 965 384 1025 380 1000 l 215 37 b 212 20 215 37 212 21 b 275 1 212 10 241 3 b 156 -176 224 -50 156 -115 b 305 -279 156 -238 216 -279 z "},"į":{"ha":550,"x_min":0,"x_max":0,"o":"m 399 -279 b 512 -197 459 -279 512 -242 b 492 -150 512 -182 506 -165 b 406 -208 477 -175 447 -208 b 322 -144 355 -208 322 -182 b 430 1 322 -93 376 -47 b 517 100 465 33 499 64 l 577 218 l 566 224 l 519 134 b 424 71 498 93 458 71 b 365 134 392 71 365 91 b 371 174 365 146 367 159 l 404 293 b 485 651 420 351 478 577 l 323 651 b 137 548 249 651 182 635 l 98 471 l 110 465 l 149 542 b 211 608 170 583 195 608 b 231 564 223 608 231 595 b 226 511 231 550 229 532 l 193 327 b 170 153 184 279 170 214 b 336 -8 170 46 250 -8 b 374 -5 349 -8 361 -7 b 257 -168 318 -52 257 -109 b 399 -279 257 -235 314 -279 z m 293 1007 b 398 902 293 950 338 902 b 503 1007 454 902 503 947 b 398 1112 503 1064 457 1112 b 293 1007 341 1112 293 1067 z "},"İ":{"ha":475,"x_min":0,"x_max":0,"o":"m 416 1387 b 522 1282 416 1330 463 1282 b 627 1387 578 1282 627 1327 b 522 1492 627 1444 581 1492 b 416 1387 465 1492 416 1447 z m 244 1113 l 242 1099 b 357 1044 331 1099 357 1093 b 347 965 357 1025 353 1000 l 185 22 b 184 14 185 20 184 15 b 277 0 184 3 232 0 l 342 0 b 356 7 347 0 355 3 l 524 753 b 606 1112 538 811 599 1038 l 444 1111 z "},"ı":{"ha":550,"x_min":0,"x_max":0,"o":"m 577 218 l 566 224 l 519 134 b 424 71 498 93 458 71 b 365 134 392 71 365 91 b 371 174 365 146 367 159 l 404 293 b 485 651 420 351 478 577 l 323 651 b 137 548 249 651 182 635 l 98 471 l 110 465 l 149 542 b 211 608 170 583 195 608 b 231 564 223 608 231 595 b 226 511 231 550 229 532 l 193 327 b 170 153 184 279 170 214 b 336 -8 170 46 250 -8 b 517 100 407 -8 480 28 z "},"Ĳ":{"ha":986,"x_min":0,"x_max":0,"o":"m 1103 1112 l 937 1111 l 737 1113 l 735 1099 b 850 1044 824 1099 850 1093 b 840 965 850 1025 846 1000 l 659 -91 b 557 -194 646 -162 600 -194 b 485 -131 522 -194 490 -172 l 473 -40 l 459 -47 l 469 -134 b 645 -271 482 -237 549 -271 b 873 62 803 -271 848 -52 l 1022 753 b 1103 1112 1035 811 1097 1038 z m 244 1113 l 242 1099 b 357 1044 331 1099 357 1093 b 347 965 357 1025 353 1000 l 185 22 b 184 14 185 20 184 15 b 277 0 184 3 232 0 l 342 0 b 356 7 347 0 355 3 l 524 753 b 606 1112 538 811 599 1038 l 444 1111 z "},"ĳ":{"ha":959,"x_min":0,"x_max":0,"o":"m 844 1007 b 949 902 844 950 890 902 b 1055 1007 1006 902 1055 947 b 949 1112 1055 1064 1008 1112 b 844 1007 892 1112 844 1067 z m 1015 651 l 854 651 b 668 548 780 651 713 635 l 655 523 l 667 515 l 680 542 b 742 608 701 583 725 608 b 762 564 754 608 762 595 b 757 511 762 550 760 532 l 660 -103 b 561 -206 649 -174 602 -206 b 488 -143 525 -206 493 -184 l 454 -154 b 641 -285 471 -259 540 -285 b 876 50 794 -285 848 -63 l 935 293 b 1015 651 949 351 1008 577 z m 293 1007 b 398 902 293 950 338 902 b 503 1007 454 902 503 947 b 398 1112 503 1064 457 1112 b 293 1007 341 1112 293 1067 z m 577 218 l 566 224 l 519 134 b 424 71 498 93 458 71 b 365 134 392 71 365 91 b 371 174 365 146 367 159 l 404 293 b 485 651 420 351 478 577 l 323 651 b 137 548 249 651 182 635 l 98 471 l 110 465 l 149 542 b 211 608 170 583 195 608 b 231 564 223 608 231 595 b 226 511 231 550 229 532 l 193 327 b 170 153 184 279 170 214 b 336 -8 170 46 250 -8 b 517 100 407 -8 480 28 z "},"Ĵ":{"ha":572,"x_min":0,"x_max":0,"o":"m 581 1480 l 543 1480 l 349 1285 b 406 1244 374 1257 391 1244 b 463 1292 420 1244 435 1261 b 560 1443 500 1334 556 1423 l 563 1443 b 663 1292 567 1423 625 1334 b 720 1244 690 1261 705 1244 b 776 1285 735 1244 751 1257 z m 690 1112 l 524 1111 l 323 1113 l 321 1099 b 436 1044 410 1099 436 1093 b 426 965 436 1025 432 1000 l 245 -91 b 144 -194 233 -162 186 -194 b 71 -131 109 -194 76 -172 l 60 -40 l 45 -47 l 56 -134 b 231 -271 68 -237 135 -271 b 459 62 389 -271 435 -52 l 608 753 b 690 1112 621 811 683 1038 z "},"ĵ":{"ha":450,"x_min":0,"x_max":0,"o":"m 438 1101 l 400 1101 l 206 905 b 262 864 231 878 248 864 b 319 912 278 864 292 881 b 418 1063 357 954 414 1043 l 420 1063 b 520 912 425 1043 482 954 b 578 864 547 881 562 864 b 633 905 592 864 608 878 z m 492 651 l 332 651 b 145 548 257 651 190 635 l 132 523 l 144 515 l 157 542 b 219 608 178 583 202 608 b 239 564 231 608 239 595 b 234 511 239 550 237 532 l 137 -103 b 38 -206 126 -174 79 -206 b -35 -143 2 -206 -30 -184 l -68 -154 b 118 -285 -52 -259 17 -285 b 353 50 271 -285 326 -63 l 412 293 b 492 651 426 351 486 577 z "},"Ķ":{"ha":1252,"x_min":0,"x_max":0,"o":"m 543 -166 b 610 -233 543 -202 572 -233 b 551 -317 587 -256 562 -281 l 572 -323 b 667 -203 587 -273 637 -249 b 677 -166 673 -192 677 -180 b 610 -98 677 -125 650 -98 b 543 -166 570 -98 543 -125 z m 281 174 b 180 71 269 102 222 71 b 108 134 144 71 113 93 l 93 128 b 254 -7 104 32 163 -7 b 496 327 425 -7 472 207 l 534 516 l 582 551 b 659 586 623 582 641 586 b 825 426 715 586 774 524 b 1474 -336 1116 -137 1299 -336 b 1744 -194 1666 -336 1744 -254 b 1621 -118 1744 -136 1656 -118 b 1447 -259 1595 -218 1543 -259 b 1143 232 1305 -259 1236 -8 b 762 661 1059 451 955 661 b 677 647 734 661 707 658 b 1195 961 832 787 1053 961 b 1253 949 1217 961 1236 957 b 1306 1063 1274 968 1306 1020 b 1216 1126 1306 1097 1284 1126 b 545 565 1041 1126 657 680 l 593 753 b 673 1112 607 812 667 1038 b 511 1109 673 1112 580 1109 b 313 1119 473 1109 391 1116 l 311 1105 b 425 1045 399 1101 425 1093 b 414 966 425 1026 420 1000 z "},"ķ":{"ha":910,"x_min":0,"x_max":0,"o":"m 400 -166 b 467 -233 400 -202 429 -233 b 409 -317 444 -256 419 -281 l 430 -323 b 524 -203 444 -273 495 -249 b 535 -166 531 -192 535 -180 b 467 -98 535 -125 508 -98 b 400 -166 427 -98 400 -125 z m 597 108 b 1086 -322 816 -207 938 -322 b 1330 -194 1232 -322 1330 -271 b 1207 -118 1330 -144 1287 -118 b 1065 -266 1207 -207 1151 -266 b 756 110 938 -266 852 -81 l 557 504 b 709 551 608 536 658 551 b 899 496 768 551 843 522 b 937 606 914 515 937 564 b 850 682 937 656 899 682 b 530 536 744 682 628 618 b 371 362 467 482 412 420 l 475 802 b 498 937 484 850 498 898 b 364 1031 498 993 471 1031 l 258 1031 l 256 1017 l 257 1017 b 279 988 271 1017 279 1017 b 267 884 279 969 276 937 l 117 22 b 116 15 117 20 116 16 b 209 0 116 4 163 0 l 274 0 b 288 7 279 0 286 2 l 351 277 b 415 370 372 312 393 342 z "},"ĸ":{"ha":951,"x_min":0,"x_max":0,"o":"m 288 7 l 342 227 b 428 351 370 271 398 313 l 597 108 b 770 -15 652 28 663 -15 b 926 100 825 -15 880 9 l 989 224 l 978 231 l 928 134 b 833 53 898 75 863 53 b 756 110 801 53 772 77 l 564 492 b 707 551 612 529 661 551 b 899 496 768 551 842 523 b 937 606 914 515 937 564 b 850 682 937 656 899 682 b 535 518 728 682 615 593 b 365 316 472 460 416 390 l 391 422 b 417 564 404 472 417 523 b 288 651 417 615 390 651 l 189 651 l 186 637 b 210 608 201 637 210 637 b 197 505 210 589 205 557 l 117 22 b 117 20 117 21 117 21 b 209 0 117 7 163 0 l 274 0 b 288 7 279 0 286 3 z "},"Ĺ":{"ha":1232,"x_min":0,"x_max":0,"o":"m 828 1486 b 816 1491 824 1489 820 1491 b 802 1485 810 1491 806 1489 l 644 1238 l 663 1221 l 869 1400 l 885 1421 b 890 1432 888 1425 890 1428 b 884 1445 890 1437 889 1441 z m 1268 173 l 1257 180 l 1227 121 b 1048 53 1204 73 1138 53 b 618 137 932 53 775 87 b 693 326 654 191 680 255 l 788 753 b 869 1112 802 811 863 1038 l 708 1111 l 508 1113 l 506 1099 b 621 1044 595 1099 621 1093 b 610 965 621 1025 616 1000 l 478 196 b 309 235 427 217 372 235 b 96 58 181 235 96 164 b 250 -65 96 -17 154 -65 b 594 102 389 -65 511 -3 b 1009 -75 742 24 885 -75 b 1237 107 1095 -75 1173 -27 z m 471 165 b 256 -31 437 46 354 -31 b 131 66 178 -31 131 7 b 303 201 131 147 199 201 b 471 165 372 201 424 186 z "},"ĺ":{"ha":494,"x_min":0,"x_max":0,"o":"m 496 1411 b 484 1417 492 1414 488 1417 b 470 1410 478 1417 474 1414 l 311 1163 l 330 1147 l 536 1326 l 553 1346 b 558 1357 555 1350 558 1353 b 551 1371 558 1362 557 1367 z m 344 1031 l 238 1032 l 237 1019 b 259 989 250 1019 259 1019 b 246 884 259 969 255 937 l 152 327 b 134 161 144 281 134 220 b 290 -10 134 47 209 -10 b 463 100 356 -10 426 27 l 523 218 l 511 224 l 465 134 b 360 71 447 99 399 71 b 302 139 328 71 302 90 b 307 174 302 149 304 161 l 425 672 b 505 1032 438 730 498 958 z "},"Ļ":{"ha":1232,"x_min":0,"x_max":0,"o":"m 570 -166 b 637 -233 570 -202 599 -233 b 578 -317 614 -256 589 -281 l 600 -323 b 694 -203 614 -273 665 -249 b 705 -166 701 -192 705 -180 b 637 -98 705 -125 677 -98 b 570 -166 597 -98 570 -125 z m 1268 173 l 1257 180 l 1227 121 b 1048 53 1204 73 1138 53 b 618 137 932 53 775 87 b 693 326 654 191 680 255 l 788 753 b 869 1112 802 811 863 1038 l 708 1111 l 508 1113 l 506 1099 b 621 1044 595 1099 621 1093 b 610 965 621 1025 616 1000 l 478 196 b 309 235 427 217 372 235 b 96 58 181 235 96 164 b 250 -65 96 -17 154 -65 b 594 102 389 -65 511 -3 b 1009 -75 742 24 885 -75 b 1237 107 1095 -75 1173 -27 z m 471 165 b 256 -31 437 46 354 -31 b 131 66 178 -31 131 7 b 303 201 131 147 199 201 b 471 165 372 201 424 186 z "},"ļ":{"ha":494,"x_min":0,"x_max":0,"o":"m 149 -166 b 216 -233 149 -202 178 -233 b 158 -317 193 -256 168 -281 l 179 -323 b 273 -203 193 -273 244 -249 b 284 -166 280 -192 284 -180 b 216 -98 284 -125 257 -98 b 149 -166 176 -98 149 -125 z m 344 1031 l 238 1032 l 237 1019 b 259 989 250 1019 259 1019 b 246 884 259 969 255 937 l 152 327 b 134 161 144 281 134 220 b 290 -10 134 47 209 -10 b 463 100 356 -10 426 27 l 523 218 l 511 224 l 465 134 b 360 71 447 99 399 71 b 302 139 328 71 302 90 b 307 174 302 149 304 161 l 425 672 b 505 1032 438 730 498 958 z "},"Ľ":{"ha":1272,"x_min":0,"x_max":0,"o":"m 1195 1019 b 1300 914 1195 956 1242 914 b 1209 783 1264 879 1225 840 l 1242 773 b 1390 965 1264 854 1345 890 b 1405 1019 1400 981 1405 1000 b 1300 1124 1405 1088 1369 1124 b 1195 1019 1232 1124 1195 1088 z m 1268 173 l 1257 180 l 1227 121 b 1048 53 1204 73 1138 53 b 618 137 932 53 775 87 b 693 326 654 191 680 255 l 788 753 b 869 1112 802 811 863 1038 l 708 1111 l 508 1113 l 506 1099 b 621 1044 595 1099 621 1093 b 610 965 621 1025 616 1000 l 478 196 b 309 235 427 217 372 235 b 96 58 181 235 96 164 b 250 -65 96 -17 154 -65 b 594 102 389 -65 511 -3 b 1009 -75 742 24 885 -75 b 1237 107 1095 -75 1173 -27 z m 471 165 b 256 -31 437 46 354 -31 b 131 66 178 -31 131 7 b 303 201 131 147 199 201 b 471 165 372 201 424 186 z "},"ľ":{"ha":672,"x_min":0,"x_max":0,"o":"m 590 939 b 694 834 590 876 637 834 b 604 703 659 799 620 760 l 637 693 b 785 885 659 774 740 810 b 800 939 795 901 800 920 b 695 1044 800 1008 764 1044 b 590 939 627 1044 590 1008 z m 344 1031 l 238 1032 l 237 1019 b 259 989 250 1019 259 1019 b 246 884 259 969 255 937 l 152 327 b 134 161 144 281 134 220 b 290 -10 134 47 209 -10 b 463 100 356 -10 426 27 l 523 218 l 511 224 l 465 134 b 360 71 447 99 399 71 b 302 139 328 71 302 90 b 307 174 302 149 304 161 l 425 672 b 505 1032 438 730 498 958 z "},"Ŀ":{"ha":1232,"x_min":0,"x_max":0,"o":"m 1088 564 b 1193 458 1088 507 1134 458 b 1298 564 1250 458 1298 505 b 1193 669 1298 627 1256 669 b 1088 564 1130 669 1088 627 z m 1268 173 l 1257 180 l 1227 121 b 1048 53 1204 73 1138 53 b 618 137 932 53 775 87 b 693 326 654 191 680 255 l 788 753 b 869 1112 802 811 863 1038 l 708 1111 l 508 1113 l 506 1099 b 621 1044 595 1099 621 1093 b 610 965 621 1025 616 1000 l 478 196 b 309 235 427 217 372 235 b 96 58 181 235 96 164 b 250 -65 96 -17 154 -65 b 594 102 389 -65 511 -3 b 1009 -75 742 24 885 -75 b 1237 107 1095 -75 1173 -27 z m 471 165 b 256 -31 437 46 354 -31 b 131 66 178 -31 131 7 b 303 201 131 147 199 201 b 471 165 372 201 424 186 z "},"ŀ":{"ha":698,"x_min":0,"x_max":0,"o":"m 539 543 b 644 437 539 486 585 437 b 749 543 701 437 749 483 b 644 648 749 606 707 648 b 539 543 581 648 539 606 z m 344 1031 l 238 1032 l 237 1019 b 259 989 250 1019 259 1019 b 246 884 259 969 255 937 l 152 327 b 134 161 144 281 134 220 b 290 -10 134 47 209 -10 b 463 100 356 -10 426 27 l 523 218 l 511 224 l 465 134 b 360 71 447 99 399 71 b 302 139 328 71 302 90 b 307 174 302 149 304 161 l 425 672 b 505 1032 438 730 498 958 z "},"Ł":{"ha":1232,"x_min":0,"x_max":0,"o":"m 1268 173 l 1256 179 l 1227 121 b 1048 53 1204 73 1138 53 b 622 136 933 53 779 86 l 618 137 b 693 326 654 191 680 255 l 737 524 b 1166 747 939 597 1093 706 l 1140 795 b 748 571 1067 753 929 646 l 788 753 b 869 1112 802 811 863 1038 l 708 1111 l 508 1113 l 506 1099 b 621 1044 595 1099 621 1093 b 610 965 621 1025 616 1000 l 531 505 b 353 487 474 494 414 487 b 279 490 329 487 304 488 l 276 456 b 357 453 303 454 330 453 b 525 467 414 453 471 458 l 479 199 l 478 196 b 309 235 427 217 372 235 b 96 58 193 235 96 169 b 250 -65 96 -17 154 -65 b 594 102 389 -65 511 -3 b 1009 -75 742 24 885 -75 b 1237 107 1095 -75 1173 -27 z m 471 165 b 256 -31 437 46 354 -31 b 131 66 178 -31 131 7 b 303 201 131 151 208 201 b 471 165 372 201 424 186 z "},"ł":{"ha":562,"x_min":0,"x_max":0,"o":"m 431 1069 b 751 1185 559 1101 671 1185 b 840 1133 805 1185 840 1164 b 669 1042 840 1078 772 1042 b 431 1069 590 1042 499 1057 z m 260 1043 b 275 1005 269 1039 275 1031 b 262 898 275 984 271 951 l 165 327 b 148 169 158 283 148 225 b 317 -10 148 52 230 -10 b 490 100 383 -10 452 25 l 550 218 l 538 224 l 492 134 b 388 71 471 93 427 71 b 316 142 349 71 316 93 b 320 174 316 151 317 162 l 450 726 b 513 1010 458 767 492 905 b 682 1000 575 1004 633 1000 b 867 1133 793 1000 867 1053 b 751 1213 867 1181 821 1213 b 342 1088 640 1213 475 1114 l 104 1133 b 90 1135 99 1134 94 1135 b 43 1029 56 1135 43 1107 l 60 1028 b 87 1069 60 1057 66 1069 b 97 1068 90 1069 93 1069 z "},"Ń":{"ha":1179,"x_min":0,"x_max":0,"o":"m 1025 1486 b 1013 1491 1021 1489 1017 1491 b 999 1485 1007 1491 1003 1489 l 840 1238 l 859 1221 l 1065 1400 l 1082 1421 b 1087 1432 1084 1425 1087 1428 b 1080 1445 1087 1437 1086 1441 z m 443 1142 b 445 1103 445 1130 445 1116 b 393 884 445 1014 412 903 b 448 855 412 877 430 867 l 407 626 b 65 52 334 252 271 109 b 64 47 64 50 64 49 b 151 -5 64 20 101 -5 b 256 31 183 -5 220 5 b 441 629 388 127 399 411 l 479 833 b 949 -25 680 680 890 298 b 1031 -18 949 -25 1013 -18 l 1038 -18 b 1149 600 1042 14 1143 570 b 1717 1175 1235 1040 1505 1175 l 1731 1175 b 1734 1192 1733 1179 1734 1187 b 1617 1262 1734 1224 1686 1262 b 1115 597 1440 1262 1208 1093 l 1052 257 b 443 1142 976 606 808 1020 z "},"ń":{"ha":1050,"x_min":0,"x_max":0,"o":"m 739 1106 b 727 1112 735 1109 731 1112 b 713 1105 722 1112 718 1109 l 555 858 l 574 842 l 780 1021 l 796 1041 b 802 1052 799 1045 802 1048 b 795 1065 802 1057 800 1061 z m 337 658 b 151 551 262 658 195 638 l 111 474 l 123 468 l 163 545 b 224 609 183 585 207 609 b 245 563 236 609 245 595 b 239 511 245 549 243 532 l 159 30 b 157 20 159 29 157 21 b 250 0 157 7 204 0 l 332 0 b 345 7 336 0 345 3 l 418 293 b 447 408 425 324 437 365 l 616 547 b 711 597 646 572 684 597 b 750 536 741 597 750 571 b 727 396 750 492 735 434 l 711 323 b 693 178 700 274 693 224 b 862 -16 693 70 733 -16 b 1015 100 916 -16 973 19 l 1078 224 l 1066 231 l 1016 134 b 930 71 995 93 960 71 b 884 127 905 71 884 89 b 892 174 884 140 886 155 l 928 293 b 968 503 949 361 968 437 b 806 665 968 594 931 665 b 594 573 747 665 669 634 l 456 460 b 461 521 459 481 461 501 b 337 658 461 597 433 658 z "},"Ņ":{"ha":1179,"x_min":0,"x_max":0,"o":"m 543 -166 b 610 -233 543 -202 572 -233 b 551 -317 587 -256 562 -281 l 572 -323 b 667 -203 587 -273 637 -249 b 677 -166 673 -192 677 -180 b 610 -98 677 -125 650 -98 b 543 -166 570 -98 543 -125 z m 443 1142 b 445 1103 445 1130 445 1116 b 393 884 445 1014 412 903 b 448 855 412 877 430 867 l 407 626 b 65 52 334 252 271 109 b 64 47 64 50 64 49 b 151 -5 64 20 101 -5 b 256 31 183 -5 220 5 b 441 629 388 127 399 411 l 479 833 b 949 -25 680 680 890 298 b 1031 -18 949 -25 1013 -18 l 1038 -18 b 1149 600 1042 14 1143 570 b 1717 1175 1235 1040 1505 1175 l 1731 1175 b 1734 1192 1733 1179 1734 1187 b 1617 1262 1734 1224 1686 1262 b 1115 597 1440 1262 1208 1093 l 1052 257 b 443 1142 976 606 808 1020 z "},"ņ":{"ha":1050,"x_min":0,"x_max":0,"o":"m 434 -166 b 501 -233 434 -202 463 -233 b 443 -317 478 -256 453 -281 l 464 -323 b 558 -203 478 -273 529 -249 b 569 -166 565 -192 569 -180 b 501 -98 569 -125 542 -98 b 434 -166 461 -98 434 -125 z m 337 658 b 151 551 262 658 195 638 l 111 474 l 123 468 l 163 545 b 224 609 183 585 207 609 b 245 563 236 609 245 595 b 239 511 245 549 243 532 l 159 30 b 157 20 159 29 157 21 b 250 0 157 7 204 0 l 332 0 b 345 7 336 0 345 3 l 418 293 b 447 408 425 324 437 365 l 616 547 b 711 597 646 572 684 597 b 750 536 741 597 750 571 b 727 396 750 492 735 434 l 711 323 b 693 178 700 274 693 224 b 862 -16 693 70 733 -16 b 1015 100 916 -16 973 19 l 1078 224 l 1066 231 l 1016 134 b 930 71 995 93 960 71 b 884 127 905 71 884 89 b 892 174 884 140 886 155 l 928 293 b 968 503 949 361 968 437 b 806 665 968 594 931 665 b 594 573 747 665 669 634 l 456 460 b 461 521 459 481 461 501 b 337 658 461 597 433 658 z "},"Ň":{"ha":1179,"x_min":0,"x_max":0,"o":"m 954 1244 l 1149 1439 b 1093 1480 1124 1467 1107 1480 b 1035 1432 1077 1480 1062 1463 b 937 1281 997 1390 941 1301 l 934 1281 b 837 1432 930 1301 875 1390 b 780 1480 810 1463 795 1480 b 722 1439 766 1480 747 1467 l 916 1244 z m 443 1142 b 445 1103 445 1130 445 1116 b 393 884 445 1014 412 903 b 448 855 412 877 430 867 l 407 626 b 65 52 334 252 271 109 b 64 47 64 50 64 49 b 151 -5 64 20 101 -5 b 256 31 183 -5 220 5 b 441 629 388 127 399 411 l 479 833 b 949 -25 680 680 890 298 b 1031 -18 949 -25 1013 -18 l 1038 -18 b 1149 600 1042 14 1143 570 b 1717 1175 1235 1040 1505 1175 l 1731 1175 b 1734 1192 1733 1179 1734 1187 b 1617 1262 1734 1224 1686 1262 b 1115 597 1440 1262 1208 1093 l 1052 257 b 443 1142 976 606 808 1020 z "},"ň":{"ha":1050,"x_min":0,"x_max":0,"o":"m 669 864 l 864 1059 b 807 1101 839 1087 821 1101 b 749 1053 791 1101 777 1084 b 651 901 711 1010 655 922 l 648 901 b 551 1053 644 922 589 1010 b 494 1101 524 1084 510 1101 b 437 1059 480 1101 462 1087 l 631 864 z m 337 658 b 151 551 262 658 195 638 l 111 474 l 123 468 l 163 545 b 224 609 183 585 207 609 b 245 563 236 609 245 595 b 239 511 245 549 243 532 l 159 30 b 157 20 159 29 157 21 b 250 0 157 7 204 0 l 332 0 b 345 7 336 0 345 3 l 418 293 b 447 408 425 324 437 365 l 616 547 b 711 597 646 572 684 597 b 750 536 741 597 750 571 b 727 396 750 492 735 434 l 711 323 b 693 178 700 274 693 224 b 862 -16 693 70 733 -16 b 1015 100 916 -16 973 19 l 1078 224 l 1066 231 l 1016 134 b 930 71 995 93 960 71 b 884 127 905 71 884 89 b 892 174 884 140 886 155 l 928 293 b 968 503 949 361 968 437 b 806 665 968 594 931 665 b 594 573 747 665 669 634 l 456 460 b 461 521 459 481 461 501 b 337 658 461 597 433 658 z "},"ŉ":{"ha":1206,"x_min":0,"x_max":0,"o":"m 493 658 b 307 551 418 658 351 638 l 267 474 l 279 468 l 319 545 b 380 609 339 585 363 609 b 401 563 392 609 401 595 b 395 511 401 549 399 532 l 315 30 b 313 20 315 29 313 21 b 406 0 313 7 360 0 l 488 0 b 501 7 492 0 500 3 l 574 293 b 603 408 581 324 593 365 l 772 547 b 867 597 802 572 840 597 b 906 536 897 597 906 571 b 883 396 906 492 891 434 l 867 323 b 849 178 856 274 849 224 b 1018 -16 849 70 889 -16 b 1171 100 1072 -16 1129 19 l 1234 224 l 1222 231 l 1172 134 b 1086 71 1151 93 1116 71 b 1040 127 1061 71 1040 89 b 1048 174 1040 140 1042 155 l 1084 293 b 1124 503 1105 361 1124 437 b 962 665 1124 594 1087 665 b 750 573 903 665 825 634 l 612 460 b 617 521 615 481 617 501 b 493 658 617 597 589 658 z m 203 939 b 308 834 203 876 250 834 b 218 703 272 799 233 760 l 250 693 b 398 885 272 774 353 810 b 414 939 408 901 414 920 b 309 1044 414 1008 377 1044 b 203 939 240 1044 203 1008 z "},"Ŋ":{"ha":1062,"x_min":0,"x_max":0,"o":"m 941 968 l 806 168 b 706 65 793 97 748 65 b 633 128 671 65 639 87 l 600 117 b 787 -14 613 12 686 -14 b 1022 321 940 -14 996 208 l 1120 751 b 1156 966 1137 821 1156 899 b 1025 1123 1156 1068 1110 1123 b 786 1031 958 1123 871 1093 l 548 857 b 562 972 553 886 562 943 b 434 1116 562 1050 534 1116 b 235 1008 334 1116 279 1096 l 227 992 l 239 986 l 247 1002 b 308 1063 267 1042 291 1063 b 329 1021 320 1063 329 1053 b 323 969 329 1007 327 990 l 159 29 b 157 20 159 26 157 21 b 250 0 157 7 204 0 l 332 0 b 345 7 336 0 344 3 l 526 761 b 562 823 530 777 544 810 l 808 1004 b 905 1044 835 1023 876 1044 b 942 993 926 1044 942 1031 b 941 968 942 985 942 977 z "},"ŋ":{"ha":935,"x_min":0,"x_max":0,"o":"m 736 512 l 640 -103 b 540 -206 629 -174 582 -206 b 467 -143 505 -206 473 -184 l 434 -154 b 621 -285 447 -259 519 -285 b 856 50 774 -285 828 -63 l 915 293 b 951 507 932 363 951 441 b 792 665 951 596 916 665 b 581 573 733 665 655 634 l 458 472 b 461 521 460 489 461 505 b 337 658 461 597 433 658 b 151 551 262 658 195 638 l 111 474 l 123 468 l 163 545 b 224 609 183 585 207 609 b 245 563 236 609 245 595 b 239 511 245 549 243 532 l 159 34 b 157 20 159 31 157 21 b 250 0 157 7 204 0 l 332 0 b 345 7 336 0 345 3 l 418 293 b 450 421 427 328 440 373 l 602 547 b 698 597 633 572 670 597 b 736 536 728 597 736 571 b 736 512 736 529 736 521 z "},"Ō":{"ha":1312,"x_min":0,"x_max":0,"o":"m 903 1348 b 1116 1341 1055 1348 1096 1342 l 1123 1340 l 1129 1398 l 1121 1397 b 937 1390 1069 1393 989 1390 b 715 1396 786 1390 734 1394 l 709 1396 l 702 1339 l 710 1339 b 903 1348 763 1343 849 1348 z m 666 26 b 385 310 472 26 385 106 b 873 1090 385 729 581 1090 b 1148 763 1055 1090 1148 977 b 666 26 1148 315 954 26 z m 880 1124 b 177 429 478 1124 177 878 b 659 -14 177 159 357 -14 b 1367 718 1045 -14 1367 277 b 880 1124 1367 983 1200 1124 z "},"ō":{"ha":891,"x_min":0,"x_max":0,"o":"m 605 968 b 819 961 758 968 798 962 l 825 960 l 831 1018 l 823 1017 b 639 1010 771 1013 692 1010 b 417 1016 488 1010 436 1015 l 411 1016 l 404 959 l 412 960 b 605 968 465 964 551 968 z m 449 20 b 317 172 359 20 317 64 b 568 631 317 401 425 631 b 695 455 651 631 695 570 b 449 20 695 206 591 20 z m 574 665 b 115 256 313 665 115 524 b 442 -14 115 92 238 -14 b 904 412 697 -14 904 149 b 574 665 904 577 791 665 z "},"Ŏ":{"ha":1312,"x_min":0,"x_max":0,"o":"m 688 1463 b 902 1246 758 1331 804 1246 b 1116 1463 1007 1246 1060 1339 l 1086 1478 b 902 1323 1029 1395 991 1323 b 724 1478 828 1323 793 1377 z m 666 26 b 385 310 472 26 385 106 b 873 1090 385 729 581 1090 b 1148 763 1055 1090 1148 977 b 666 26 1148 315 954 26 z m 880 1124 b 177 429 478 1124 177 878 b 659 -14 177 159 357 -14 b 1367 718 1045 -14 1367 277 b 880 1124 1367 983 1200 1124 z "},"ŏ":{"ha":891,"x_min":0,"x_max":0,"o":"m 391 1083 b 604 867 460 951 507 867 b 818 1083 709 867 762 960 l 789 1098 b 604 943 732 1015 694 943 b 427 1098 530 943 495 997 z m 449 20 b 317 172 359 20 317 64 b 568 631 317 401 425 631 b 695 455 651 631 695 570 b 449 20 695 206 591 20 z m 574 665 b 115 256 313 665 115 524 b 442 -14 115 92 238 -14 b 904 412 697 -14 904 149 b 574 665 904 577 791 665 z "},"Ő":{"ha":1312,"x_min":0,"x_max":0,"o":"m 795 1486 b 783 1491 791 1489 787 1491 b 769 1485 777 1491 773 1489 l 610 1238 l 629 1221 l 836 1400 l 852 1421 b 857 1432 854 1425 857 1428 b 850 1445 857 1437 856 1441 z m 1103 1486 b 1090 1491 1099 1489 1095 1491 b 1077 1485 1085 1491 1081 1489 l 918 1238 l 937 1221 l 1143 1400 l 1160 1421 b 1165 1432 1162 1425 1165 1428 b 1158 1445 1165 1437 1164 1441 z m 666 26 b 385 310 472 26 385 106 b 873 1090 385 729 581 1090 b 1148 763 1055 1090 1148 977 b 666 26 1148 315 954 26 z m 880 1124 b 177 429 478 1124 177 878 b 659 -14 177 159 357 -14 b 1367 718 1045 -14 1367 277 b 880 1124 1367 983 1200 1124 z "},"ő":{"ha":891,"x_min":0,"x_max":0,"o":"m 497 1106 b 485 1112 493 1109 489 1112 b 471 1105 479 1112 475 1109 l 313 858 l 332 842 l 538 1021 l 554 1041 b 559 1052 557 1045 559 1048 b 553 1065 559 1057 558 1061 z m 805 1106 b 793 1112 801 1109 797 1112 b 779 1105 787 1112 783 1109 l 621 858 l 640 842 l 846 1021 l 862 1041 b 867 1052 865 1045 867 1048 b 861 1065 867 1057 866 1061 z m 449 20 b 317 172 359 20 317 64 b 568 631 317 401 425 631 b 695 455 651 631 695 570 b 449 20 695 206 591 20 z m 574 665 b 115 256 313 665 115 524 b 442 -14 115 92 238 -14 b 904 412 697 -14 904 149 b 574 665 904 577 791 665 z "},"Œ":{"ha":1624,"x_min":0,"x_max":0,"o":"m 659 -14 b 853 0 753 -14 810 0 l 905 0 b 1404 -79 1172 0 1307 -79 b 1592 100 1474 -79 1525 -38 l 1651 224 l 1639 231 l 1582 115 b 1257 32 1548 45 1426 32 b 1031 35 1189 32 1113 34 l 1151 562 l 1416 562 l 1418 597 l 1158 597 l 1194 753 b 1262 1068 1206 806 1249 979 b 1446 1059 1328 1063 1390 1059 b 1705 1146 1558 1059 1647 1077 b 1729 1211 1723 1170 1729 1192 b 1616 1308 1729 1274 1652 1308 b 1131 1111 1560 1112 1504 1111 b 878 1124 1082 1111 937 1124 b 177 429 477 1124 177 878 b 659 -14 177 159 357 -14 z m 666 26 b 385 310 472 26 385 106 b 872 1087 385 729 580 1087 l 917 1087 b 1022 1021 996 1087 1022 1074 b 1013 943 1022 1001 1018 975 l 859 50 b 666 26 859 50 840 26 z "},"œ":{"ha":1401,"x_min":0,"x_max":0,"o":"m 568 631 b 695 455 651 631 695 570 b 449 20 695 206 591 20 b 317 172 359 20 317 64 b 568 631 317 401 425 631 z m 574 665 b 115 256 313 665 115 524 b 442 -14 115 92 238 -14 b 706 55 541 -14 631 10 b 743 94 719 63 736 77 l 746 94 b 774 53 751 77 764 61 b 1006 -14 831 10 909 -14 b 1363 133 1154 -14 1280 41 l 1338 155 b 1068 33 1284 90 1168 33 b 889 220 935 33 889 87 b 1433 497 1196 220 1433 315 b 1139 665 1433 607 1331 665 b 878 607 1036 665 948 646 b 842 570 865 600 848 584 l 840 570 b 806 610 835 583 817 604 b 574 665 751 647 674 665 z m 892 254 b 903 326 895 276 898 300 b 1132 631 939 509 1030 631 b 1245 515 1206 631 1245 591 b 892 254 1245 329 1110 254 z "},"Ŕ":{"ha":1255,"x_min":0,"x_max":0,"o":"m 943 1486 b 931 1491 939 1489 935 1491 b 918 1485 926 1491 922 1489 l 759 1238 l 778 1221 l 984 1400 l 1000 1421 b 1006 1432 1003 1425 1006 1428 b 999 1445 1006 1437 1004 1441 z m 1304 -259 b 968 294 1152 -259 1061 60 b 760 435 926 400 794 428 l 761 436 b 1245 859 1046 446 1245 575 b 844 1111 1245 1023 1105 1111 b 286 1122 813 1111 317 1120 l 282 1080 b 404 1082 309 1080 368 1082 b 456 1029 444 1082 456 1067 b 448 951 456 1009 453 984 l 319 167 b 218 64 307 95 260 64 b 145 127 182 64 150 86 l 130 123 b 305 -14 142 21 199 -14 b 533 320 456 -14 507 207 l 561 440 l 570 479 l 630 739 b 708 1079 643 795 699 998 b 838 1077 772 1078 822 1077 b 1031 889 964 1077 1031 1011 b 733 473 1031 624 918 473 l 620 477 b 597 455 605 478 600 467 l 595 439 b 665 399 617 438 646 433 b 1332 -336 945 -165 1131 -336 b 1601 -194 1523 -336 1601 -254 b 1478 -118 1601 -136 1514 -118 b 1304 -259 1453 -218 1400 -259 z "},"ŕ":{"ha":806,"x_min":0,"x_max":0,"o":"m 671 1106 b 659 1112 667 1109 663 1112 b 646 1105 654 1112 650 1109 l 487 858 l 506 842 l 712 1021 l 728 1041 b 734 1052 731 1045 734 1048 b 727 1065 734 1057 732 1061 z m 337 658 b 151 551 262 658 195 638 l 111 474 l 123 468 l 163 545 b 224 609 183 585 207 609 b 244 563 236 609 244 595 b 239 511 244 549 243 532 l 157 22 b 157 15 157 19 157 16 b 243 -1 157 3 197 -1 l 331 0 b 345 7 331 0 345 3 l 418 293 b 662 627 463 471 575 627 b 761 492 717 627 753 580 b 783 488 768 489 774 488 b 897 599 832 488 897 534 b 760 714 897 668 842 714 b 460 491 655 714 521 612 b 461 521 460 503 461 510 b 337 658 461 597 433 658 z "},"Ŗ":{"ha":1255,"x_min":0,"x_max":0,"o":"m 570 -166 b 637 -233 570 -202 599 -233 b 578 -317 614 -256 589 -281 l 600 -323 b 694 -203 614 -273 665 -249 b 705 -166 701 -192 705 -180 b 637 -98 705 -125 677 -98 b 570 -166 597 -98 570 -125 z m 1304 -259 b 968 294 1152 -259 1061 60 b 760 435 926 400 794 428 l 761 436 b 1245 859 1046 446 1245 575 b 844 1111 1245 1023 1105 1111 b 286 1122 813 1111 317 1120 l 282 1080 b 404 1082 309 1080 368 1082 b 456 1029 444 1082 456 1067 b 448 951 456 1009 453 984 l 319 167 b 218 64 307 95 260 64 b 145 127 182 64 150 86 l 130 123 b 305 -14 142 21 199 -14 b 533 320 456 -14 507 207 l 561 440 l 570 479 l 630 739 b 708 1079 643 795 699 998 b 838 1077 772 1078 822 1077 b 1031 889 964 1077 1031 1011 b 733 473 1031 624 918 473 l 620 477 b 597 455 605 478 600 467 l 595 439 b 665 399 617 438 646 433 b 1332 -336 945 -165 1131 -336 b 1601 -194 1523 -336 1601 -254 b 1478 -118 1601 -136 1514 -118 b 1304 -259 1453 -218 1400 -259 z "},"ŗ":{"ha":806,"x_min":0,"x_max":0,"o":"m 149 -166 b 216 -233 149 -202 178 -233 b 158 -317 193 -256 168 -281 l 179 -323 b 273 -203 193 -273 244 -249 b 284 -166 280 -192 284 -180 b 216 -98 284 -125 257 -98 b 149 -166 176 -98 149 -125 z m 337 658 b 151 551 262 658 195 638 l 111 474 l 123 468 l 163 545 b 224 609 183 585 207 609 b 244 563 236 609 244 595 b 239 511 244 549 243 532 l 157 22 b 157 15 157 19 157 16 b 243 -1 157 3 197 -1 l 331 0 b 345 7 331 0 345 3 l 418 293 b 662 627 463 471 575 627 b 761 492 717 627 753 580 b 783 488 768 489 774 488 b 897 599 832 488 897 534 b 760 714 897 668 842 714 b 460 491 655 714 521 612 b 461 521 460 503 461 510 b 337 658 461 597 433 658 z "},"Ř":{"ha":1255,"x_min":0,"x_max":0,"o":"m 873 1244 l 1068 1439 b 1011 1480 1043 1467 1025 1480 b 954 1432 996 1480 981 1463 b 855 1281 916 1390 859 1301 l 852 1281 b 755 1432 848 1301 793 1390 b 699 1480 728 1463 714 1480 b 641 1439 684 1480 666 1467 l 835 1244 z m 1304 -259 b 968 294 1152 -259 1061 60 b 760 435 926 400 794 428 l 761 436 b 1245 859 1046 446 1245 575 b 844 1111 1245 1023 1105 1111 b 286 1122 813 1111 317 1120 l 282 1080 b 404 1082 309 1080 368 1082 b 456 1029 444 1082 456 1067 b 448 951 456 1009 453 984 l 319 167 b 218 64 307 95 260 64 b 145 127 182 64 150 86 l 130 123 b 305 -14 142 21 199 -14 b 533 320 456 -14 507 207 l 561 440 l 570 479 l 630 739 b 708 1079 643 795 699 998 b 838 1077 772 1078 822 1077 b 1031 889 964 1077 1031 1011 b 733 473 1031 624 918 473 l 620 477 b 597 455 605 478 600 467 l 595 439 b 665 399 617 438 646 433 b 1332 -336 945 -165 1131 -336 b 1601 -194 1523 -336 1601 -254 b 1478 -118 1601 -136 1514 -118 b 1304 -259 1453 -218 1400 -259 z "},"ř":{"ha":806,"x_min":0,"x_max":0,"o":"m 601 864 l 796 1059 b 739 1101 771 1087 753 1101 b 682 1053 724 1101 709 1084 b 583 901 644 1010 587 922 l 581 901 b 484 1053 576 922 522 1010 b 427 1101 456 1084 442 1101 b 369 1059 412 1101 394 1087 l 563 864 z m 337 658 b 151 551 262 658 195 638 l 111 474 l 123 468 l 163 545 b 224 609 183 585 207 609 b 244 563 236 609 244 595 b 239 511 244 549 243 532 l 157 22 b 157 15 157 19 157 16 b 243 -1 157 3 197 -1 l 331 0 b 345 7 331 0 345 3 l 418 293 b 662 627 463 471 575 627 b 761 492 717 627 753 580 b 783 488 768 489 774 488 b 897 599 832 488 897 534 b 760 714 897 668 842 714 b 460 491 655 714 521 612 b 461 521 460 503 461 510 b 337 658 461 597 433 658 z "},"Ś":{"ha":1105,"x_min":0,"x_max":0,"o":"m 842 1486 b 829 1491 838 1489 833 1491 b 816 1485 824 1491 820 1489 l 657 1238 l 676 1221 l 882 1400 l 899 1421 b 904 1432 901 1425 904 1428 b 897 1445 904 1437 903 1441 z m 532 -14 b 1082 330 862 -14 1082 123 b 486 878 1082 610 486 646 b 752 1090 486 1006 593 1090 b 1006 797 953 1090 988 985 b 1144 909 1044 797 1144 842 b 759 1124 1144 1076 897 1124 b 269 757 441 1124 269 996 b 871 242 269 457 871 456 b 540 20 871 109 739 20 b 258 313 339 20 276 125 b 120 201 220 313 120 269 b 532 -14 120 31 391 -14 z "},"ś":{"ha":785,"x_min":0,"x_max":0,"o":"m 644 1106 b 632 1112 640 1109 636 1112 b 618 1105 627 1112 623 1109 l 460 858 l 479 842 l 685 1021 l 701 1041 b 707 1052 704 1045 707 1048 b 700 1065 707 1057 705 1061 z m 397 -14 b 782 199 601 -14 782 63 b 561 401 782 302 669 349 b 374 524 471 446 374 463 b 524 632 374 603 448 631 b 690 465 631 632 679 588 b 786 543 748 465 786 496 b 774 577 786 553 783 566 b 530 665 719 655 628 665 b 179 454 327 665 179 598 b 380 273 179 363 275 306 b 610 145 491 238 610 209 b 404 20 610 66 511 20 b 191 200 279 20 201 79 l 190 205 b 87 124 123 205 87 177 b 100 89 87 113 91 101 b 397 -14 159 4 284 -14 z "},"Ŝ":{"ha":1105,"x_min":0,"x_max":0,"o":"m 771 1480 l 733 1480 l 539 1285 b 595 1244 564 1257 581 1244 b 652 1292 611 1244 625 1261 b 751 1443 690 1334 747 1423 l 753 1443 b 853 1292 758 1423 815 1334 b 911 1244 880 1261 895 1244 b 966 1285 925 1244 941 1257 z m 532 -14 b 1082 330 862 -14 1082 123 b 486 878 1082 610 486 646 b 752 1090 486 1006 593 1090 b 1006 797 953 1090 988 985 b 1144 909 1044 797 1144 842 b 759 1124 1144 1076 897 1124 b 269 757 441 1124 269 996 b 871 242 269 457 871 456 b 540 20 871 109 739 20 b 258 313 339 20 276 125 b 120 201 220 313 120 269 b 532 -14 120 31 391 -14 z "},"ŝ":{"ha":785,"x_min":0,"x_max":0,"o":"m 574 1101 l 536 1101 l 342 905 b 398 864 367 878 384 864 b 455 912 414 864 428 881 b 553 1063 493 954 549 1043 l 556 1063 b 656 912 560 1043 618 954 b 713 864 683 881 698 864 b 769 905 728 864 744 878 z m 397 -14 b 782 199 601 -14 782 63 b 561 401 782 302 669 349 b 374 524 471 446 374 463 b 524 632 374 603 448 631 b 690 465 631 632 679 588 b 786 543 748 465 786 496 b 774 577 786 553 783 566 b 530 665 719 655 628 665 b 179 454 327 665 179 598 b 380 273 179 363 275 306 b 610 145 491 238 610 209 b 404 20 610 66 511 20 b 191 200 279 20 201 79 l 190 205 b 87 124 123 205 87 177 b 100 89 87 113 91 101 b 397 -14 159 4 284 -14 z "},"Ş":{"ha":1105,"x_min":0,"x_max":0,"o":"m 347 -297 b 618 -153 469 -297 618 -227 b 468 -85 618 -101 558 -85 l 503 -14 b 532 -14 513 -14 523 -14 b 1082 330 862 -14 1082 123 b 486 878 1082 610 486 646 b 752 1090 486 1006 593 1090 b 1006 797 953 1090 988 985 b 1144 909 1044 797 1144 842 b 759 1124 1144 1076 897 1124 b 269 757 441 1124 269 996 b 871 242 269 457 871 456 b 540 20 871 109 739 20 b 258 313 339 20 276 125 b 120 201 220 313 120 269 b 466 -12 120 55 320 1 l 415 -116 l 442 -116 b 537 -159 504 -116 537 -132 b 347 -278 537 -215 432 -278 z "},"ş":{"ha":764,"x_min":0,"x_max":0,"o":"m 219 -297 b 490 -153 340 -297 490 -227 b 340 -85 490 -101 430 -85 l 374 -14 b 397 -14 382 -14 390 -14 b 782 199 601 -14 782 63 b 561 401 782 302 669 349 b 374 524 471 446 374 463 b 524 632 374 603 448 631 b 690 465 631 632 679 588 b 786 543 748 465 786 496 b 774 577 786 553 783 566 b 530 665 719 655 628 665 b 179 454 327 665 179 598 b 380 273 179 363 275 306 b 610 145 491 238 610 209 b 404 20 610 66 511 20 b 191 200 279 20 201 79 l 190 205 b 87 124 123 205 87 177 b 100 89 87 113 91 101 b 338 -12 149 19 243 -6 l 287 -116 l 314 -116 b 409 -159 376 -116 409 -132 b 219 -278 409 -215 304 -278 z "},"Š":{"ha":1105,"x_min":0,"x_max":0,"o":"m 771 1244 l 966 1439 b 909 1480 941 1467 924 1480 b 852 1432 894 1480 879 1463 b 753 1281 814 1390 758 1301 l 751 1281 b 654 1432 747 1301 692 1390 b 597 1480 627 1463 612 1480 b 539 1439 583 1480 564 1467 l 733 1244 z m 532 -14 b 1082 330 862 -14 1082 123 b 486 878 1082 610 486 646 b 752 1090 486 1006 593 1090 b 1006 797 953 1090 988 985 b 1144 909 1044 797 1144 842 b 759 1124 1144 1076 897 1124 b 269 757 441 1124 269 996 b 871 242 269 457 871 456 b 540 20 871 109 739 20 b 258 313 339 20 276 125 b 120 201 220 313 120 269 b 532 -14 120 31 391 -14 z "},"š":{"ha":785,"x_min":0,"x_max":0,"o":"m 574 864 l 769 1059 b 712 1101 744 1087 726 1101 b 654 1053 696 1101 682 1084 b 556 901 616 1010 560 922 l 553 901 b 456 1053 549 922 494 1010 b 399 1101 429 1084 415 1101 b 342 1059 385 1101 367 1087 l 536 864 z m 397 -14 b 782 199 601 -14 782 63 b 561 401 782 302 669 349 b 374 524 471 446 374 463 b 524 632 374 603 448 631 b 690 465 631 632 679 588 b 786 543 748 465 786 496 b 774 577 786 553 783 566 b 530 665 719 655 628 665 b 179 454 327 665 179 598 b 380 273 179 363 275 306 b 610 145 491 238 610 209 b 404 20 610 66 511 20 b 191 200 279 20 201 79 l 190 205 b 87 124 123 205 87 177 b 100 89 87 113 91 101 b 397 -14 159 4 284 -14 z "},"Ţ":{"ha":899,"x_min":0,"x_max":0,"o":"m 607 167 b 506 64 595 95 548 64 b 433 127 471 64 438 86 l 418 123 b 562 -14 429 32 481 -9 l 512 -117 l 539 -117 b 635 -160 601 -117 635 -132 b 444 -278 635 -216 529 -278 l 444 -297 b 715 -153 566 -297 715 -227 b 565 -85 715 -102 655 -85 l 600 -13 b 821 320 755 4 795 206 l 921 753 b 999 1099 934 810 992 1024 b 1084 1099 1044 1099 1075 1099 b 1374 1095 1159 1099 1263 1095 b 1912 1202 1584 1095 1817 1111 b 1945 1272 1935 1228 1945 1251 b 1827 1364 1945 1327 1898 1364 b 1093 1133 1733 1168 1467 1133 b 277 1143 844 1133 307 1141 l 271 1094 b 694 1099 301 1096 500 1098 b 747 1044 734 1095 747 1080 b 738 965 747 1024 743 998 z "},"ţ":{"ha":596,"x_min":0,"x_max":0,"o":"m 180 -297 b 451 -153 301 -297 451 -227 b 300 -85 451 -101 391 -85 l 338 -7 b 374 -10 350 -9 361 -10 b 558 100 445 -10 520 26 l 618 218 l 606 224 l 559 134 b 442 70 541 98 488 70 b 370 144 404 70 370 91 b 374 174 370 153 372 163 l 471 616 l 679 616 l 679 651 l 479 651 l 536 909 b 537 913 536 910 537 913 b 522 917 537 916 530 917 l 444 917 b 287 766 381 917 300 850 l 269 651 l 132 651 l 132 616 l 264 616 l 219 327 b 200 158 212 281 200 217 b 305 1 200 76 245 24 l 248 -116 l 275 -116 b 370 -159 336 -116 370 -132 b 180 -278 370 -215 264 -278 z "},"Ť":{"ha":899,"x_min":0,"x_max":0,"o":"m 893 1244 l 1088 1439 b 1031 1480 1063 1467 1046 1480 b 974 1432 1016 1480 1001 1463 b 876 1281 936 1390 880 1301 l 873 1281 b 776 1432 869 1301 814 1390 b 719 1480 749 1463 734 1480 b 661 1439 705 1480 686 1467 l 855 1244 z m 433 127 l 418 123 b 579 -14 430 26 488 -14 b 821 320 751 -14 795 201 l 921 753 b 999 1099 934 810 992 1024 b 1084 1099 1044 1099 1075 1099 b 1374 1095 1159 1099 1263 1095 b 1912 1202 1584 1095 1817 1111 b 1945 1272 1935 1228 1945 1251 b 1827 1364 1945 1327 1898 1364 b 1093 1133 1733 1168 1467 1133 b 277 1143 844 1133 307 1141 l 271 1094 b 694 1099 301 1096 500 1098 b 747 1044 734 1095 747 1080 b 738 965 747 1024 743 998 l 607 167 b 506 64 595 96 548 64 b 433 127 471 64 438 86 z "},"ť":{"ha":792,"x_min":0,"x_max":0,"o":"m 715 933 b 821 828 715 870 763 828 b 730 696 785 793 746 754 l 763 687 b 911 879 785 768 866 804 b 926 933 920 895 926 913 b 821 1038 926 1002 889 1038 b 715 933 753 1038 715 1002 z m 264 616 l 219 327 b 200 158 212 281 200 217 b 374 -10 200 46 284 -10 b 558 100 445 -10 520 26 l 618 218 l 606 224 l 559 134 b 442 70 541 98 488 70 b 370 144 404 70 370 91 b 374 174 370 153 372 163 l 471 616 l 679 616 l 679 651 l 479 651 l 536 909 b 537 913 536 910 537 913 b 522 917 537 916 530 917 l 444 917 b 287 766 381 917 300 850 l 269 651 l 132 651 l 132 616 z "},"Ŧ":{"ha":994,"x_min":0,"x_max":0,"o":"m 433 127 l 418 123 b 579 -14 430 26 488 -14 b 821 320 751 -14 795 201 l 921 753 b 941 834 924 770 932 799 b 1094 829 1034 833 1077 829 l 1101 828 l 1107 886 l 1099 885 b 952 879 1067 882 1008 880 b 999 1099 972 960 995 1055 b 1084 1099 1044 1099 1075 1099 b 1374 1095 1159 1099 1263 1095 b 1912 1202 1584 1095 1817 1111 b 1945 1272 1935 1228 1945 1251 b 1827 1364 1945 1327 1898 1364 b 1093 1133 1733 1168 1467 1133 b 277 1143 844 1133 307 1141 l 271 1094 b 694 1099 301 1096 500 1098 b 747 1044 734 1095 747 1080 b 738 965 747 1024 743 998 l 724 879 b 608 884 653 880 619 883 l 602 884 l 595 827 l 604 827 b 716 833 631 829 673 831 l 607 167 b 506 64 595 96 548 64 b 433 127 471 64 438 86 z "},"ŧ":{"ha":596,"x_min":0,"x_max":0,"o":"m 264 616 l 241 464 b 159 467 191 465 167 467 l 154 467 l 149 422 l 155 422 b 235 427 175 424 204 425 l 219 327 b 200 158 212 281 200 217 b 374 -10 200 46 284 -10 b 558 100 445 -10 520 26 l 618 218 l 606 224 l 559 134 b 442 70 541 98 488 70 b 370 144 404 70 370 91 b 374 174 370 153 372 163 l 430 428 b 547 423 501 427 534 424 l 553 423 l 558 469 l 551 469 b 438 464 527 467 481 465 l 471 616 l 679 616 l 679 651 l 479 651 l 536 909 b 537 913 536 910 537 913 b 522 917 537 916 530 917 l 444 917 b 287 766 381 917 300 850 l 269 651 l 132 651 l 132 616 z "},"Ũ":{"ha":1173,"x_min":0,"x_max":0,"o":"m 1004 1386 l 1018 1440 l 983 1449 l 969 1394 b 919 1345 960 1358 941 1345 b 688 1478 858 1345 763 1478 b 606 1351 653 1478 625 1421 l 591 1295 l 626 1287 l 641 1343 b 686 1385 649 1374 665 1385 b 916 1251 744 1385 839 1251 b 1004 1386 954 1251 984 1309 z m 243 971 l 256 965 b 329 1028 277 1006 307 1028 b 363 976 349 1028 363 1012 b 356 925 363 962 361 945 l 233 358 b 216 220 222 311 216 264 b 417 -13 216 89 270 -13 b 645 78 474 -13 570 16 l 846 243 b 843 180 844 222 843 201 b 985 -12 843 52 911 -12 b 1143 100 1042 -12 1104 25 l 1182 177 l 1170 183 l 1131 106 b 1048 42 1110 66 1076 42 b 1008 98 1025 42 1008 59 b 1013 140 1008 110 1010 124 l 1218 1089 b 1219 1090 1219 1090 1219 1090 b 1126 1111 1219 1104 1172 1111 l 1000 1111 b 987 1103 1000 1111 987 1109 l 859 358 b 850 292 856 338 852 316 l 623 104 b 491 58 594 80 524 58 b 391 167 421 58 391 102 b 406 255 391 193 396 223 l 555 775 b 578 926 569 826 578 878 b 410 1115 578 1031 535 1115 b 257 998 355 1115 299 1080 z "},"ũ":{"ha":1007,"x_min":0,"x_max":0,"o":"m 823 1006 l 837 1061 l 802 1069 l 788 1015 b 738 966 779 978 760 966 b 507 1099 677 966 582 1099 b 425 971 472 1099 444 1042 l 410 916 l 445 907 l 460 963 b 505 1005 468 994 484 1005 b 735 871 563 1005 658 871 b 823 1006 773 871 803 929 z m 297 667 b 158 551 243 667 199 632 l 95 427 l 106 420 l 157 517 b 229 581 178 558 206 581 b 261 530 248 581 261 565 b 254 477 261 515 259 498 l 224 358 b 199 181 210 300 199 237 b 351 -13 199 73 237 -13 b 551 78 407 -13 477 16 l 696 197 b 838 -12 696 52 756 -12 b 995 100 895 -12 957 26 l 1034 177 l 1022 183 l 983 106 b 901 42 962 66 928 42 b 861 101 879 42 861 60 b 865 140 861 113 863 125 l 975 629 l 975 631 b 882 651 975 644 928 651 l 770 651 b 756 644 764 651 757 649 l 711 358 b 699 243 707 326 701 286 l 530 104 b 425 58 500 80 457 58 b 378 128 389 58 378 89 b 404 255 378 169 391 219 l 430 328 b 463 490 451 382 463 439 b 297 667 463 589 418 667 z "},"Ū":{"ha":1173,"x_min":0,"x_max":0,"o":"m 819 1348 b 1032 1341 971 1348 1012 1342 l 1039 1340 l 1045 1398 l 1037 1397 b 852 1390 985 1393 905 1390 b 631 1396 702 1390 650 1394 l 625 1396 l 618 1339 l 626 1339 b 819 1348 679 1343 765 1348 z m 243 971 l 256 965 b 329 1028 277 1006 307 1028 b 363 976 349 1028 363 1012 b 356 925 363 962 361 945 l 233 358 b 216 220 222 311 216 264 b 417 -13 216 89 270 -13 b 645 78 474 -13 570 16 l 846 243 b 843 180 844 222 843 201 b 985 -12 843 52 911 -12 b 1143 100 1042 -12 1104 25 l 1182 177 l 1170 183 l 1131 106 b 1048 42 1110 66 1076 42 b 1008 98 1025 42 1008 59 b 1013 140 1008 110 1010 124 l 1218 1089 b 1219 1090 1219 1090 1219 1090 b 1126 1111 1219 1104 1172 1111 l 1000 1111 b 987 1103 1000 1111 987 1109 l 859 358 b 850 292 856 338 852 316 l 623 104 b 491 58 594 80 524 58 b 391 167 421 58 391 102 b 406 255 391 193 396 223 l 555 775 b 578 926 569 826 578 878 b 410 1115 578 1031 535 1115 b 257 998 355 1115 299 1080 z "},"ū":{"ha":1007,"x_min":0,"x_max":0,"o":"m 637 968 b 851 961 790 968 831 962 l 858 960 l 864 1018 l 856 1017 b 671 1010 804 1013 724 1010 b 450 1016 521 1010 469 1015 l 444 1016 l 437 959 l 445 960 b 637 968 497 964 584 968 z m 297 667 b 158 551 243 667 199 632 l 95 427 l 106 420 l 157 517 b 229 581 178 558 206 581 b 261 530 248 581 261 565 b 254 477 261 515 259 498 l 224 358 b 199 181 210 300 199 237 b 351 -13 199 73 237 -13 b 551 78 407 -13 477 16 l 696 197 b 838 -12 696 52 756 -12 b 995 100 895 -12 957 26 l 1034 177 l 1022 183 l 983 106 b 901 42 962 66 928 42 b 861 101 879 42 861 60 b 865 140 861 113 863 125 l 975 629 l 975 631 b 882 651 975 644 928 651 l 770 651 b 756 644 764 651 757 649 l 711 358 b 699 243 707 326 701 286 l 530 104 b 425 58 500 80 457 58 b 378 128 389 58 378 89 b 404 255 378 169 391 219 l 430 328 b 463 490 451 382 463 439 b 297 667 463 589 418 667 z "},"Ŭ":{"ha":1173,"x_min":0,"x_max":0,"o":"m 604 1463 b 818 1246 674 1331 720 1246 b 1031 1463 923 1246 976 1339 l 1002 1478 b 818 1323 945 1395 907 1323 b 640 1478 743 1323 709 1377 z m 243 971 l 256 965 b 329 1028 277 1006 307 1028 b 363 976 349 1028 363 1012 b 356 925 363 962 361 945 l 233 358 b 216 220 222 311 216 264 b 417 -13 216 89 270 -13 b 645 78 474 -13 570 16 l 846 243 b 843 180 844 222 843 201 b 985 -12 843 52 911 -12 b 1143 100 1042 -12 1104 25 l 1182 177 l 1170 183 l 1131 106 b 1048 42 1110 66 1076 42 b 1008 98 1025 42 1008 59 b 1013 140 1008 110 1010 124 l 1218 1089 b 1219 1090 1219 1090 1219 1090 b 1126 1111 1219 1104 1172 1111 l 1000 1111 b 987 1103 1000 1111 987 1109 l 859 358 b 850 292 856 338 852 316 l 623 104 b 491 58 594 80 524 58 b 391 167 421 58 391 102 b 406 255 391 193 396 223 l 555 775 b 578 926 569 826 578 878 b 410 1115 578 1031 535 1115 b 257 998 355 1115 299 1080 z "},"ŭ":{"ha":1007,"x_min":0,"x_max":0,"o":"m 423 1083 b 636 867 493 951 538 867 b 850 1083 742 867 795 960 l 821 1098 b 637 943 764 1015 726 943 b 459 1098 562 943 528 997 z m 297 667 b 158 551 243 667 199 632 l 95 427 l 106 420 l 157 517 b 229 581 178 558 206 581 b 261 530 248 581 261 565 b 254 477 261 515 259 498 l 224 358 b 199 181 210 300 199 237 b 351 -13 199 73 237 -13 b 551 78 407 -13 477 16 l 696 197 b 838 -12 696 52 756 -12 b 995 100 895 -12 957 26 l 1034 177 l 1022 183 l 983 106 b 901 42 962 66 928 42 b 861 101 879 42 861 60 b 865 140 861 113 863 125 l 975 629 l 975 631 b 882 651 975 644 928 651 l 770 651 b 756 644 764 651 757 649 l 711 358 b 699 243 707 326 701 286 l 530 104 b 425 58 500 80 457 58 b 378 128 389 58 378 89 b 404 255 378 169 391 219 l 430 328 b 463 490 451 382 463 439 b 297 667 463 589 418 667 z "},"Ů":{"ha":1173,"x_min":0,"x_max":0,"o":"m 696 1348 b 804 1456 696 1413 739 1456 b 913 1348 869 1456 913 1413 b 804 1239 913 1282 869 1239 b 696 1348 739 1239 696 1282 z m 662 1348 b 804 1205 662 1269 726 1205 b 947 1348 883 1205 947 1269 b 804 1490 947 1433 890 1490 b 662 1348 719 1490 662 1433 z m 243 971 l 256 965 b 329 1028 277 1006 307 1028 b 363 976 349 1028 363 1012 b 356 925 363 962 361 945 l 233 358 b 216 220 222 311 216 264 b 417 -13 216 89 270 -13 b 645 78 474 -13 570 16 l 846 243 b 843 180 844 222 843 201 b 985 -12 843 52 911 -12 b 1143 100 1042 -12 1104 25 l 1182 177 l 1170 183 l 1131 106 b 1048 42 1110 66 1076 42 b 1008 98 1025 42 1008 59 b 1013 140 1008 110 1010 124 l 1218 1089 b 1219 1090 1219 1090 1219 1090 b 1126 1111 1219 1104 1172 1111 l 1000 1111 b 987 1103 1000 1111 987 1109 l 859 358 b 850 292 856 338 852 316 l 623 104 b 491 58 594 80 524 58 b 391 167 421 58 391 102 b 406 255 391 193 396 223 l 555 775 b 578 926 569 826 578 878 b 410 1115 578 1031 535 1115 b 257 998 355 1115 299 1080 z "},"ů":{"ha":1007,"x_min":0,"x_max":0,"o":"m 515 968 b 623 1076 515 1033 558 1076 b 732 968 688 1076 732 1033 b 623 859 732 903 688 859 b 515 968 558 859 515 903 z m 481 968 b 623 825 481 889 545 825 b 766 968 702 825 766 889 b 623 1110 766 1053 709 1110 b 481 968 538 1110 481 1053 z m 297 667 b 158 551 243 667 199 632 l 95 427 l 106 420 l 157 517 b 229 581 178 558 206 581 b 261 530 248 581 261 565 b 254 477 261 515 259 498 l 224 358 b 199 181 210 300 199 237 b 351 -13 199 73 237 -13 b 551 78 407 -13 477 16 l 696 197 b 838 -12 696 52 756 -12 b 995 100 895 -12 957 26 l 1034 177 l 1022 183 l 983 106 b 901 42 962 66 928 42 b 861 101 879 42 861 60 b 865 140 861 113 863 125 l 975 629 l 975 631 b 882 651 975 644 928 651 l 770 651 b 756 644 764 651 757 649 l 711 358 b 699 243 707 326 701 286 l 530 104 b 425 58 500 80 457 58 b 378 128 389 58 378 89 b 404 255 378 169 391 219 l 430 328 b 463 490 451 382 463 439 b 297 667 463 589 418 667 z "},"Ű":{"ha":1173,"x_min":0,"x_max":0,"o":"m 711 1486 b 699 1491 707 1489 703 1491 b 685 1485 693 1491 689 1489 l 526 1238 l 545 1221 l 751 1400 l 768 1421 b 773 1432 770 1425 773 1428 b 766 1445 773 1437 772 1441 z m 1019 1486 b 1006 1491 1015 1489 1010 1491 b 993 1485 1001 1491 997 1489 l 834 1238 l 853 1221 l 1059 1400 l 1076 1421 b 1081 1432 1078 1425 1081 1428 b 1074 1445 1081 1437 1080 1441 z m 243 971 l 256 965 b 329 1028 277 1006 307 1028 b 363 976 349 1028 363 1012 b 356 925 363 962 361 945 l 233 358 b 216 220 222 311 216 264 b 417 -13 216 89 270 -13 b 645 78 474 -13 570 16 l 846 243 b 843 180 844 222 843 201 b 985 -12 843 52 911 -12 b 1143 100 1042 -12 1104 25 l 1182 177 l 1170 183 l 1131 106 b 1048 42 1110 66 1076 42 b 1008 98 1025 42 1008 59 b 1013 140 1008 110 1010 124 l 1218 1089 b 1219 1090 1219 1090 1219 1090 b 1126 1111 1219 1104 1172 1111 l 1000 1111 b 987 1103 1000 1111 987 1109 l 859 358 b 850 292 856 338 852 316 l 623 104 b 491 58 594 80 524 58 b 391 167 421 58 391 102 b 406 255 391 193 396 223 l 555 775 b 578 926 569 826 578 878 b 410 1115 578 1031 535 1115 b 257 998 355 1115 299 1080 z "},"ű":{"ha":1007,"x_min":0,"x_max":0,"o":"m 530 1106 b 517 1112 526 1109 522 1112 b 504 1105 512 1112 508 1109 l 345 858 l 364 842 l 570 1021 l 587 1041 b 592 1052 589 1045 592 1048 b 585 1065 592 1057 591 1061 z m 838 1106 b 825 1112 833 1109 829 1112 b 812 1105 820 1112 816 1109 l 653 858 l 672 842 l 878 1021 l 895 1041 b 900 1052 897 1045 900 1048 b 893 1065 900 1057 899 1061 z m 297 667 b 158 551 243 667 199 632 l 95 427 l 106 420 l 157 517 b 229 581 178 558 206 581 b 261 530 248 581 261 565 b 254 477 261 515 259 498 l 224 358 b 199 181 210 300 199 237 b 351 -13 199 73 237 -13 b 551 78 407 -13 477 16 l 696 197 b 838 -12 696 52 756 -12 b 995 100 895 -12 957 26 l 1034 177 l 1022 183 l 983 106 b 901 42 962 66 928 42 b 861 101 879 42 861 60 b 865 140 861 113 863 125 l 975 629 l 975 631 b 882 651 975 644 928 651 l 770 651 b 756 644 764 651 757 649 l 711 358 b 699 243 707 326 701 286 l 530 104 b 425 58 500 80 457 58 b 378 128 389 58 378 89 b 404 255 378 169 391 219 l 430 328 b 463 490 451 382 463 439 b 297 667 463 589 418 667 z "},"Ų":{"ha":1173,"x_min":0,"x_max":0,"o":"m 243 971 l 256 965 b 329 1028 277 1006 307 1028 b 363 976 349 1028 363 1012 b 356 925 363 962 361 945 l 233 358 b 216 220 222 311 216 264 b 417 -13 216 89 270 -13 b 645 78 474 -13 570 16 l 846 243 b 843 180 844 222 843 201 b 985 -12 843 52 911 -12 b 1029 -5 1000 -12 1015 -10 b 912 -181 978 -58 912 -122 b 1055 -277 912 -239 969 -277 b 1167 -195 1122 -277 1167 -244 b 1148 -149 1167 -180 1162 -164 b 1061 -206 1132 -174 1103 -206 b 977 -142 1011 -206 977 -180 b 1083 14 977 -99 1032 -47 b 1143 100 1105 41 1127 70 l 1182 177 l 1170 183 l 1131 106 b 1048 42 1110 66 1076 42 b 1008 98 1025 42 1008 59 b 1013 140 1008 110 1010 124 l 1218 1089 b 1219 1090 1219 1090 1219 1090 b 1126 1111 1219 1104 1172 1111 l 1000 1111 b 987 1103 1000 1111 987 1109 l 859 358 b 850 292 856 338 852 316 l 623 104 b 491 58 594 80 524 58 b 391 167 421 58 391 102 b 406 255 391 193 396 223 l 555 775 b 578 926 569 826 578 878 b 410 1115 578 1031 535 1115 b 257 998 355 1115 299 1080 z "},"ų":{"ha":1007,"x_min":0,"x_max":0,"o":"m 297 667 b 158 551 243 667 199 632 l 95 427 l 106 420 l 157 517 b 229 581 178 558 206 581 b 261 530 248 581 261 565 b 254 477 261 515 259 498 l 224 358 b 199 181 210 300 199 237 b 351 -13 199 73 237 -13 b 551 78 407 -13 477 16 l 696 197 b 838 -12 696 52 756 -12 b 882 -4 852 -12 867 -9 b 764 -181 831 -57 764 -119 b 907 -277 764 -239 821 -277 b 1019 -195 975 -277 1019 -244 b 1000 -149 1019 -180 1014 -164 b 913 -206 984 -174 955 -206 b 829 -142 863 -206 829 -180 b 930 8 829 -104 880 -52 b 995 100 954 37 978 67 l 1034 177 l 1022 183 l 983 106 b 901 42 962 66 928 42 b 861 101 879 42 861 60 b 865 140 861 113 863 125 l 975 629 l 975 631 b 882 651 975 644 928 651 l 770 651 b 756 644 764 651 757 649 l 711 358 b 699 243 707 326 701 286 l 530 104 b 425 58 500 80 457 58 b 378 128 389 58 378 89 b 404 255 378 169 391 219 l 430 328 b 463 490 451 382 463 439 b 297 667 463 589 418 667 z "},"Ŵ":{"ha":1618,"x_min":0,"x_max":0,"o":"m 1097 1480 l 1059 1480 l 865 1285 b 921 1244 890 1257 907 1244 b 978 1292 937 1244 951 1261 b 1076 1443 1016 1334 1072 1423 l 1079 1443 b 1179 1292 1083 1423 1141 1334 b 1236 1244 1206 1261 1221 1244 b 1292 1285 1251 1244 1267 1257 z m 945 391 b 661 64 865 213 750 64 b 517 299 549 64 517 166 b 588 944 517 498 588 776 b 393 1128 588 1047 528 1128 b 239 983 326 1128 283 1069 l 252 979 b 311 1041 275 1023 295 1041 b 364 877 347 1041 364 994 b 351 713 364 856 357 794 b 343 505 347 652 343 579 b 592 -13 343 267 383 -13 b 950 323 732 -13 858 135 b 1189 -13 972 137 1035 -13 b 1531 237 1315 -13 1437 84 b 1712 930 1640 414 1712 667 b 1647 1114 1712 994 1696 1054 b 1589 1147 1629 1137 1609 1147 b 1465 1034 1531 1147 1474 1069 b 1635 766 1592 987 1635 883 b 1503 258 1635 579 1581 393 b 1258 64 1434 141 1346 64 b 1114 299 1147 64 1114 163 b 1185 944 1114 498 1185 776 b 1017 1111 1185 1031 1143 1111 l 1017 1111 l 876 1111 l 877 1095 b 965 933 949 1095 965 1012 b 960 842 965 900 962 867 b 941 505 951 745 941 625 b 945 391 941 467 942 428 z "},"ŵ":{"ha":1223,"x_min":0,"x_max":0,"o":"m 804 1101 l 766 1101 l 572 905 b 629 864 597 878 614 864 b 686 912 644 864 659 881 b 784 1063 724 954 780 1043 l 787 1063 b 886 912 791 1043 848 954 b 944 864 913 881 928 864 b 1000 905 958 864 975 878 z m 106 490 l 118 482 l 136 517 b 191 579 159 562 177 579 b 233 380 227 579 233 452 b 450 -13 233 130 305 -13 b 699 144 545 -13 631 53 b 884 -13 728 43 784 -13 b 1246 503 1080 -13 1246 287 b 1135 715 1246 642 1208 715 b 1019 609 1074 715 1036 633 b 1164 360 1099 578 1164 495 b 952 51 1164 229 1036 51 b 839 175 864 51 839 102 b 880 498 839 269 880 398 b 711 651 880 586 836 651 l 583 651 l 584 635 b 669 467 659 635 669 547 b 687 197 669 361 673 270 b 517 51 640 115 567 51 b 418 196 422 51 418 112 b 452 483 418 282 452 391 b 277 667 452 586 412 667 b 138 551 222 667 179 632 z "},"Ŷ":{"ha":877,"x_min":0,"x_max":0,"o":"m 873 1480 l 835 1480 l 641 1285 b 697 1244 666 1257 683 1244 b 754 1292 713 1244 727 1261 b 852 1443 792 1334 848 1423 l 855 1443 b 955 1292 859 1423 917 1334 b 1013 1244 982 1261 997 1244 b 1068 1285 1027 1244 1043 1257 z m 661 7 l 723 264 b 788 532 734 312 771 444 b 1543 1037 1105 1026 1347 1037 b 1562 1116 1553 1053 1562 1084 b 1481 1211 1562 1164 1543 1211 b 780 581 1217 1211 1004 922 l 777 581 b 433 1122 726 840 661 1122 b 260 1005 378 1122 302 1086 l 244 975 l 257 970 l 258 972 b 334 1034 281 1017 316 1034 b 554 543 456 1034 503 791 b 541 436 551 516 546 481 l 492 33 b 490 21 492 30 490 21 b 583 0 490 7 536 0 l 647 0 b 661 7 652 0 660 3 z "},"ŷ":{"ha":873,"x_min":0,"x_max":0,"o":"m 621 1101 l 583 1101 l 389 905 b 446 864 414 878 431 864 b 503 912 461 864 475 881 b 601 1063 541 954 597 1043 l 604 1063 b 703 912 608 1043 665 954 b 761 864 730 881 745 864 b 817 905 775 864 791 878 z m 138 551 l 106 490 l 118 482 l 136 517 b 191 581 159 563 177 581 b 233 387 227 581 233 509 b 533 -108 233 98 427 -64 b 307 -231 464 -178 385 -231 b 154 19 165 -231 154 -131 b 21 -90 74 19 21 -24 b 297 -278 21 -203 132 -278 b 648 -45 418 -278 543 -178 b 903 536 795 142 903 396 b 783 675 903 619 855 675 b 666 568 715 675 683 593 b 805 383 725 543 805 471 b 621 -7 805 283 726 130 b 446 379 490 45 446 212 b 452 504 446 421 452 461 b 276 667 452 602 381 667 b 138 551 222 667 179 632 z "},"Ÿ":{"ha":877,"x_min":0,"x_max":0,"o":"m 610 1387 b 695 1302 610 1342 646 1302 b 780 1387 740 1302 780 1338 b 695 1472 780 1438 746 1472 b 610 1387 644 1472 610 1438 z m 929 1387 b 1014 1302 929 1342 965 1302 b 1099 1387 1059 1302 1099 1338 b 1014 1472 1099 1438 1065 1472 b 929 1387 963 1472 929 1438 z m 661 7 l 723 264 b 788 532 734 312 771 444 b 1543 1037 1105 1026 1347 1037 b 1562 1116 1553 1053 1562 1084 b 1481 1211 1562 1164 1543 1211 b 780 581 1217 1211 1004 922 l 777 581 b 433 1122 726 840 661 1122 b 260 1005 378 1122 302 1086 l 244 975 l 257 970 l 258 972 b 334 1034 281 1017 316 1034 b 554 543 456 1034 503 791 b 541 436 551 516 546 481 l 492 33 b 490 21 492 30 490 21 b 583 0 490 7 536 0 l 647 0 b 661 7 652 0 660 3 z "},"Ź":{"ha":1078,"x_min":0,"x_max":0,"o":"m 842 1486 b 829 1491 838 1489 833 1491 b 816 1485 824 1491 820 1489 l 657 1238 l 676 1221 l 882 1400 l 899 1421 b 904 1432 901 1425 904 1428 b 897 1445 904 1437 903 1441 z m 68 -16 b 327 -9 151 -14 252 -9 b 837 -92 587 -9 731 -92 b 1019 66 907 -92 960 -56 l 1094 224 l 1082 231 l 1006 74 b 801 12 982 25 906 12 b 376 28 684 12 530 28 b 302 27 351 28 326 28 l 303 31 b 404 120 327 45 366 71 l 1094 1006 b 1193 1120 1165 1082 1193 1107 b 1190 1127 1193 1123 1192 1125 l 926 1097 b 819 1090 887 1092 852 1090 b 433 1158 621 1090 513 1158 b 259 939 366 1158 319 1111 l 216 817 l 229 812 l 270 879 b 882 1051 376 1050 568 1007 l 880 1046 b 786 956 857 1032 825 1002 l 155 106 b 68 -16 78 3 72 3 z "},"ź":{"ha":838,"x_min":0,"x_max":0,"o":"m 665 1106 b 652 1112 661 1109 656 1112 b 639 1105 647 1112 643 1109 l 480 858 l 499 842 l 705 1021 l 722 1041 b 727 1052 724 1045 727 1048 b 720 1065 727 1057 726 1061 z m 41 0 b 287 4 123 1 205 4 b 657 -71 508 4 594 -71 b 779 66 699 -71 729 -39 l 856 232 l 844 239 l 778 98 b 631 33 751 41 711 33 b 349 41 566 33 475 41 b 296 41 332 41 315 41 l 274 41 l 275 45 b 377 133 299 59 334 87 l 759 530 b 861 650 831 606 861 635 b 859 657 861 653 860 655 b 545 644 754 652 651 644 b 279 675 406 644 334 675 b 109 468 213 675 180 637 l 121 462 b 383 587 215 594 251 575 l 568 604 l 566 600 b 471 511 543 586 511 555 l 127 121 b 41 0 42 24 44 18 z "},"Ż":{"ha":1078,"x_min":0,"x_max":0,"o":"m 634 1387 b 739 1282 634 1330 680 1282 b 844 1387 796 1282 844 1327 b 739 1492 844 1444 799 1492 b 634 1387 683 1492 634 1447 z m 68 -16 b 327 -9 151 -14 252 -9 b 837 -92 587 -9 731 -92 b 1019 66 907 -92 960 -56 l 1094 224 l 1082 231 l 1006 74 b 801 12 982 25 906 12 b 376 28 684 12 530 28 b 302 27 351 28 326 28 l 303 31 b 404 120 327 45 366 71 l 1094 1006 b 1193 1120 1165 1082 1193 1107 b 1190 1127 1193 1123 1192 1125 l 926 1097 b 819 1090 887 1092 852 1090 b 433 1158 621 1090 513 1158 b 259 939 366 1158 319 1111 l 216 817 l 229 812 l 270 879 b 882 1051 376 1050 568 1007 l 880 1046 b 786 956 857 1032 825 1002 l 155 106 b 68 -16 78 3 72 3 z "},"ż":{"ha":838,"x_min":0,"x_max":0,"o":"m 457 1007 b 562 902 457 950 503 902 b 667 1007 618 902 667 947 b 562 1112 667 1064 621 1112 b 457 1007 505 1112 457 1067 z m 41 0 b 287 4 123 1 205 4 b 657 -71 508 4 594 -71 b 779 66 699 -71 729 -39 l 856 232 l 844 239 l 778 98 b 631 33 751 41 711 33 b 349 41 566 33 475 41 b 296 41 332 41 315 41 l 274 41 l 275 45 b 377 133 299 59 334 87 l 759 530 b 861 650 831 606 861 635 b 859 657 861 653 860 655 b 545 644 754 652 651 644 b 279 675 406 644 334 675 b 109 468 213 675 180 637 l 121 462 b 383 587 215 594 251 575 l 568 604 l 566 600 b 471 511 543 586 511 555 l 127 121 b 41 0 42 24 44 18 z "},"Ž":{"ha":1078,"x_min":0,"x_max":0,"o":"m 771 1244 l 966 1439 b 909 1480 941 1467 924 1480 b 852 1432 894 1480 879 1463 b 753 1281 814 1390 758 1301 l 751 1281 b 654 1432 747 1301 692 1390 b 597 1480 627 1463 612 1480 b 539 1439 583 1480 564 1467 l 733 1244 z m 68 -16 b 327 -9 151 -14 252 -9 b 837 -92 587 -9 731 -92 b 1019 66 907 -92 960 -56 l 1094 224 l 1082 231 l 1006 74 b 801 12 982 25 906 12 b 376 28 684 12 530 28 b 302 27 351 28 326 28 l 303 31 b 404 120 327 45 366 71 l 1094 1006 b 1193 1120 1165 1082 1193 1107 b 1190 1127 1193 1123 1192 1125 l 926 1097 b 819 1090 887 1092 852 1090 b 433 1158 621 1090 513 1158 b 259 939 366 1158 319 1111 l 216 817 l 229 812 l 270 879 b 882 1051 376 1050 568 1007 l 880 1046 b 786 956 857 1032 825 1002 l 155 106 b 68 -16 78 3 72 3 z "},"ž":{"ha":838,"x_min":0,"x_max":0,"o":"m 594 864 l 789 1059 b 732 1101 764 1087 747 1101 b 675 1053 717 1101 702 1084 b 576 901 637 1010 581 922 l 574 901 b 477 1053 570 922 515 1010 b 420 1101 450 1084 435 1101 b 362 1059 406 1101 387 1087 l 556 864 z m 41 0 b 287 4 123 1 205 4 b 657 -71 508 4 594 -71 b 779 66 699 -71 729 -39 l 856 232 l 844 239 l 778 98 b 631 33 751 41 711 33 b 349 41 566 33 475 41 b 296 41 332 41 315 41 l 274 41 l 275 45 b 377 133 299 59 334 87 l 759 530 b 861 650 831 606 861 635 b 859 657 861 653 860 655 b 545 644 754 652 651 644 b 279 675 406 644 334 675 b 109 468 213 675 180 637 l 121 462 b 383 587 215 594 251 575 l 568 604 l 566 600 b 471 511 543 586 511 555 l 127 121 b 41 0 42 24 44 18 z "},"Ǎ":{"ha":1349,"x_min":0,"x_max":0,"o":"m 995 1325 l 1190 1520 b 1133 1562 1165 1548 1147 1562 b 1076 1514 1118 1562 1103 1545 b 977 1362 1038 1472 981 1383 l 975 1362 b 878 1514 970 1383 916 1472 b 821 1562 850 1545 836 1562 b 763 1520 806 1562 788 1548 l 957 1325 z m 654 331 b 954 261 749 309 854 279 b 1501 -336 1002 -103 1209 -336 b 1771 -194 1693 -336 1771 -254 b 1648 -118 1771 -149 1722 -118 b 1474 -259 1629 -217 1570 -259 b 1097 245 1192 -259 1111 -174 b 1352 425 1226 245 1325 284 l 1332 441 b 1096 343 1308 370 1215 346 b 1095 393 1095 359 1095 376 b 1116 837 1095 535 1116 694 b 908 1244 1116 1025 1080 1187 b 910 1214 909 1235 910 1225 b 841 932 910 1114 861 951 b 871 901 852 925 863 914 b 634 381 806 799 728 576 b 484 391 580 387 529 391 b 109 116 256 391 109 304 b 296 -45 109 20 184 -45 b 654 331 433 -45 557 133 z m 614 339 b 308 16 536 191 425 16 b 159 136 218 16 159 64 b 477 357 159 287 290 357 b 614 339 517 357 564 350 z m 676 377 b 889 868 765 568 836 773 b 943 429 930 772 943 598 b 945 349 943 401 943 375 b 676 377 857 355 764 368 z "},"ǎ":{"ha":1065,"x_min":0,"x_max":0,"o":"m 608 864 l 803 1059 b 746 1101 778 1087 760 1101 b 688 1053 730 1101 715 1084 b 590 901 650 1010 594 922 l 587 901 b 490 1053 583 922 528 1010 b 433 1101 463 1084 449 1101 b 376 1059 419 1101 401 1087 l 570 864 z m 855 651 b 756 572 840 651 787 643 b 547 665 722 633 654 665 b 114 251 288 665 114 499 b 415 -14 114 92 235 -14 b 718 193 588 -14 668 89 b 876 -14 718 60 794 -14 b 1034 100 934 -14 995 23 l 1094 218 l 1082 224 l 1036 134 b 940 70 1015 93 975 70 b 878 142 906 70 878 92 b 881 174 878 151 879 162 l 912 293 b 989 651 928 351 983 577 z m 735 551 b 739 532 738 547 739 540 b 736 505 739 522 737 511 l 724 327 b 714 269 724 318 720 283 b 475 33 674 165 602 33 b 323 188 376 33 323 87 b 602 629 323 452 435 629 b 735 551 649 629 707 606 z "},"Ǐ":{"ha":475,"x_min":0,"x_max":0,"o":"m 526 1244 l 722 1439 b 665 1480 697 1467 680 1480 b 608 1432 650 1480 635 1463 b 509 1281 570 1390 513 1301 l 506 1281 b 410 1432 502 1301 448 1390 b 353 1480 382 1463 368 1480 b 294 1439 338 1480 320 1467 l 488 1244 z m 244 1113 l 242 1099 b 357 1044 331 1099 357 1093 b 347 965 357 1025 353 1000 l 185 22 b 184 14 185 20 184 15 b 277 0 184 3 232 0 l 342 0 b 356 7 347 0 355 3 l 524 753 b 606 1112 538 811 599 1038 l 444 1111 z "},"ǐ":{"ha":550,"x_min":0,"x_max":0,"o":"m 430 864 l 625 1059 b 568 1101 600 1087 583 1101 b 511 1053 553 1101 538 1084 b 412 901 473 1010 416 922 l 410 901 b 313 1053 406 922 351 1010 b 256 1101 286 1084 271 1101 b 198 1059 241 1101 223 1087 l 392 864 z m 577 218 l 566 224 l 519 134 b 424 71 498 93 458 71 b 365 134 392 71 365 91 b 371 174 365 146 367 159 l 404 293 b 485 651 420 351 478 577 l 323 651 b 137 548 249 651 182 635 l 98 471 l 110 465 l 149 542 b 211 608 170 583 195 608 b 231 564 223 608 231 595 b 226 511 231 550 229 532 l 193 327 b 170 153 184 279 170 214 b 336 -8 170 46 250 -8 b 517 100 407 -8 480 28 z "},"Ǒ":{"ha":1312,"x_min":0,"x_max":0,"o":"m 907 1244 l 1102 1439 b 1045 1480 1077 1467 1059 1480 b 987 1432 1029 1480 1015 1463 b 889 1281 949 1390 893 1301 l 886 1281 b 789 1432 882 1301 827 1390 b 732 1480 762 1463 748 1480 b 675 1439 718 1480 700 1467 l 869 1244 z m 666 26 b 385 310 472 26 385 106 b 873 1090 385 729 581 1090 b 1148 763 1055 1090 1148 977 b 666 26 1148 315 954 26 z m 880 1124 b 177 429 478 1124 177 878 b 659 -14 177 159 357 -14 b 1367 718 1045 -14 1367 277 b 880 1124 1367 983 1200 1124 z "},"ǒ":{"ha":891,"x_min":0,"x_max":0,"o":"m 609 864 l 804 1059 b 747 1101 779 1087 762 1101 b 690 1053 732 1101 717 1084 b 591 901 652 1010 595 922 l 589 901 b 492 1053 585 922 530 1010 b 435 1101 465 1084 450 1101 b 377 1059 420 1101 402 1087 l 571 864 z m 449 20 b 317 172 359 20 317 64 b 568 631 317 401 425 631 b 695 455 651 631 695 570 b 449 20 695 206 591 20 z m 574 665 b 115 256 313 665 115 524 b 442 -14 115 92 238 -14 b 904 412 697 -14 904 149 b 574 665 904 577 791 665 z "}}}
